SplineFontDB: 3.0
FontName: SPLaweng-Oblique
FullName: SP Laweng Oblique
FamilyName: SP Laweng
Weight: Book
Copyright: Copyright (c) 2006 by Department of Intellectual Property (DIP), Ministry of Commerce and Software Industry Promotion Agency (Public Organization) (SIPA). All rights reserved.
Version: 2.3
ItalicAngle: -12
UnderlinePosition: -35
UnderlineWidth: 30
Ascent: 800
Descent: 200
LayerCount: 2
Layer: 0 0 "Back"  1
Layer: 1 0 "Fore"  0
XUID: [1021 375 425136265 5667839]
FSType: 0
OS2Version: 3
OS2_WeightWidthSlopeOnly: 0
OS2_UseTypoMetrics: 1
CreationTime: 1154328750
ModificationTime: 1404908369
PfmFamily: 17
TTFWeight: 400
TTFWidth: 5
LineGap: 60
VLineGap: 0
Panose: 2 0 5 6 0 0 0 2 0 4
OS2TypoAscent: 0
OS2TypoAOffset: 1
OS2TypoDescent: 0
OS2TypoDOffset: 1
OS2TypoLinegap: 0
OS2WinAscent: 0
OS2WinAOffset: 1
OS2WinDescent: -108
OS2WinDOffset: 1
HheadAscent: 0
HheadAOffset: 1
HheadDescent: 108
HheadDOffset: 1
OS2SubXSize: 700
OS2SubYSize: 650
OS2SubXOff: 0
OS2SubYOff: 140
OS2SupXSize: 700
OS2SupYSize: 650
OS2SupXOff: 0
OS2SupYOff: 477
OS2StrikeYSize: 30
OS2StrikeYPos: 250
OS2FamilyClass: 773
OS2Vendor: 'IPTH'
Lookup: 4 0 0 "'frac' Diagonal Fractions in Latin lookup 0"  {"'frac' Diagonal Fractions in Latin lookup 0 subtable"  } ['frac' ('latn' <'dflt' > ) ]
Lookup: 6 0 0 "'liga' Standard Ligatures in Latin lookup 1"  {"'liga' Standard Ligatures in Latin lookup 1 subtable"  } ['liga' ('latn' <'dflt' > ) ]
Lookup: 6 0 0 "'liga' Standard Ligatures in Latin lookup 2"  {"'liga' Standard Ligatures in Latin lookup 2 subtable"  } ['liga' ('latn' <'dflt' > ) ]
Lookup: 6 0 0 "'liga' Standard Ligatures in Latin lookup 3"  {"'liga' Standard Ligatures in Latin lookup 3 subtable"  } ['liga' ('latn' <'dflt' > ) ]
Lookup: 6 0 0 "'liga' Standard Ligatures in Latin lookup 4"  {"'liga' Standard Ligatures in Latin lookup 4 subtable"  } ['liga' ('latn' <'dflt' > ) ]

StartChar: .notdef
Encoding: 65536 -1 0
Width: 753
VWidth: 1507
Flags: W
HStem: 0 80<185 598> 974 74<375 788>
LayerCount: 2
Fore
SplineSet
598 80 m 1
 788 974 l 1
 375 974 l 1
 185 80 l 1
 598 80 l 1
657 0 m 1
 95 0 l 1
 317 1048 l 1
 879 1048 l 1
 657 0 l 1
EndSplineSet
Validated: 1
EndChar

StartChar: numbersign
Encoding: 35 35 4
Width: 658
VWidth: 1507
Flags: W
HStem: 0 21G<176 244.221 433 500.221> 199 63<112 219 294 475 550 647> 470 64<170 276 353 532 609 704> 696 20G<322.824 390 578.934 647>
LayerCount: 2
Fore
SplineSet
475 199 m 1
 282 199 l 1
 240 0 l 1
 176 0 l 1
 219 199 l 1
 99 199 l 1
 112 262 l 1
 231 262 l 1
 276 470 l 1
 157 470 l 1
 170 534 l 1
 289 534 l 1
 327 716 l 1
 390 716 l 1
 353 534 l 1
 546 534 l 1
 583 716 l 1
 647 716 l 1
 609 534 l 1
 718 534 l 1
 704 470 l 1
 595 470 l 1
 550 262 l 1
 659 262 l 1
 647 199 l 1
 538 199 l 1
 496 0 l 1
 433 0 l 1
 475 199 l 1
294 262 m 1
 487 262 l 1
 532 470 l 1
 339 470 l 1
 294 262 l 1
EndSplineSet
Validated: 1
EndChar

StartChar: dollar
Encoding: 36 36 5
Width: 547
VWidth: 1507
Flags: W
HStem: 0 68<143.711 252 329 408.089> 648 68<295.977 389 466 538.213>
VStem: 55 70<87.4794 152> 161 70<452.291 585.301> 490 71<143.35 268.98> 557 70<564 628.521>
LayerCount: 2
Fore
SplineSet
561 232 m 0xf8
 561 98 435 -0 336 0 c 2
 315 0 l 1
 297 -80 l 1
 234 -80 l 1
 252 0 l 1
 194 0 l 2
 111 0 55 46 55 116 c 0
 55 127 56 139 59 152 c 1
 127 152 l 1
 125 145 125 138 125 132 c 0
 125 89 164 68 208 68 c 2
 265 68 l 1
 324 341 l 1
 249 377 l 2
 186 406 161 449 161 498 c 0
 161 650 302 716 383 716 c 2
 402 716 l 1
 419 791 l 1
 482 791 l 1
 466 716 l 1
 487 716 l 2
 572 716 627 670 627 600 c 0
 627 589 626 577 623 564 c 1
 555 564 l 1
 557 571 557 578 557 584 c 0xf4
 557 627 517 648 473 648 c 2
 452 648 l 1
 395 381 l 1
 472 345 l 2
 513 325 561 295 561 232 c 0xf8
381 314 m 1
 329 68 l 1
 350 68 l 2
 368 68 490 107 490 213 c 0xf8
 490 244 483 266 443 285 c 2
 381 314 l 1
369 648 m 2
 315 648 231 607 231 510 c 0
 231 476 238 456 277 437 c 2
 338 409 l 1
 389 648 l 1
 369 648 l 2
EndSplineSet
Validated: 1
EndChar

StartChar: percent
Encoding: 37 37 6
Width: 875
VWidth: 1507
Flags: W
HStem: 18 63<612.213 715.737> 304 62<663.17 764.232> 329 63<246.76 352.145> 615 63<299.082 403.475>
VStem: 180 65<397.479 458.452> 406 65<549.419 611.159> 544 65<84.9067 147.4> 769 65<238.419 300.024>
LayerCount: 2
Fore
SplineSet
471 610 m 0xbf
 471 600 470 590 467 579 c 2
 440 448 l 2
 427 386 366 329 298 329 c 2
 265 329 l 2
 214 329 180 353 180 402 c 0
 180 410 182 420 184 430 c 2
 211 556 l 2
 224 615 285 678 348 678 c 2
 384 678 l 2
 459 678 471 637 471 610 c 0xbf
298 392 m 2
 336 392 373 423 381 460 c 2
 404 564 l 2
 405 570 406 575 406 580 c 0
 406 603 390 615 359 615 c 2
 353 615 l 2
 304 615 274 570 268 544 c 2
 247 445 l 2
 245 437 245 430 245 424 c 0
 245 403 262 392 291 392 c 2
 298 392 l 2
834 296 m 0
 834 287 833 278 831 268 c 2
 803 137 l 2
 790 73 728 18 662 18 c 2
 629 18 l 2
 565 18 544 54 544 92 c 0
 544 100 545 109 547 118 c 2
 574 244 l 2
 589 312 656 366 711 366 c 2
 748 366 l 2xdf
 822 366 834 324 834 296 c 0
197 -26 m 1
 748 739 l 1
 814 739 l 1
 267 -26 l 1
 197 -26 l 1
632 234 m 2
 610 134 l 2
 609 129 609 125 609 121 c 0
 609 94 624 81 656 81 c 2
 662 81 l 2
 700 81 737 113 746 149 c 1
 767 253 l 2
 768 259 769 264 769 269 c 0
 769 292 753 304 722 304 c 2
 716 304 l 2
 666 304 638 257 632 234 c 2
EndSplineSet
Validated: 1
EndChar

StartChar: ampersand
Encoding: 38 38 7
Width: 657
VWidth: 1507
Flags: W
HStem: -9 68<198.771 380> 0 21G<525.5 623> 651 65<376.538 525.906>
VStem: 88 70<101.062 202.8> 244 68<471.389 546> 540 69<521.528 635.848> 565 68<258.878 318>
LayerCount: 2
Fore
SplineSet
502 190 m 1xbc
 529 226 555 273 565 318 c 1
 633 318 l 1
 617 240 564 165 538 133 c 1
 570 80 l 1
 623 0 l 1
 538 0 l 1x7a
 488 80 l 1
 437 36 364 -9 282 -9 c 2
 238 -9 l 2
 148 -9 88 77 88 148 c 0
 88 158 90 169 92 179 c 2
 98 213 l 2
 117 310 245 371 292 395 c 1
 273 425 l 2
 248 464 244 490 244 506 c 0
 244 515 245 524 247 534 c 2
 249 546 l 2
 268 645 368 716 455 716 c 2
 494 716 l 2
 567 716 609 666 609 606 c 0
 609 596 608 586 606 576 c 2
 603 562 l 2
 590 505 559 446 401 380 c 2
 387 374 l 1
 502 190 l 1xbc
158 160 m 0
 158 117 198 59 253 59 c 2
 297 59 l 2xb8
 360 59 417 97 455 136 c 1
 323 347 l 1
 249 313 176 263 166 213 c 2
 160 179 l 1
 158 173 158 166 158 160 c 0
312 520 m 0
 312 506 318 500 330 470 c 1
 330 466 345 442 356 424 c 1
 376 432 l 2
 512 486 530 531 537 562 c 2
 538 574 l 1
 540 581 540 587 540 593 c 0x3c
 540 625 515 651 478 651 c 2
 442 651 l 2
 381 651 329 602 315 546 c 1
 314 535 l 2
 313 530 312 525 312 520 c 0
EndSplineSet
Validated: 1
EndChar

StartChar: quotesingle
Encoding: 39 39 8
Width: 188
VWidth: 1507
Flags: W
HStem: 541 220<216 240>
VStem: 169 117
LayerCount: 2
Fore
SplineSet
216 761 m 1
 286 761 l 1
 240 541 l 1
 169 541 l 1
 216 761 l 1
EndSplineSet
Validated: 1
EndChar

StartChar: parenleft
Encoding: 40 40 9
Width: 327
VWidth: 1507
Flags: W
HStem: 696 20G<233 433>
VStem: 106 69<-81.016 273.604>
LayerCount: 2
Fore
SplineSet
175 97 m 0
 175 -23 207 -135 237 -207 c 1
 163 -207 l 1
 132 -130 106 -29 106 86 c 0
 106 151 107 424 359 716 c 1
 433 716 l 1
 329 595 175 379 175 97 c 0
EndSplineSet
Validated: 1
EndChar

StartChar: parenright
Encoding: 41 41 10
Width: 327
VWidth: 1507
Flags: W
HStem: 696 20G<222 316>
VStem: 286 69<243.445 594.595>
LayerCount: 2
Fore
SplineSet
355 417 m 0
 355 360 348 87 99 -207 c 1
 26 -207 l 1
 164 -42 286 172 286 425 c 0
 286 541 255 641 222 716 c 1
 295 716 l 1
 337 622 355 523 355 417 c 0
EndSplineSet
Validated: 1
EndChar

StartChar: asterisk
Encoding: 42 42 11
Width: 471
VWidth: 1507
Flags: W
LayerCount: 2
Fore
SplineSet
547 763 m 1
 547 763 559 729 565 718 c 1
 419 644 l 1
 534 570 l 1
 496 525 l 1
 386 597 l 1
 354 452 l 1
 301 452 l 1
 333 598 l 1
 191 526 l 1
 173 571 l 1
 314 644 l 1
 203 716 l 1
 241 761 l 1
 351 687 l 1
 383 835 l 1
 436 835 l 1
 405 689 l 1
 547 763 l 1
EndSplineSet
Validated: 1
EndChar

StartChar: plus
Encoding: 43 43 12
Width: 574
VWidth: 1507
Flags: W
HStem: 300 63<133 320 396 584.396>
LayerCount: 2
Fore
SplineSet
383 300 m 1
 341 99 l 1
 277 99 l 1
 320 300 l 1
 119 300 l 1
 133 363 l 1
 333 363 l 1
 375 564 l 1
 439 564 l 1
 396 363 l 1
 597 363 l 1
 582 300 586 313 583 300 c 1
 383 300 l 1
EndSplineSet
Validated: 1
EndChar

StartChar: comma
Encoding: 44 44 13
Width: 232
VWidth: 1507
Flags: W
HStem: -121 214
VStem: 6 176
LayerCount: 2
Fore
SplineSet
121 93 m 1
 182 93 l 1
 173 53 l 2
 169 32 153 -46 66 -100 c 2
 30 -121 l 1
 6 -72 l 1
 54 -38 97 -17 112 53 c 2
 121 93 l 1
EndSplineSet
Validated: 1
EndChar

StartChar: hyphen
Encoding: 45 45 14
Width: 357
VWidth: 1507
Flags: W
HStem: 282 69<116 373.605>
VStem: 101 286
LayerCount: 2
Fore
SplineSet
387 351 m 1
 387 346 372 282 372 282 c 1
 101 282 l 1
 116 351 l 1
 387 351 l 1
EndSplineSet
Validated: 1
EndChar

StartChar: period
Encoding: 46 46 15
Width: 272
VWidth: 1507
Flags: W
HStem: -8 106<113.961 186.031>
VStem: 96 108<10.0253 80.0696>
LayerCount: 2
Fore
SplineSet
96 32 m 0
 96 63 122 98 161 98 c 256
 187 98 204 82 204 58 c 0
 204 21 172 -8 139 -8 c 256
 105 -8 96 18 96 32 c 0
EndSplineSet
Validated: 1
EndChar

StartChar: slash
Encoding: 47 47 16
Width: 453
VWidth: 1507
Flags: W
LayerCount: 2
Fore
SplineSet
-6 -26 m 1
 543 739 l 1
 609 739 l 1
 62 -26 l 1
 -6 -26 l 1
EndSplineSet
Validated: 1
EndChar

StartChar: zero
Encoding: 48 48 17
Width: 574
VWidth: 1507
Flags: W
HStem: -8 61<193.137 369.072> 663 61<357.004 534.982>
VStem: 84 70<91.5344 234.242> 573 70<447 626.42>
LayerCount: 2
Fore
SplineSet
255 -8 m 2
 118 -8 84 78 84 149 c 0
 84 167 86 185 90 205 c 2
 146 464 l 2
 177 598 312 724 430 724 c 2
 470 724 l 2
 602 724 643 651 643 573 c 0
 643 555 641 535 636 514 c 2
 579 246 l 2
 548 110 410 -8 288 -8 c 2
 255 -8 l 2
573 556 m 0
 573 607 550 663 458 663 c 2
 433 663 l 2
 333 663 234 556 214 464 c 2
 158 205 l 2
 155 191 154 177 154 165 c 0
 154 113 176 53 267 53 c 2
 292 53 l 2
 391 53 491 158 511 246 c 2
 568 514 l 2
 571 529 573 543 573 556 c 0
EndSplineSet
Validated: 1
EndChar

StartChar: one
Encoding: 49 49 18
Width: 410
VWidth: 1507
Flags: W
HStem: 0 21G<213 284.218> 491 62<167 245.659> 696 20G<354 431>
VStem: 154 277
LayerCount: 2
Fore
SplineSet
167 553 m 1
 254 553 345 635 363 716 c 1
 431 716 l 1
 280 0 l 1
 213 0 l 1
 330 555 l 1
 313 541 261 495 154 491 c 1
 167 553 l 1
EndSplineSet
Validated: 1
EndChar

StartChar: two
Encoding: 50 50 19
Width: 584
VWidth: 1507
Flags: W
HStem: 0 60<134 537> 675 61<340.182 541.979>
VStem: 575 69<496.012 642.915>
LayerCount: 2
Fore
SplineSet
199 629 m 1
 260 688 347 736 445 736 c 2
 469 736 l 2
 624 736 644 641 644 588 c 0
 644 460 564 403 514 374 c 2
 223 188 l 2
 211 180 151 144 134 60 c 1
 549 60 l 1
 537 0 l 1
 48 0 l 1
 62 68 l 2
 79 141 121 194 176 231 c 2
 508 443 l 2
 524 454 575 498 575 580 c 0
 575 643 536 675 458 675 c 2
 433 675 l 2
 354 675 284 625 244 588 c 1
 199 629 l 1
EndSplineSet
Validated: 1
EndChar

StartChar: three
Encoding: 51 51 20
Width: 590
VWidth: 1507
Flags: W
HStem: -6 60<202.234 380.709> 384 61<300 487.726> 675 61<322.182 523.979>
VStem: 529 69<199.785 342.777> 557 69<496.512 642.915>
LayerCount: 2
Fore
SplineSet
529 276 m 0xf0
 529 327 495 384 422 384 c 2
 288 384 l 1
 300 445 l 1
 442 445 l 2
 485 448 557 472 557 580 c 0
 557 643 518 675 440 675 c 2
 415 675 l 2
 336 675 266 625 226 588 c 1
 181 629 l 1
 242 688 329 736 427 736 c 2
 451 736 l 2
 606 736 626 641 626 588 c 0xe8
 626 515 598 454 543 416 c 1
 576 388 598 342 598 287 c 0
 598 165 478 -6 274 -6 c 0
 167 -6 106 32 57 116 c 1
 118 161 l 1
 177 73 228 54 288 54 c 0
 421 54 529 183 529 276 c 0xf0
EndSplineSet
Validated: 1
EndChar

StartChar: four
Encoding: 52 52 21
Width: 589
VWidth: 1507
Flags: W
HStem: 0 21G<392 464.054> 148 60<175 422 503 582> 696 20G<525.139 610>
LayerCount: 2
Fore
SplineSet
146 148 m 2
 121 148 89 157 89 191 c 0
 89 197 90 204 92 211 c 1
 543 716 l 1
 610 716 l 1
 503 208 l 1
 595 208 l 1
 582 148 l 1
 490 148 l 1
 460 0 l 1
 392 0 l 1
 422 148 l 1
 146 148 l 2
519 598 m 1
 175 208 l 1
 436 208 l 1
 519 598 l 1
EndSplineSet
Validated: 1
EndChar

StartChar: five
Encoding: 53 53 22
Width: 605
VWidth: 1507
Flags: W
HStem: -6 60<217.453 396.574> 384 61<274 501.932> 656 60<320 657>
VStem: 544 70<197.539 341.865>
LayerCount: 2
Fore
SplineSet
544 276 m 0
 544 326 512 384 437 384 c 2
 194 384 l 1
 264 716 l 1
 669 716 l 1
 657 656 l 1
 320 656 l 1
 274 445 l 1
 469 445 l 2
 562 445 614 371 614 289 c 0
 614 166 494 -6 289 -6 c 0
 213 -6 133 11 72 116 c 1
 133 161 l 1
 192 73 243 54 303 54 c 0
 439 54 544 184 544 276 c 0
EndSplineSet
Validated: 1
EndChar

StartChar: six
Encoding: 54 54 23
Width: 598
VWidth: 1507
Flags: W
HStem: -6 60<214.898 396.05> 389 60<316.062 501.834> 675 61<388.232 556.667>
VStem: 102 74<89.4697 247.652> 540 69<242.222 355.009>
LayerCount: 2
Fore
SplineSet
196 353 m 1
 236 394 309 449 392 449 c 2
 434 449 l 2
 587 449 609 363 609 305 c 0
 609 288 607 270 603 250 c 2
 600 240 l 2
 570 107 433 -6 312 -6 c 2
 279 -6 l 2
 137 -6 102 87 102 173 c 0
 102 196 105 243 115 288 c 2
 149 449 l 2
 181 614 347 736 494 736 c 0
 557 736 606 717 639 687 c 1
 588 632 l 1
 537 673 503 675 482 675 c 0
 360 675 240 568 217 451 c 2
 196 353 l 1
396 389 m 2
 288 389 176 272 176 158 c 0
 176 90 217 54 289 54 c 2
 315 54 l 2
 412 54 514 152 532 240 c 2
 535 250 l 2
 538 265 540 278 540 290 c 0
 540 327 526 389 422 389 c 2
 396 389 l 2
EndSplineSet
Validated: 1
EndChar

StartChar: seven
Encoding: 55 55 24
Width: 554
VWidth: 1507
Flags: W
HStem: 0 21G<187 264> 657 61<190 571>
VStem: 187 68<0 75.7644>
LayerCount: 2
Fore
SplineSet
190 718 m 1
 671 718 l 1
 660 672 l 1
 345 214 l 2
 303 153 273 79 255 0 c 1
 187 0 l 1
 217 131 253 188 268 211 c 2
 571 657 l 1
 176 657 l 1
 190 718 l 1
EndSplineSet
Validated: 1
EndChar

StartChar: eight
Encoding: 56 56 25
Width: 592
VWidth: 1507
Flags: W
HStem: -8 61<190.929 394.673> 356 60<285.623 468.692> 665 60<359.376 535.551>
VStem: 82 69<92.4066 229.171> 182 71<442.575 563.842> 525 69<170.309 306.255> 566 72<502.314 637.515>
LayerCount: 2
Fore
SplineSet
478 725 m 2xfc
 619 725 638 638 638 590 c 0xfa
 638 496 577 429 520 392 c 1
 562 371 594 320 594 260 c 0
 594 234 584 120 476 49 c 0
 425 15 355 -8 274 -8 c 2
 255 -8 l 2
 148 -8 82 51 82 140 c 0
 82 254 175 339 235 377 c 1
 210 395 182 425 182 474 c 0
 182 593 303 725 440 725 c 2
 478 725 l 2xfc
525 243 m 0xfc
 525 297 477 356 418 356 c 2
 368 356 l 2
 275 356 151 258 151 154 c 0
 151 89 200 53 267 53 c 2
 286 53 l 2
 442 53 525 167 525 243 c 0xfc
253 493 m 0
 253 437 309 416 344 416 c 2
 399 416 l 2
 461 420 566 476 566 575 c 0xfa
 566 619 546 665 464 665 c 2
 442 665 l 2
 338 665 253 572 253 493 c 0
EndSplineSet
Validated: 1
EndChar

StartChar: nine
Encoding: 57 57 26
Width: 592
VWidth: 1507
Flags: W
HStem: -6 60<196.001 363.73> 282 60<246.428 437.727> 675 61<358.895 540.856>
VStem: 142 70<375.766 527.822> 576 74<482.69 640.847>
LayerCount: 2
Fore
SplineSet
556 377 m 1
 471 288 388 282 359 282 c 2
 318 282 l 2
 169 282 142 365 142 421 c 0
 142 438 144 458 149 479 c 2
 152 490 l 2
 183 624 317 736 440 736 c 2
 473 736 l 2
 615 736 650 642 650 561 c 0
 650 531 644 475 638 440 c 2
 603 279 l 2
 564 110 408 -6 258 -6 c 0
 170 -6 125 31 112 42 c 1
 164 98 l 1
 214 56 254 54 270 54 c 0
 391 54 512 162 535 279 c 2
 556 377 l 1
356 342 m 2
 457 342 576 447 576 573 c 0
 576 622 554 675 463 675 c 2
 437 675 l 2
 346 675 237 582 220 490 c 2
 217 479 l 2
 214 465 212 451 212 439 c 0
 212 400 229 342 330 342 c 2
 356 342 l 2
EndSplineSet
Validated: 1
EndChar

StartChar: colon
Encoding: 58 58 27
Width: 301
VWidth: 1507
Flags: W
HStem: 27 106<139.186 212.346> 396 106<218.385 290.348>
VStem: 122 108<44.6624 116.08> 200 109<414.744 483.826>
LayerCount: 2
Fore
SplineSet
122 67 m 0xe0
 122 101 149 133 187 133 c 256
 213 133 230 117 230 93 c 0
 230 55 199 27 164 27 c 256
 139 27 122 43 122 67 c 0xe0
200 437 m 0xd0
 200 466 226 502 265 502 c 256
 291 502 309 485 309 460 c 0
 309 427 277 396 243 396 c 256
 216 396 200 414 200 437 c 0xd0
EndSplineSet
Validated: 1
EndChar

StartChar: semicolon
Encoding: 59 59 28
Width: 301
VWidth: 1507
Flags: W
HStem: 396 106<218.385 290.348>
VStem: 200 109<414.744 483.826>
LayerCount: 2
Fore
SplineSet
200 437 m 0
 200 466 226 502 265 502 c 256
 291 502 309 485 309 460 c 0
 309 427 277 396 243 396 c 256
 216 396 200 414 200 437 c 0
167 142 m 1
 229 142 l 1
 222 101 l 2
 207 26 162 -23 114 -51 c 2
 78 -72 l 1
 54 -24 l 1
 94 5 145 26 160 101 c 2
 167 142 l 1
EndSplineSet
Validated: 1
EndChar

StartChar: less
Encoding: 60 60 29
Width: 621
VWidth: 1507
Flags: W
HStem: -11 21G<540.641 574.412>
LayerCount: 2
Fore
SplineSet
702 615 m 1
 689 547 l 1
 229 301 l 1
 585 57 l 1
 570 -11 l 1
 112 301 l 1
 702 615 l 1
EndSplineSet
Validated: 1
EndChar

StartChar: equal
Encoding: 61 61 30
Width: 527
VWidth: 1507
Flags: W
HStem: 185 70<95 503> 378 70<137 545.36>
LayerCount: 2
Fore
SplineSet
517 255 m 1
 503 185 l 1
 81 185 l 1
 95 255 l 1
 517 255 l 1
559 448 m 1
 558 436 559 448 544 378 c 1
 122 378 l 1
 137 448 l 1
 559 448 l 1
EndSplineSet
Validated: 1
EndChar

StartChar: greater
Encoding: 62 62 31
Width: 622
VWidth: 1507
Flags: W
HStem: -11 21G<49.4118 82.8846>
LayerCount: 2
Fore
SplineSet
636 301 m 1
 45 -11 l 1
 60 57 l 1
 519 301 l 1
 164 547 l 1
 178 615 l 1
 636 301 l 1
EndSplineSet
Validated: 1
EndChar

StartChar: question
Encoding: 63 63 32
Width: 539
VWidth: 1507
Flags: W
HStem: -8 106<204.193 277.031> 651 67<223.227 491.469>
VStem: 187 108<10.5239 80.9294> 534 68<483.88 612.984>
LayerCount: 2
Fore
SplineSet
187 34 m 0
 187 65 213 98 252 98 c 256
 278 98 295 81 295 56 c 0
 295 23 264 -8 229 -8 c 256
 195 -8 187 19 187 34 c 0
326 651 m 2
 264 651 211 630 179 601 c 1
 163 662 l 1
 187 685 247 718 341 718 c 2
 424 718 l 2
 518 718 602 673 602 569 c 0
 602 441 490 374 393 336 c 0
 326 308 310 237 308 223 c 2
 295 164 l 1
 228 164 l 1
 240 223 l 2
 248 260 280 351 399 402 c 0
 452 425 534 464 534 555 c 0
 534 621 473 651 409 651 c 2
 326 651 l 2
EndSplineSet
Validated: 1
EndChar

StartChar: at
Encoding: 64 64 33
Width: 905
VWidth: 1507
Flags: W
HStem: -27 62<236.008 643.525> 139 58<367 542> 143 62<675.858 779.331> 514 59<445.84 619.438> 681 62<407.984 814.524>
VStem: 104 63<103.062 252.38> 291 60<213.505 308.724> 663 59<547 573> 885 63<466 611.345>
LayerCount: 2
Fore
SplineSet
351 261 m 0xdf80
 351 225 377 197 418 197 c 2
 470 197 l 2
 536 197 591 244 607 308 c 2
 635 437 l 1
 635 441 636 444 636 448 c 0
 636 485 609 514 567 514 c 2
 517 514 l 2
 452 514 393 465 378 399 c 2
 353 280 l 2
 351 273 351 267 351 261 c 0xdf80
541 35 m 2
 603 35 657 58 695 84 c 1
 721 35 l 1
 672 2 604 -27 526 -27 c 2
 311 -27 l 2
 183 -27 104 62 104 171 c 0
 104 189 106 207 110 226 c 2
 155 436 l 2
 196 622 368 743 528 743 c 2
 742 743 l 2
 860 743 948 663 948 544 c 0
 948 526 946 509 942 490 c 2
 920 384 l 2
 892 254 836 143 710 143 c 0xbf80
 681 143 659 150 644 164 c 0
 630 178 620 193 615 210 c 1
 579 161 509 139 457 139 c 2
 405 139 l 2xdf80
 331 139 291 189 291 248 c 0
 291 258 292 269 294 280 c 2
 320 399 l 2
 338 492 431 573 529 573 c 2
 579 573 l 2
 613 573 640 562 659 547 c 1
 663 573 l 1
 722 573 l 1
 666 309 l 2
 664 298 662 287 662 277 c 0
 662 244 674 205 722 205 c 0xbf80
 802 205 841 304 858 386 c 2
 880 494 l 2
 883 509 885 522 885 536 c 0
 885 603 840 681 734 681 c 2
 513 681 l 2
 378 681 246 575 217 439 c 2
 172 222 l 2
 169 207 167 194 167 180 c 0
 167 113 212 35 318 35 c 2
 541 35 l 2
EndSplineSet
Validated: 1
EndChar

StartChar: A
Encoding: 65 65 34
Width: 788
VWidth: 1507
Flags: W
HStem: 0 21G<38 126 670.4 751> 200 61<280 614> 698 20G<494.908 523.5>
LayerCount: 2
Fore
SplineSet
508 718 m 1
 539 718 584 707 595 663 c 2
 751 0 l 1
 675 0 l 1
 629 200 l 1
 243 200 l 1
 113 0 l 1
 38 0 l 1
 508 718 l 1
280 261 m 1
 614 261 l 1
 528 636 l 1
 280 261 l 1
EndSplineSet
Validated: 1
EndChar

StartChar: B
Encoding: 66 66 35
Width: 714
VWidth: 1507
Flags: W
HStem: 0 60<146 554.581> 344 60<219 564.292> 656 60<273 607.903>
VStem: 643 73<157.08 306.795 484.095 619.937>
LayerCount: 2
Fore
SplineSet
716 246 m 0
 716 118 588 0 485 0 c 2
 130 0 l 2
 99 0 78 25 78 52 c 0
 78 57 79 61 80 66 c 2
 217 716 l 1
 565 716 l 2
 656 716 714 641 714 564 c 0
 714 482 659 427 624 396 c 1
 702 365 716 283 716 246 c 0
643 230 m 0
 643 298 603 344 558 344 c 2
 207 344 l 1
 146 60 l 1
 497 60 l 2
 559 60 643 150 643 230 c 0
642 553 m 0
 642 608 606 656 553 656 c 2
 273 656 l 1
 219 404 l 1
 499 404 l 2
 566 404 642 478 642 553 c 0
EndSplineSet
Validated: 1
EndChar

StartChar: C
Encoding: 67 67 36
Width: 705
VWidth: 1507
Flags: W
HStem: -15 60<225.952 473.351> 671 60<388.031 635.204>
VStem: 94 69<113.465 262.729> 639 68<197.461 255> 693 69<502 611.778>
LayerCount: 2
Fore
SplineSet
573 731 m 2xf0
 698 731 762 645 762 552 c 0
 762 536 761 520 757 502 c 1
 689 502 l 1
 692 514 693 525 693 537 c 0xe8
 693 612 642 671 559 671 c 2
 478 671 l 2
 355 671 237 551 210 431 c 2
 167 234 l 2
 164 221 163 209 163 197 c 0
 163 123 209 45 294 45 c 2
 378 45 l 2
 497 45 615 138 639 255 c 1
 707 255 l 1
 676 95 522 -15 365 -15 c 2
 280 -15 l 2
 163 -15 94 80 94 184 c 0
 94 200 95 217 99 234 c 2
 142 431 l 2
 176 587 328 731 491 731 c 2
 573 731 l 2xf0
EndSplineSet
Validated: 1
EndChar

StartChar: D
Encoding: 68 68 37
Width: 735
VWidth: 1507
Flags: W
HStem: 0 60<146 487.65> 656 60<273 646.444>
VStem: 707 69<451.326 592.947>
LayerCount: 2
Fore
SplineSet
585 716 m 2
 703 716 776 636 776 534 c 0
 776 517 774 499 770 481 c 2
 730 286 l 2
 690 113 531 -0 384 0 c 2
 130 0 l 2
 99 0 78 25 78 52 c 0
 78 57 79 61 80 66 c 2
 217 716 l 1
 585 716 l 2
707 520 m 0
 707 594 653 656 573 656 c 2
 273 656 l 1
 146 60 l 1
 396 60 l 2
 518 60 634 169 662 286 c 2
 702 481 l 2
 705 494 707 507 707 520 c 0
EndSplineSet
Validated: 1
EndChar

StartChar: E
Encoding: 69 69 38
Width: 705
VWidth: 1507
Flags: W
HStem: 0 60<146 639> 344 60<219 638> 656 60<273 778>
LayerCount: 2
Fore
SplineSet
217 716 m 1
 790 716 l 1
 778 656 l 1
 273 656 l 1
 219 404 l 1
 650 404 l 1
 638 344 l 1
 207 344 l 1
 146 60 l 1
 651 60 l 1
 639 0 l 1
 130 0 l 2
 100 0 78 24 78 52 c 0
 78 57 79 61 80 66 c 2
 217 716 l 1
EndSplineSet
Validated: 1
EndChar

StartChar: F
Encoding: 70 70 39
Width: 705
VWidth: 1507
Flags: W
HStem: 0 21G<66 138.244> 344 60<219 638> 656 60<273 778>
LayerCount: 2
Fore
SplineSet
207 344 m 1
 134 0 l 1
 66 0 l 1
 217 716 l 1
 790 716 l 1
 778 656 l 1
 273 656 l 1
 219 404 l 1
 650 404 l 1
 638 344 l 1
 207 344 l 1
EndSplineSet
Validated: 1
EndChar

StartChar: G
Encoding: 71 71 40
Width: 705
VWidth: 1507
Flags: W
HStem: -15 60<225.952 475.482> 255 60<439 639> 671 60<388.031 635.204>
VStem: 94 69<113.465 262.729> 693 69<502.702 611.778>
LayerCount: 2
Fore
SplineSet
163 197 m 0
 163 123 209 45 294 45 c 2
 378 45 l 2
 507 45 617 147 639 255 c 1
 425 255 l 1
 439 315 l 1
 721 315 l 1
 707 255 l 2
 677 103 530 -15 365 -15 c 2
 280 -15 l 2
 163 -15 94 80 94 184 c 0
 94 200 95 217 99 234 c 2
 142 431 l 2
 176 587 328 731 491 731 c 2
 573 731 l 2
 698 731 762 645 762 552 c 0
 762 536 761 520 757 502 c 1
 689 502 l 1
 692 514 693 525 693 537 c 0
 693 612 642 671 559 671 c 2
 478 671 l 2
 355 671 237 551 210 431 c 2
 167 234 l 2
 164 221 163 209 163 197 c 0
EndSplineSet
Validated: 1
EndChar

StartChar: H
Encoding: 72 72 41
Width: 705
VWidth: 1507
Flags: W
HStem: 0 21G<66 138.244 571 643.218> 344 60<219 644> 696 20G<212.782 285 717.769 790>
LayerCount: 2
Fore
SplineSet
644 344 m 1
 207 344 l 1
 134 0 l 1
 66 0 l 1
 217 716 l 1
 285 716 l 1
 219 404 l 1
 656 404 l 1
 722 716 l 1
 790 716 l 1
 639 0 l 1
 571 0 l 1
 644 344 l 1
EndSplineSet
Validated: 1
EndChar

StartChar: I
Encoding: 73 73 42
Width: 200
VWidth: 1507
Flags: W
HStem: 0 21G<66 138.218> 696 20G<212.782 285>
VStem: 66 219
LayerCount: 2
Fore
SplineSet
217 716 m 1
 285 716 l 1
 134 0 l 1
 66 0 l 1
 217 716 l 1
EndSplineSet
Validated: 1
EndChar

StartChar: J
Encoding: 74 74 43
Width: 615
VWidth: 1507
Flags: W
HStem: -15 68<202.939 376.757> 696 20G<627.748 699>
VStem: 73 69<117.112 234>
LayerCount: 2
Fore
SplineSet
259 -15 m 0
 142 -15 73 80 73 184 c 0
 73 200 74 217 78 234 c 1
 146 234 l 1
 143 221 142 209 142 197 c 0
 142 117 195 53 274 53 c 0
 394 53 510 139 534 255 c 2
 632 716 l 1
 699 716 l 1
 601 255 l 2
 570 98 420 -15 259 -15 c 0
EndSplineSet
Validated: 1
EndChar

StartChar: K
Encoding: 75 75 44
Width: 675
VWidth: 1507
Flags: W
HStem: 0 21G<66 138.172 527.47 638> 696 20G<212.782 285 655.838 788>
LayerCount: 2
Fore
SplineSet
282 374 m 1
 340 374 393 320 428 271 c 1
 428 269 439 255 456 234 c 2
 638 0 l 1
 543 0 l 1
 338 264 l 2
 315 291 291 308 265 315 c 0
 239 322 218 326 202 326 c 1
 134 0 l 1
 66 0 l 1
 217 716 l 1
 285 716 l 1
 220 407 l 1
 686 716 l 1
 788 716 l 1
 282 374 l 1
EndSplineSet
Validated: 1
EndChar

StartChar: L
Encoding: 76 76 45
Width: 616
VWidth: 1507
Flags: W
HStem: 0 60<146 579> 696 20G<212.785 285>
LayerCount: 2
Fore
SplineSet
217 716 m 1
 285 716 l 1
 146 60 l 1
 591 60 l 1
 579 0 l 1
 130 0 l 2
 100 0 78 24 78 52 c 0
 78 57 79 61 80 66 c 2
 217 716 l 1
EndSplineSet
Validated: 1
EndChar

StartChar: M
Encoding: 77 77 46
Width: 880
VWidth: 1507
Flags: W
HStem: 0 21G<66 138.212 430.589 451.913 746 818.218> 698 20G<214.738 292.572 881.929 965>
LayerCount: 2
Fore
SplineSet
814 0 m 1
 746 0 l 1
 865 565 l 1
 437 -9 l 1
 253 565 l 1
 134 0 l 1
 66 0 l 1
 219 718 l 1
 286 718 l 1
 472 152 l 1
 897 716 l 1
 965 716 l 1
 814 0 l 1
EndSplineSet
Validated: 1
EndChar

StartChar: N
Encoding: 78 78 47
Width: 735
VWidth: 1507
Flags: W
HStem: 0 21G<66 138.245 589.756 673.262> 698 20G<214.738 297.177 746.755 822>
LayerCount: 2
Fore
SplineSet
623 115 m 1
 751 718 l 1
 822 718 l 1
 669 0 l 1
 601 0 l 1
 262 603 l 1
 134 0 l 1
 66 0 l 1
 219 718 l 1
 286 718 l 1
 623 115 l 1
EndSplineSet
Validated: 1
EndChar

StartChar: O
Encoding: 79 79 48
Width: 706
VWidth: 1507
Flags: W
HStem: -15 60<228.839 468.742> 671 60<391.422 630.278>
VStem: 97 69<111.943 264.674> 693 70<451.957 601.566>
LayerCount: 2
Fore
SplineSet
576 731 m 2
 688 731 763 646 763 535 c 0
 763 518 761 500 757 481 c 2
 716 286 l 2
 678 125 526 -15 366 -15 c 2
 283 -15 l 2
 166 -15 97 78 97 180 c 0
 97 198 99 216 103 235 c 2
 143 430 l 2
 185 609 350 731 494 731 c 2
 576 731 l 2
166 195 m 0
 166 114 218 45 297 45 c 2
 380 45 l 2
 500 45 622 169 648 286 c 2
 689 481 l 2
 692 494 693 506 693 518 c 0
 693 591 648 671 562 671 c 2
 481 671 l 2
 359 671 240 551 211 430 c 2
 170 235 l 2
 167 221 166 208 166 195 c 0
EndSplineSet
Validated: 1
EndChar

StartChar: P
Encoding: 80 80 49
Width: 676
VWidth: 1507
Flags: W
HStem: 0 21G<66 138.244> 344 60<219 606.918> 656 60<273 649.585>
VStem: 685 71<481.247 619.616>
LayerCount: 2
Fore
SplineSet
756 567 m 0
 756 457 648 344 523 344 c 2
 207 344 l 1
 134 0 l 1
 66 0 l 1
 217 716 l 1
 601 716 l 2
 704 716 756 635 756 567 c 0
685 550 m 0
 685 606 651 656 589 656 c 2
 273 656 l 1
 219 404 l 1
 535 404 l 2
 600 404 685 465 685 550 c 0
EndSplineSet
Validated: 1
EndChar

StartChar: Q
Encoding: 81 81 50
Width: 705
VWidth: 1507
Flags: W
HStem: -15 60<229.685 468.163> 671 60<390.199 626.315>
VStem: 95 69<113.018 264.043> 692 69<451.326 600.366>
LayerCount: 2
Fore
SplineSet
574 731 m 2
 694 731 761 637 761 536 c 0
 761 518 759 500 755 481 c 2
 715 286 l 2
 699 215 661 154 617 106 c 1
 668 35 l 1
 610 -14 l 1
 559 56 l 1
 513 21 444 -15 365 -15 c 2
 282 -15 l 2
 162 -15 95 79 95 180 c 0
 95 198 97 216 101 235 c 2
 142 430 l 2
 177 591 334 731 493 731 c 2
 574 731 l 2
164 194 m 0
 164 117 217 45 295 45 c 2
 378 45 l 2
 439 45 491 76 525 101 c 1
 439 210 l 1
 497 258 l 1
 579 154 l 1
 614 195 637 239 647 286 c 2
 687 481 l 2
 690 494 692 508 692 521 c 0
 692 591 646 671 561 671 c 2
 479 671 l 2
 356 671 235 546 210 430 c 2
 169 235 l 2
 166 221 164 208 164 194 c 0
EndSplineSet
Validated: 1
EndChar

StartChar: R
Encoding: 82 82 51
Width: 690
VWidth: 1507
Flags: W
HStem: 0 21G<66 138.244 579.111 668> 344 60<219 437.183 502 606.918> 656 60<273 649.585>
VStem: 685 71<481.247 619.616>
LayerCount: 2
Fore
SplineSet
756 567 m 0
 756 457 648 344 523 344 c 2
 502 344 l 1
 518 344 535 304 541 288 c 2
 668 0 l 1
 588 0 l 1
 460 288 l 2
 450 311 425 344 396 344 c 2
 207 344 l 1
 134 0 l 1
 66 0 l 1
 217 716 l 1
 601 716 l 2
 704 716 756 635 756 567 c 0
685 550 m 0
 685 606 651 656 589 656 c 2
 273 656 l 1
 219 404 l 1
 535 404 l 2
 600 404 685 465 685 550 c 0
EndSplineSet
Validated: 1
EndChar

StartChar: S
Encoding: 83 83 52
Width: 765
VWidth: 1507
Flags: W
HStem: -15 60<227.893 555.594> 674 59<374.21 681.367>
VStem: 92 70<112.499 225> 189 71<470.23 581.775> 693 71<167.07 312.985> 730 68<526 625.875>
LayerCount: 2
Fore
SplineSet
457 45 m 2xf8
 570 45 693 127 693 250 c 0xf8
 693 297 668 335 606 344 c 2
 315 381 l 2
 296 385 189 404 189 494 c 0
 189 653 361 733 470 733 c 2
 623 733 l 2
 727 733 798 668 798 571 c 0
 798 557 797 542 794 526 c 1
 727 526 l 1
 729 537 730 547 730 557 c 0xf4
 730 619 686 674 610 674 c 2
 458 674 l 2
 405 674 260 625 260 515 c 0
 260 469 301 455 341 449 c 2
 629 412 l 2
 654 407 764 389 764 268 c 0
 764 88 591 -15 443 -15 c 2
 292 -15 l 2
 178 -15 92 60 92 173 c 0
 92 189 94 207 98 225 c 1
 166 225 l 1
 163 212 162 199 162 187 c 0
 162 117 212 45 306 45 c 2
 457 45 l 2xf8
EndSplineSet
Validated: 1
EndChar

StartChar: T
Encoding: 84 84 53
Width: 587
VWidth: 1507
Flags: W
HStem: 0 21G<261 333.207> 656 60<188 399 467 689>
LayerCount: 2
Fore
SplineSet
399 656 m 1
 176 656 l 1
 188 716 l 1
 701 716 l 1
 689 656 l 1
 467 656 l 1
 329 0 l 1
 261 0 l 1
 399 656 l 1
EndSplineSet
Validated: 1
EndChar

StartChar: U
Encoding: 85 85 54
Width: 720
VWidth: 1507
Flags: W
HStem: -15 60<234.839 474.742> 696 20G<205.8 277 740.767 812>
VStem: 103 69<111.943 266.467>
LayerCount: 2
Fore
SplineSet
289 -15 m 2
 172 -15 103 78 103 180 c 0
 103 198 105 216 109 235 c 2
 210 716 l 1
 277 716 l 1
 176 235 l 2
 173 221 172 208 172 195 c 0
 172 114 224 45 303 45 c 2
 386 45 l 2
 506 45 628 169 654 286 c 2
 745 716 l 1
 812 716 l 1
 722 286 l 2
 684 125 532 -15 372 -15 c 2
 289 -15 l 2
EndSplineSet
Validated: 1
EndChar

StartChar: V
Encoding: 86 86 55
Width: 711
VWidth: 1507
Flags: W
HStem: -8 21G<362 402.017> 696 20G<188 264.339 740.019 825>
LayerCount: 2
Fore
SplineSet
752 716 m 1
 825 716 l 1
 390 -8 l 1
 334 -8 309 16 297 68 c 2
 188 716 l 1
 261 716 l 1
 368 75 l 1
 752 716 l 1
EndSplineSet
Validated: 1
EndChar

StartChar: W
Encoding: 87 87 56
Width: 1064
VWidth: 1507
Flags: W
HStem: -8 21G<333.5 372.509 693.986 715> 696 20G<188 263.402 640.385 656 1094.14 1177>
LayerCount: 2
Fore
SplineSet
363 -8 m 1
 304 -8 279 19 267 68 c 2
 188 716 l 1
 261 716 l 1
 338 75 l 1
 650 724 l 1
 662 724 715 723 724 674 c 2
 757 75 l 1
 1105 716 l 1
 1177 716 l 1
 825 68 l 2
 779 1 735 -8 695 -8 c 1
 663 623 l 1
 363 -8 l 1
EndSplineSet
Validated: 1
EndChar

StartChar: X
Encoding: 88 88 57
Width: 696
VWidth: 1507
Flags: W
HStem: 0 21G<38 143.2 562.267 659> 696 20G<188 284.631 704.731 809>
LayerCount: 2
Fore
SplineSet
124 0 m 1
 38 0 l 1
 380 357 l 1
 188 716 l 1
 274 716 l 1
 434 415 l 1
 724 716 l 1
 809 716 l 1
 466 357 l 1
 659 0 l 1
 573 0 l 1
 412 300 l 1
 124 0 l 1
EndSplineSet
Validated: 1
EndChar

StartChar: Y
Encoding: 89 89 58
Width: 678
VWidth: 1507
Flags: W
HStem: 0 21G<304 376.258> 696 20G<188 275.631 695.731 791>
LayerCount: 2
Fore
SplineSet
372 0 m 1
 304 0 l 1
 380 357 l 1
 188 716 l 1
 265 716 l 1
 425 415 l 1
 715 716 l 1
 791 716 l 1
 448 357 l 1
 372 0 l 1
EndSplineSet
Validated: 1
EndChar

StartChar: Z
Encoding: 90 90 59
Width: 702
VWidth: 1507
Flags: W
HStem: 0 60<185 641> 656 60<213 668>
LayerCount: 2
Fore
SplineSet
200 656 m 1
 213 716 l 1
 816 716 l 1
 185 60 l 1
 653 60 l 1
 641 0 l 1
 38 0 l 1
 668 656 l 1
 200 656 l 1
EndSplineSet
Validated: 1
EndChar

StartChar: bracketleft
Encoding: 91 91 60
Width: 292
VWidth: 1507
Flags: W
HStem: -214 56<105.457 196> 745 55<291.785 401>
VStem: 30 65<-146.216 -73.6453>
LayerCount: 2
Fore
SplineSet
160 -214 m 2
 55 -214 30 -165 30 -132 c 0
 30 -124 31 -115 33 -106 c 2
 202 689 l 2
 219 773 300 800 375 800 c 2
 412 800 l 1
 401 745 l 1
 365 745 l 2
 332 745 275 734 264 684 c 2
 96 -101 l 2
 95 -104 95 -107 95 -111 c 0
 95 -136 115 -158 172 -158 c 2
 208 -158 l 1
 196 -214 l 1
 160 -214 l 2
EndSplineSet
Validated: 1
EndChar

StartChar: backslash
Encoding: 92 92 61
Width: 455
VWidth: 1507
Flags: W
VStem: 157 291
LayerCount: 2
Fore
SplineSet
448 -26 m 1
 378 -26 l 1
 157 739 l 1
 223 739 l 1
 448 -26 l 1
EndSplineSet
EndChar

StartChar: bracketright
Encoding: 93 93 62
Width: 292
VWidth: 1507
Flags: W
HStem: -214 56<21 133.958> 745 55<225 314.974>
VStem: 325 67<656.645 732.341>
LayerCount: 2
Fore
SplineSet
261 800 m 2
 315 800 392 783 392 715 c 0
 392 707 391 698 389 689 c 2
 220 -106 l 2
 201 -190 118 -214 45 -214 c 2
 9 -214 l 1
 21 -158 l 1
 57 -158 l 2
 95 -158 147 -146 157 -101 c 2
 324 684 l 2
 325 689 325 693 325 697 c 0
 325 737 276 745 250 745 c 2
 214 745 l 1
 225 800 l 1
 261 800 l 2
EndSplineSet
Validated: 1
EndChar

StartChar: asciicircum
Encoding: 94 94 63
Width: 681
VWidth: 1507
Flags: W
LayerCount: 2
Fore
SplineSet
478 663 m 1
 232 374 l 1
 164 374 l 1
 503 782 l 1
 671 374 l 1
 601 374 l 1
 478 663 l 1
EndSplineSet
Validated: 1
EndChar

StartChar: underscore
Encoding: 95 95 64
Width: 539
VWidth: 1507
Flags: W
HStem: -137 60<-17 512.22>
LayerCount: 2
Fore
SplineSet
525 -77 m 1
 522 -89 520 -89 511 -137 c 1
 -30 -137 l 1
 -17 -77 l 1
 525 -77 l 1
EndSplineSet
Validated: 1
EndChar

StartChar: grave
Encoding: 96 96 65
Width: 179
VWidth: 1507
Flags: W
HStem: 565 166
VStem: 151 144
LayerCount: 2
Fore
SplineSet
295 565 m 1
 225 565 l 1
 151 731 l 1
 222 731 l 1
 295 565 l 1
EndSplineSet
Validated: 1
EndChar

StartChar: a
Encoding: 97 97 66
Width: 530
VWidth: 1507
Flags: W
HStem: -3 56<165.165 345.434> 458 61<276.125 456.117> 491 20G<515.745 588>
VStem: 78 69<70.0469 195.2>
LayerCount: 2
Fore
SplineSet
197 -8 m 2xb0
 125 -8 78 46 78 123 c 0
 78 137 79 152 83 167 c 2
 113 308 l 2
 136 414 243 519 362 519 c 2
 422 519 l 2xd0
 449 519 468 513 478 500 c 2
 510 464 l 1
 520 511 l 1
 588 511 l 1
 478 -3 l 1
 410 -3 l 1
 425 69 l 1
 391 27 303 -8 258 -8 c 2
 197 -8 l 2xb0
147 136 m 0
 147 101 160 53 211 53 c 2
 271 53 l 2
 345 53 433 123 452 197 c 2
 484 344 l 1
 484 353 l 0
 484 419 449 458 409 458 c 2
 348 458 l 2
 273 458 197 384 181 308 c 2
 151 167 l 2
 149 157 147 146 147 136 c 0
EndSplineSet
Validated: 1
Substitution2: "Single Substitution lookup 22 subtable" uni0E38
Substitution2: "Single Substitution lookup 22 subtable" uni0E38
EndChar

StartChar: b
Encoding: 98 98 67
Width: 532
VWidth: 1507
Flags: W
HStem: -8 61<184.704 360.906> 0 21G<54 125.902> 458 61<288.974 466.894> 696 20G<200.782 273>
VStem: 491 70<315.8 432.447>
LayerCount: 2
Fore
SplineSet
222 -8 m 2xb8
 176 -8 164 5 130 41 c 1
 122 0 l 1
 54 0 l 1x78
 205 716 l 1
 273 716 l 1
 217 449 l 1
 299 514 332 519 371 519 c 2
 431 519 l 2
 513 519 561 456 561 384 c 0
 561 371 559 357 556 344 c 2
 526 203 l 2
 501 83 387 -8 282 -8 c 2
 222 -8 l 2xb8
154 154 m 1
 154 102 186 53 235 53 c 2
 295 53 l 2xb8
 361 53 442 120 460 207 c 2
 488 347 l 2
 490 355 491 364 491 372 c 0
 491 399 476 458 418 458 c 2
 357 458 l 2
 283 458 212 388 191 333 c 1
 154 154 l 1
EndSplineSet
Validated: 1
Substitution2: "Single Substitution lookup 22 subtable" uni0E39
Substitution2: "Single Substitution lookup 22 subtable" uni0E39
EndChar

StartChar: c
Encoding: 99 99 68
Width: 526
VWidth: 1507
Flags: W
HStem: -8 61<176.444 364.771> 458 61<276.125 464.204>
VStem: 78 70<82.2059 246.312> 449 68<131.824 182> 488 69<359 433.792>
LayerCount: 2
Fore
SplineSet
421 519 m 2xf0
 513 519 557 459 557 397 c 0
 557 385 556 372 553 359 c 1
 485 359 l 1
 487 367 488 374 488 381 c 0xe8
 488 422 456 458 407 458 c 2
 348 458 l 2
 273 458 197 384 181 308 c 2
 151 167 l 2
 149 159 148 152 148 144 c 0
 148 104 175 53 226 53 c 2
 286 53 l 2
 369 53 434 113 449 182 c 1
 517 182 l 1
 493 69 385 -8 273 -8 c 2
 213 -8 l 2
 130 -8 78 55 78 129 c 0
 78 141 80 154 83 167 c 2
 113 308 l 2
 136 414 243 519 362 519 c 2
 421 519 l 2xf0
EndSplineSet
Validated: 1
Substitution2: "Single Substitution lookup 22 subtable" uni0E3A
Substitution2: "Single Substitution lookup 22 subtable" uni0E3A
EndChar

StartChar: d
Encoding: 100 100 69
Width: 533
VWidth: 1507
Flags: W
HStem: -3 56<165.165 345.434> 458 61<276.125 458.567> 696 20G<557.82 630>
VStem: 78 69<70.0469 195.2>
LayerCount: 2
Fore
SplineSet
422 519 m 2
 471 519 488 508 511 472 c 1
 562 716 l 1
 630 716 l 1
 478 -3 l 1
 410 -3 l 1
 425 69 l 1
 414 49 327 -8 258 -8 c 2
 197 -8 l 2
 125 -8 78 46 78 123 c 0
 78 137 79 152 83 167 c 2
 113 308 l 2
 136 414 243 519 362 519 c 2
 422 519 l 2
147 136 m 0
 147 101 160 53 211 53 c 2
 271 53 l 2
 345 53 433 123 452 197 c 2
 485 351 l 2
 486 356 486 361 486 366 c 0
 486 404 463 458 409 458 c 2
 348 458 l 2
 273 458 197 384 181 308 c 2
 151 167 l 2
 149 157 147 146 147 136 c 0
EndSplineSet
Validated: 1
EndChar

StartChar: e
Encoding: 101 101 70
Width: 527
VWidth: 1507
Flags: W
HStem: -8 61<176.444 363.826> 267 53<184 479> 458 61<271.379 457.489>
VStem: 78 70<82.2059 246.5> 486 70<320 428.687>
LayerCount: 2
Fore
SplineSet
422 519 m 2
 502 519 556 459 556 380 c 0
 556 368 555 356 552 344 c 2
 535 267 l 1
 172 267 l 1
 151 167 l 2
 149 159 148 152 148 144 c 0
 148 104 175 53 226 53 c 2
 286 53 l 2
 361 53 435 112 451 188 c 1
 519 188 l 1
 498 86 394 -8 273 -8 c 2
 213 -8 l 2
 130 -8 78 55 78 129 c 0
 78 141 80 154 83 167 c 2
 113 308 l 2
 136 414 243 519 362 519 c 2
 422 519 l 2
486 365 m 0
 486 416 452 458 409 458 c 2
 348 458 l 2
 268 458 200 394 184 320 c 1
 479 320 l 1
 484 344 l 2
 485 351 486 358 486 365 c 0
EndSplineSet
Validated: 1
EndChar

StartChar: f
Encoding: 102 102 71
Width: 319
VWidth: 1507
Flags: W
HStem: 0 21G<128 200.192> 458 53<139 225 304 386> 647 68<390.313 469>
LayerCount: 2
Fore
SplineSet
225 458 m 1
 127 458 l 1
 139 511 l 1
 237 511 l 1
 259 612 360 715 482 715 c 1
 469 647 l 1
 384 647 321 579 304 511 c 1
 398 511 l 1
 386 458 l 1
 292 458 l 1
 196 0 l 1
 128 0 l 1
 225 458 l 1
EndSplineSet
Validated: 1
EndChar

StartChar: g
Encoding: 103 103 72
Width: 533
VWidth: 1507
Flags: W
HStem: -187 57<141.264 324.762> 30 60<186.046 364.504> 457 62<276.125 458.837> 491 20G<515.385 588>
VStem: 86 70<119.422 231.704>
LayerCount: 2
Fore
SplineSet
118 -75 m 1xd8
 124 -89 146 -130 188 -130 c 2
 249 -130 l 2
 314 -130 396 -75 409 -9 c 2
 430 89 l 1
 357 33 304 30 282 30 c 2
 222 30 l 2
 141 30 86 93 86 170 c 0
 86 181 88 193 90 205 c 2
 113 308 l 2
 136 414 243 519 362 519 c 2
 422 519 l 2xe8
 456 519 482 509 511 472 c 1
 520 511 l 1
 588 511 l 1
 476 -9 l 2
 457 -107 325 -187 232 -187 c 2
 172 -187 l 2
 95 -187 47 -139 38 -75 c 1
 118 -75 l 1xd8
156 183 m 0
 156 129 193 90 234 90 c 2
 294 90 l 2
 361 90 440 154 461 235 c 2
 485 351 l 2
 486 356 486 361 486 366 c 0
 486 405 462 457 409 457 c 2
 348 457 l 2
 271 457 197 381 181 308 c 2
 158 205 l 2
 157 198 156 190 156 183 c 0
EndSplineSet
Validated: 1
EndChar

StartChar: h
Encoding: 104 104 73
Width: 538
VWidth: 1507
Flags: W
HStem: 0 21G<54 126.144 416 488.186> 458 61<285.088 466.894> 696 20G<200.782 273>
VStem: 491 70<314.613 432.447>
LayerCount: 2
Fore
SplineSet
431 519 m 2
 513 519 561 456 561 384 c 0
 561 371 559 357 556 344 c 2
 484 0 l 1
 416 0 l 1
 488 347 l 2
 490 355 491 364 491 372 c 0
 491 399 476 458 418 458 c 2
 357 458 l 2
 283 458 212 388 191 333 c 1
 122 0 l 1
 54 0 l 1
 205 716 l 1
 273 716 l 1
 219 457 l 1
 290 511 341 519 371 519 c 2
 431 519 l 2
EndSplineSet
Validated: 1
EndChar

StartChar: i
Encoding: 105 105 74
Width: 248
VWidth: 1507
Flags: W
HStem: 0 21G<90 162.266> 491 20G<194.734 267> 600 105<226.969 299.348>
VStem: 209 109<618.498 686.699>
LayerCount: 2
Fore
SplineSet
199 511 m 1
 267 511 l 1
 158 0 l 1
 90 0 l 1
 199 511 l 1
209 639 m 0
 209 669 235 705 274 705 c 256
 300 705 318 688 318 664 c 0
 318 634 288 600 252 600 c 256
 226 600 209 615 209 639 c 0
EndSplineSet
Validated: 1
EndChar

StartChar: j
Encoding: 106 106 75
Width: 248
VWidth: 1507
Flags: W
HStem: -203 67<-134 2.61383> 491 20G<194.734 267> 600 105<226.969 299.348>
VStem: 209 109<618.498 686.699>
LayerCount: 2
Fore
SplineSet
199 511 m 1
 267 511 l 1
 158 0 l 2
 133 -117 20 -203 -87 -203 c 2
 -148 -203 l 1
 -134 -136 l 1
 -74 -136 l 2
 4 -136 73 -74 90 0 c 2
 199 511 l 1
209 639 m 0
 209 669 235 705 274 705 c 256
 300 705 318 688 318 664 c 0
 318 634 288 600 252 600 c 256
 226 600 209 615 209 639 c 0
EndSplineSet
Validated: 1
EndChar

StartChar: k
Encoding: 107 107 76
Width: 506
VWidth: 1507
Flags: W
HStem: 0 21G<54 126.219 397.885 505> 491 20G<442.405 577> 696 20G<200.782 273>
LayerCount: 2
Fore
SplineSet
259 304 m 1
 271 301 286 292 311 261 c 2
 505 0 l 1
 413 0 l 1
 249 217 l 2
 231 240 207 253 176 256 c 1
 122 0 l 1
 54 0 l 1
 205 716 l 1
 273 716 l 1
 190 326 l 1
 473 511 l 1
 577 511 l 1
 259 304 l 1
EndSplineSet
Validated: 1
EndChar

StartChar: l
Encoding: 108 108 77
Width: 248
VWidth: 1507
Flags: W
HStem: 0 21G<90 162.218> 696 20G<236.782 309>
VStem: 90 219
LayerCount: 2
Fore
SplineSet
241 716 m 1
 309 716 l 1
 158 0 l 1
 90 0 l 1
 241 716 l 1
EndSplineSet
Validated: 1
EndChar

StartChar: m
Encoding: 109 109 78
Width: 788
VWidth: 1507
Flags: W
HStem: 0 21G<54 126.144 360 432.211 666 738.186> 458 61<284.665 407.781 580.02 713.391> 491 20G<158.734 231>
VStem: 54 68<0 32.8165> 742 69<315.039 428.84>
LayerCount: 2
Fore
SplineSet
742 370 m 0xd8
 742 408 716 458 663 458 c 0
 591 458 513 407 500 342 c 2
 428 0 l 1
 360 0 l 1
 433 344 l 2
 434 351 435 358 435 365 c 0
 435 414 404 458 357 458 c 0xd8
 293 458 209 404 191 333 c 2
 122 0 l 1
 54 0 l 1
 163 511 l 1
 231 511 l 1xb8
 219 457 l 1
 290 511 341 519 371 519 c 0
 442 519 478 463 490 442 c 1
 531 481 602 519 677 519 c 0
 757 519 811 457 811 382 c 0
 811 370 809 357 806 344 c 2
 734 0 l 1
 666 0 l 1
 739 347 l 2
 741 355 742 362 742 370 c 0xd8
EndSplineSet
Validated: 1
EndChar

StartChar: n
Encoding: 110 110 79
Width: 542
VWidth: 1507
Flags: W
HStem: 0 21G<54 126.144 421 492.244> 458 61<285.088 469.804> 491 20G<158.734 231>
VStem: 496 69<314.613 428.687>
LayerCount: 2
Fore
SplineSet
431 519 m 2xd0
 511 519 565 459 565 380 c 0
 565 368 564 356 561 344 c 2
 488 0 l 1
 421 0 l 1
 493 347 l 2
 495 355 496 362 496 370 c 0
 496 409 470 458 418 458 c 2
 357 458 l 2xd0
 283 458 212 388 191 333 c 1
 122 0 l 1
 54 0 l 1
 163 511 l 1
 231 511 l 1xb0
 219 457 l 1
 290 511 341 519 371 519 c 2
 431 519 l 2xd0
EndSplineSet
Validated: 1
EndChar

StartChar: o
Encoding: 111 111 80
Width: 527
VWidth: 1507
Flags: W
HStem: -8 61<176.444 357.959> 458 61<276.125 457.489>
VStem: 78 70<82.5609 195.2> 486 70<314.971 428.687>
LayerCount: 2
Fore
SplineSet
422 519 m 2
 502 519 556 459 556 380 c 0
 556 368 555 356 552 344 c 2
 522 203 l 2
 497 85 380 -8 273 -8 c 2
 213 -8 l 2
 130 -8 78 55 78 129 c 0
 78 141 80 154 83 167 c 2
 113 308 l 2
 136 414 243 519 362 519 c 2
 422 519 l 2
148 144 m 0
 148 104 175 53 226 53 c 2
 286 53 l 2
 374 53 441 143 454 203 c 2
 484 344 l 2
 485 351 486 358 486 365 c 0
 486 416 452 458 409 458 c 2
 348 458 l 2
 273 458 197 384 181 308 c 2
 151 167 l 2
 149 159 148 152 148 144 c 0
EndSplineSet
Validated: 1
EndChar

StartChar: p
Encoding: 112 112 81
Width: 533
VWidth: 1507
Flags: W
HStem: -188 21G<14 85.3172> -8 61<182.366 363.959> 458 61<281.812 463.489> 491 20G<158.737 231>
VStem: 492 70<314.971 428.687>
LayerCount: 2
Fore
SplineSet
219 -8 m 2xe8
 194 -8 165 -4 130 39 c 1
 81 -188 l 1
 14 -188 l 1
 163 511 l 1
 231 511 l 1xd8
 217 452 l 1
 241 479 302 519 368 519 c 2
 428 519 l 2
 508 519 562 459 562 380 c 0
 562 368 561 356 558 344 c 2
 528 203 l 2
 503 85 386 -8 279 -8 c 2
 219 -8 l 2xe8
154 144 m 0
 154 104 181 53 232 53 c 2
 292 53 l 2
 380 53 447 143 460 203 c 2
 490 344 l 2
 491 351 492 358 492 365 c 0
 492 416 458 458 415 458 c 2
 354 458 l 2xe8
 278 458 204 388 188 314 c 2
 157 167 l 2
 155 159 154 152 154 144 c 0
EndSplineSet
Validated: 1
EndChar

StartChar: q
Encoding: 113 113 82
Width: 533
VWidth: 1507
Flags: W
HStem: -188 21G<371 443.263> -8 61<176.444 354.109> 457 62<276.125 459.564> 491 20G<515.385 588>
VStem: 78 70<82.5609 195.2>
LayerCount: 2
Fore
SplineSet
422 519 m 2xe8
 462 519 480 509 511 472 c 1
 520 511 l 1
 588 511 l 1xd8
 439 -188 l 1
 371 -188 l 1
 424 63 l 1
 394 32 333 -8 273 -8 c 2
 213 -8 l 2
 130 -8 78 55 78 129 c 0
 78 141 80 154 83 167 c 2
 113 308 l 2
 136 414 243 519 362 519 c 2
 422 519 l 2xe8
148 144 m 0
 148 104 175 53 226 53 c 2
 286 53 l 2
 361 53 434 126 452 197 c 2
 485 351 l 2
 486 356 486 361 486 366 c 0
 486 405 462 457 409 457 c 2
 348 457 l 2xe8
 271 457 197 381 181 308 c 2
 151 167 l 2
 149 159 148 152 148 144 c 0
EndSplineSet
Validated: 1
EndChar

StartChar: r
Encoding: 114 114 83
Width: 349
VWidth: 1507
Flags: W
HStem: 0 21G<56 128.156> 458 61<285.937 416> 491 20G<159.773 232>
LayerCount: 2
Fore
SplineSet
220 458 m 1xc0
 292 510 339 519 369 519 c 2
 430 519 l 1
 416 458 l 1
 356 458 l 2xc0
 279 458 203 375 188 308 c 2
 124 0 l 1
 56 0 l 1
 164 511 l 1
 232 511 l 1xa0
 220 458 l 1xc0
EndSplineSet
Validated: 1
EndChar

StartChar: s
Encoding: 115 115 84
Width: 572
VWidth: 1507
Flags: W
HStem: -8 61<168.793 437.098> 458 61<275.591 507.691>
VStem: 76 69<77.1058 152> 146 70<318.751 404.799> 502 70<107.975 210.881> 534 70<359 433.53>
LayerCount: 2
Fore
SplineSet
368 53 m 2xf8
 390 53 502 77 502 166 c 0xf8
 502 201 485 216 451 220 c 2
 241 246 l 2
 217 249 146 263 146 332 c 0
 146 452 269 519 363 519 c 2
 467 519 l 2
 562 519 604 458 604 397 c 0
 604 385 603 372 600 359 c 1
 532 359 l 1
 534 366 534 374 534 380 c 0xf4
 534 422 502 458 454 458 c 2
 350 458 l 2
 294 458 216 414 216 353 c 0
 216 318 258 308 271 306 c 2
 479 280 l 2
 563 269 572 209 572 185 c 0
 572 63 459 -8 354 -8 c 2
 213 -8 l 2
 128 -8 76 44 76 114 c 0
 76 126 77 139 80 152 c 1
 148 152 l 1
 146 145 145 137 145 130 c 0
 145 89 177 53 226 53 c 2
 368 53 l 2xf8
EndSplineSet
Validated: 1
EndChar

StartChar: t
Encoding: 116 116 85
Width: 319
VWidth: 1507
Flags: W
HStem: 0 21G<128 200.192> 458 53<139 225 304 386> 696 20G<274.902 347>
VStem: 127 271
LayerCount: 2
Fore
SplineSet
225 458 m 1
 127 458 l 1
 139 511 l 1
 237 511 l 1
 279 716 l 1
 347 716 l 1
 304 511 l 1
 398 511 l 1
 386 458 l 1
 292 458 l 1
 196 0 l 1
 128 0 l 1
 225 458 l 1
EndSplineSet
Validated: 1
EndChar

StartChar: u
Encoding: 117 117 86
Width: 538
VWidth: 1507
Flags: W
HStem: -8 61<178.106 357.701> 0 21G<416 488.227> 491 20G<158.698 231 520.736 592>
VStem: 84 70<78.5534 195.545>
LayerCount: 2
Fore
SplineSet
214 -8 m 2xb0
 132 -8 84 55 84 127 c 0
 84 140 86 154 89 167 c 2
 163 511 l 1
 231 511 l 1
 157 164 l 2
 155 156 154 147 154 139 c 0
 154 111 169 53 228 53 c 2
 288 53 l 2xb0
 362 53 433 123 454 178 c 1
 525 511 l 1
 592 511 l 1
 484 0 l 1
 416 0 l 1x70
 430 65 l 1
 398 31 335 -8 274 -8 c 2
 214 -8 l 2xb0
EndSplineSet
Validated: 1
EndChar

StartChar: v
Encoding: 118 118 87
Width: 526
VWidth: 1507
Flags: W
HStem: -8 21G<281.5 308.83> 491 20G<139 213.052 522.292 604>
LayerCount: 2
Fore
SplineSet
297 -8 m 1
 266 -8 221 3 210 47 c 2
 139 511 l 1
 210 511 l 1
 277 72 l 1
 534 511 l 1
 604 511 l 1
 297 -8 l 1
EndSplineSet
Validated: 1
EndChar

StartChar: w
Encoding: 119 119 88
Width: 845
VWidth: 1507
Flags: W
HStem: -8 21G<256.5 284.07 564.395 585> 491 20G<139 213.506 494.091 519 840.956 924>
LayerCount: 2
Fore
SplineSet
511 422 m 1
 273 -8 l 1
 240 -8 217 8 211 35 c 2
 139 511 l 1
 211 511 l 1
 265 80 l 1
 505 520 l 1
 533 520 564 507 568 476 c 2
 614 80 l 1
 852 511 l 1
 924 511 l 1
 648 35 l 2
 634 10 603 -8 567 -8 c 1
 511 422 l 1
EndSplineSet
Validated: 1
EndChar

StartChar: x
Encoding: 120 120 89
Width: 562
VWidth: 1507
Flags: W
HStem: 0 21G<21 127 443.219 541> 491 20G<157 252.263 518 623>
LayerCount: 2
Fore
SplineSet
538 511 m 1
 623 511 l 1
 383 270 l 1
 541 0 l 1
 455 0 l 1
 326 219 l 1
 107 0 l 1
 21 0 l 1
 292 270 l 1
 157 511 l 1
 241 511 l 1
 348 321 l 1
 538 511 l 1
EndSplineSet
Validated: 1
EndChar

StartChar: y
Encoding: 121 121 90
Width: 539
VWidth: 1507
Flags: W
HStem: -187 57<145.315 326.624> 30 62<184.272 369.057> 491 20G<158.621 231 520.661 592>
VStem: 92 69<115.641 232.9>
LayerCount: 2
Fore
SplineSet
161 177 m 0
 161 148 176 92 235 92 c 2
 295 92 l 2
 359 92 436 146 461 216 c 2
 525 511 l 1
 592 511 l 1
 481 -9 l 2
 458 -113 322 -187 237 -187 c 2
 176 -187 l 2
 99 -187 52 -138 42 -75 c 1
 122 -75 l 1
 129 -91 150 -130 193 -130 c 2
 253 -130 l 2
 323 -130 404 -70 413 -9 c 2
 434 92 l 1
 398 63 343 30 283 30 c 2
 223 30 l 2
 140 30 92 95 92 168 c 0
 92 180 93 192 96 205 c 2
 163 511 l 1
 231 511 l 1
 164 202 l 2
 162 193 161 185 161 177 c 0
EndSplineSet
Validated: 1
EndChar

StartChar: z
Encoding: 122 122 91
Width: 565
VWidth: 1507
Flags: W
HStem: 0 53<187 506> 458 53<172 484>
LayerCount: 2
Fore
SplineSet
506 0 m 1
 48 0 l 1
 484 458 l 1
 160 458 l 1
 172 511 l 1
 626 511 l 1
 187 53 l 1
 517 53 l 1
 506 0 l 1
EndSplineSet
Validated: 1
EndChar

StartChar: braceleft
Encoding: 123 123 92
Width: 428
VWidth: 1507
Flags: W
HStem: -214 56<226.618 317> 745 55<410.93 522>
VStem: 150 66<-146.161 -18.3047> 203 64<88.2 198.232>
LayerCount: 2
Fore
SplineSet
203 268 m 1xd0
 238 246 267 197 267 149 c 0xd0
 267 139 266 129 264 119 c 2
 217 -101 l 2
 216 -105 216 -108 216 -111 c 0
 216 -149 260 -158 292 -158 c 2
 329 -158 l 1
 317 -214 l 1
 280 -214 l 2
 178 -214 150 -165 150 -133 c 0xe0
 150 -125 151 -116 154 -106 c 2
 200 119 l 2
 202 126 203 132 203 139 c 0
 203 193 134 268 83 268 c 0
 132 268 246 332 265 419 c 2
 323 689 l 2
 341 773 421 800 496 800 c 2
 532 800 l 1
 522 745 l 1
 485 745 l 2
 454 745 395 734 384 684 c 2
 329 419 l 2
 314 346 246 277 203 268 c 1xd0
EndSplineSet
Validated: 1
EndChar

StartChar: bar
Encoding: 124 124 93
Width: 247
VWidth: 1507
Flags: W
VStem: 57 285
LayerCount: 2
Fore
SplineSet
274 867 m 1
 342 867 l 1
 125 -151 l 1
 57 -151 l 1
 274 867 l 1
EndSplineSet
Validated: 1
EndChar

StartChar: braceright
Encoding: 125 125 94
Width: 428
VWidth: 1507
Flags: W
HStem: -214 56<29 140.437> 745 55<232 322.312>
VStem: 271 65<329.916 498.414>
LayerCount: 2
Fore
SplineSet
336 394 m 0
 336 329 404 268 455 268 c 1
 402 268 289 184 274 119 c 2
 228 -106 l 2
 209 -190 124 -214 53 -214 c 2
 17 -214 l 1
 29 -158 l 1
 65 -158 l 2
 101 -158 153 -147 164 -101 c 2
 211 119 l 2
 226 186 288 244 335 268 c 1
 300 278 271 334 271 380 c 0
 271 393 273 405 276 419 c 2
 332 684 l 2
 333 688 333 693 333 697 c 0
 333 735 287 745 258 745 c 2
 222 745 l 1
 232 800 l 1
 268 800 l 2
 322 800 399 783 399 716 c 0
 399 708 398 699 396 689 c 2
 339 419 l 2
 337 410 336 402 336 394 c 0
EndSplineSet
Validated: 1
EndChar

StartChar: asciitilde
Encoding: 126 126 95
Width: 602
VWidth: 1507
Flags: W
HStem: 259 68<426.792 537.314> 386 68<224.041 319.066>
VStem: 107 54<270 313.795> 600 54<398.344 443>
LayerCount: 2
Fore
SplineSet
107 270 m 1
 131 395 237 454 289 454 c 0
 405 454 382 327 485 327 c 0
 531 327 577 379 600 443 c 1
 654 443 l 1
 627 315 522 259 470 259 c 0
 336 259 353 386 276 386 c 0
 230 386 182 334 161 270 c 1
 107 270 l 1
EndSplineSet
Validated: 1
EndChar

StartChar: quotedbl
Encoding: 34 34 97
Width: 349
VWidth: 1507
Flags: W
HStem: 541 220<216 240 384 409>
VStem: 169 286
LayerCount: 2
Fore
SplineSet
216 761 m 1
 286 761 l 1
 240 541 l 1
 169 541 l 1
 216 761 l 1
384 761 m 1
 455 761 l 1
 409 541 l 1
 338 541 l 1
 384 761 l 1
EndSplineSet
Validated: 1
EndChar

StartChar: exclam
Encoding: 33 33 98
Width: 272
VWidth: 1507
Flags: W
HStem: -8 106<114.275 186.031> 698 20G<254.776 327>
VStem: 96 108<10.0253 79.5891>
LayerCount: 2
Fore
SplineSet
259 718 m 1
 327 718 l 1
 210 164 l 1
 142 164 l 1
 259 718 l 1
161 98 m 256
 187 98 204 82 204 58 c 0
 204 21 172 -8 139 -8 c 256
 105 -8 96 18 96 32 c 0
 96 66 126 98 161 98 c 256
EndSplineSet
Validated: 1
EndChar

StartChar: cent
Encoding: 162 162 101
Width: 575
VWidth: 1507
Flags: W
HStem: 96 61<231.511 282 350 420.566> 562 180<419 487> 562 61<330.553 393 461 517.391>
VStem: 133 69<186.313 300.029> 503 68<235.431 286> 542 70<463 536.947>
LayerCount: 2
Fore
SplineSet
202 248 m 0xb4
 202 207 230 157 280 157 c 2
 363 157 l 1
 430 167 487 217 503 286 c 1
 571 286 l 1
 547 180 454 106 350 98 c 1
 326 -21 l 1
 258 -21 l 1
 282 96 l 1
 267 96 l 2
 187 96 133 156 133 235 c 0
 133 247 134 259 137 271 c 2
 167 412 l 2
 193 527 299 611 393 621 c 1
 419 742 l 1
 487 742 l 1xd8
 461 623 l 1
 473 623 l 2xb8
 558 623 612 571 612 502 c 0
 612 490 610 477 607 463 c 1
 540 463 l 1
 541 469 542 475 542 481 c 0
 542 525 512 562 461 562 c 2xd4
 381 562 l 1
 315 551 249 481 235 412 c 2
 205 271 l 2
 203 263 202 256 202 248 c 0xb4
EndSplineSet
Validated: 1
EndChar

StartChar: sterling
Encoding: 163 163 102
Width: 575
VWidth: 1507
Flags: W
HStem: 0 60<80 154.461 222 534> 315 68<145 279 348 531> 656 68<456.735 603.268>
VStem: 273 74<209.125 315> 280 68<383 465.9>
LayerCount: 2
Fore
SplineSet
592 624 m 1xe8
 571 654 544 656 532 656 c 0
 456 656 382 590 366 513 c 0
 357 474 351 431 348 383 c 1xe8
 544 383 l 1
 531 315 l 1
 347 315 l 1
 339 194 l 2
 329 140 257 60 222 60 c 1
 546 60 l 1
 534 0 l 1
 68 0 l 1
 80 60 l 1
 138 60 256 126 271 196 c 1
 271 200 273 198 273 214 c 0xf0
 273 235 278 295 279 315 c 1
 131 315 l 1
 145 383 l 1
 280 383 l 1
 285 434 285 441 286 447 c 2
 290 474 l 2
 325 672 473 724 547 724 c 0
 590 724 625 709 650 678 c 1
 592 624 l 1xe8
EndSplineSet
Validated: 1
EndChar

StartChar: currency
Encoding: 164 164 103
Width: 732
VWidth: 1507
Flags: W
HStem: 66 65<305.991 488.314> 564 65<392.898 568.622>
VStem: 150 71<217.965 395.052> 655 72<300.027 475.99>
LayerCount: 2
Fore
SplineSet
378 66 m 256
 283 66 239 106 219 131 c 1
 143 66 l 1
 107 112 l 1
 181 175 l 1
 161 207 150 245 150 286 c 0
 150 336 168 440 255 522 c 1
 208 583 l 1
 262 630 l 1
 311 567 l 1
 358 599 424 629 499 629 c 256
 556 629 615 612 660 567 c 1
 739 630 l 1
 773 583 l 1
 698 522 l 1
 721 487 727 453 727 416 c 0
 727 333 694 241 624 175 c 1
 672 112 l 1
 618 66 l 1
 568 131 l 1
 493 73 416 66 378 66 c 256
655 390 m 0
 655 484 586 564 484 564 c 0
 355 564 221 436 221 303 c 0
 221 212 287 131 392 131 c 0
 523 131 655 257 655 390 c 0
EndSplineSet
Validated: 1
EndChar

StartChar: yen
Encoding: 165 165 104
Width: 575
VWidth: 1507
Flags: W
HStem: 0 21G<243 315.122> 262 65<148 297 380 532> 696 20G<157 242.571 605.724 699>
LayerCount: 2
Fore
SplineSet
297 262 m 1
 133 262 l 1
 148 327 l 1
 312 327 l 1
 318 357 l 1
 157 716 l 1
 234 716 l 1
 363 415 l 1
 623 716 l 1
 699 716 l 1
 386 357 l 1
 380 327 l 1
 547 327 l 1
 532 262 l 1
 365 262 l 1
 311 0 l 1
 243 0 l 1
 297 262 l 1
EndSplineSet
Validated: 1
EndChar

StartChar: brokenbar
Encoding: 166 166 105
Width: 238
VWidth: 1507
Flags: W
VStem: 57 285
LayerCount: 2
Fore
SplineSet
184 445 m 1
 274 867 l 1
 342 867 l 1
 252 445 l 1
 184 445 l 1
223 309 m 1
 125 -151 l 1
 57 -151 l 1
 155 309 l 1
 223 309 l 1
EndSplineSet
Validated: 1
EndChar

StartChar: section
Encoding: 167 167 106
Width: 601
VWidth: 1507
Flags: W
HStem: -53 61<155.393 425.641> 684 61<349.102 581.752>
VStem: 60 70<32.8455 107> 141 70<324.933 410.377> 218 70<547.881 633.436> 486 70<60.5668 159.945> 563 69<284.368 382.468> 605 70<585 660.511>
LayerCount: 2
Fore
SplineSet
218 575 m 0xfe
 218 666 324 745 434 745 c 2
 538 745 l 2
 633 745 675 684 675 623 c 0
 675 611 674 598 671 585 c 1
 603 585 l 1
 605 593 605 600 605 607 c 0xfd
 605 642 580 684 525 684 c 2
 421 684 l 2
 375 684 288 648 288 581 c 0
 288 561 304 547 342 532 c 2
 540 458 l 2
 604 434 632 397 632 356 c 0
 632 272 578 224 526 197 c 1
 545 178 556 160 556 126 c 0
 556 39 464 -53 339 -53 c 2
 197 -53 l 2
 119 -53 60 -4 60 69 c 0
 60 81 62 94 65 107 c 1
 133 107 l 1
 131 99 130 92 130 85 c 0
 130 43 162 8 211 8 c 2
 353 8 l 2
 377 8 486 34 486 117 c 0
 486 147 470 162 434 175 c 2
 237 249 l 2
 199 262 141 287 141 345 c 0
 141 369 153 453 258 499 c 1
 239 513 218 530 218 575 c 0xfe
461 235 m 1
 505 248 563 280 563 342 c 0xfe
 563 370 545 385 511 398 c 2
 341 461 l 1
 301 461 211 426 211 358 c 0
 211 338 227 324 265 309 c 2
 461 235 l 1
EndSplineSet
Validated: 1
EndChar

StartChar: dieresis
Encoding: 168 168 107
Width: 348
VWidth: 1507
Flags: W
HStem: 606 105<168 240.59 383.652 455.153>
VStem: 150 108<622.797 692.809> 365 109<624.564 692.393>
LayerCount: 2
Fore
SplineSet
150 646 m 0
 150 675 176 711 216 711 c 256
 239 711 258 696 258 673 c 0
 258 644 236 606 193 606 c 256
 167 606 150 622 150 646 c 0
365 648 m 0
 365 678 395 711 431 711 c 256
 463 711 474 688 474 673 c 0
 474 644 449 606 409 606 c 256
 383 606 365 623 365 648 c 0
EndSplineSet
Validated: 1
EndChar

StartChar: copyright
Encoding: 169 169 108
Width: 734
VWidth: 1507
Flags: W
HStem: 23 54<284.133 487.314> 178 50<342.81 488.969> 496 51<404.077 545.841> 638 54<399.994 599.53>
VStem: 110 54<200.278 397.724> 275 55<239.492 392.016> 529 54<267.327 312> 555 55<434 486.87> 725 54<309.718 509.611>
LayerCount: 2
Fore
SplineSet
110 284 m 0xfc80
 110 485 303 692 516 692 c 0
 674 692 779 569 779 422 c 0
 779 216 574 23 374 23 c 256
 215 23 110 139 110 284 c 0xfc80
725 412 m 0
 725 529 639 638 503 638 c 0
 332 638 164 468 164 296 c 0
 164 174 252 77 384 77 c 256
 561 77 725 243 725 412 c 0
516 547 m 2
 573 547 610 510 610 461 c 0
 610 452 609 443 607 434 c 1
 553 434 l 1
 554 439 555 443 555 448 c 0xfd80
 555 475 532 496 502 496 c 2
 461 496 l 2
 410 496 361 446 351 395 c 2
 332 304 l 2
 331 299 330 294 330 289 c 0
 330 259 351 228 381 228 c 2
 422 228 l 2
 464 228 518 252 529 312 c 1
 583 312 l 1xfe80
 566 225 489 178 412 178 c 2
 369 178 l 2
 309 178 275 224 275 278 c 0
 275 285 276 292 277 300 c 2
 298 398 l 2
 314 476 394 547 473 547 c 2
 516 547 l 2
EndSplineSet
Validated: 1
EndChar

StartChar: logicalnot
Encoding: 172 172 111
Width: 646
VWidth: 1507
Flags: W
HStem: 371 68<134 612>
LayerCount: 2
Fore
SplineSet
562 140 m 1
 612 371 l 1
 121 371 l 1
 134 439 l 1
 693 439 l 1
 630 140 l 1
 562 140 l 1
EndSplineSet
Validated: 1
EndChar

StartChar: registered
Encoding: 174 174 112
Width: 553
VWidth: 1507
Flags: W
HStem: 255 39<264.024 426.969> 488 32<339 386.998 416 447.654> 586 32<353 454.835> 692 39<342.43 502.087>
VStem: 145 38<377.461 532.434> 458 41<525.56 585.368> 584 38<449.012 607.032>
LayerCount: 2
Fore
SplineSet
145 440 m 0
 145 583 284 731 434 731 c 0
 547 731 622 645 622 540 c 0
 622 399 483 255 332 255 c 256
 205 255 145 355 145 440 c 0
584 532 m 0
 584 606 531 692 425 692 c 0
 300 692 183 566 183 451 c 0
 183 378 237 294 341 294 c 256
 465 294 584 412 584 532 c 0
499 567 m 0
 499 532 467 490 422 490 c 2
 416 490 l 1
 419 490 423 483 428 470 c 2
 470 378 l 1
 428 378 l 1
 387 472 l 2
 380 486 369 488 362 488 c 2
 332 488 l 1
 309 378 l 1
 270 378 l 1
 321 618 l 1
 449 618 l 2
 481 618 499 591 499 567 c 0
458 559 m 0
 458 572 448 586 434 586 c 2
 353 586 l 1
 339 520 l 1
 421 520 l 2
 440 520 458 541 458 559 c 0
EndSplineSet
Validated: 1
EndChar

StartChar: macron
Encoding: 175 175 113
Width: 357
VWidth: 1507
Flags: W
HStem: 636 60<190 448>
VStem: 176 285
LayerCount: 2
Fore
SplineSet
176 636 m 1
 190 696 l 1
 461 696 l 1
 448 636 l 1
 176 636 l 1
EndSplineSet
Validated: 1
EndChar

StartChar: degree
Encoding: 176 176 114
Width: 325
VWidth: 1507
Flags: W
HStem: 484 45<221.593 335.738> 704 45<249.981 364.463>
VStem: 157 46<547.106 657.968> 382 46<575.587 685.878>
LayerCount: 2
Fore
SplineSet
157 587 m 0
 157 671 237 749 321 749 c 0
 390 749 428 701 428 647 c 0
 428 559 347 484 265 484 c 0
 197 484 157 532 157 587 c 0
312 704 m 256
 256 704 203 653 203 597 c 0
 203 559 231 529 274 529 c 256
 332 529 382 582 382 635 c 0
 382 673 356 704 312 704 c 256
EndSplineSet
Validated: 1
EndChar

StartChar: plusminus
Encoding: 177 177 115
Width: 646
VWidth: 1507
Flags: W
HStem: 0 63<103 555> 336 63<175 362 439 626>
LayerCount: 2
Fore
SplineSet
425 336 m 1
 383 136 l 1
 320 136 l 1
 362 336 l 1
 161 336 l 1
 175 399 l 1
 375 399 l 1
 418 600 l 1
 481 600 l 1
 439 399 l 1
 639 399 l 1
 626 336 l 1
 425 336 l 1
555 0 m 1
 90 0 l 1
 103 63 l 1
 567 63 l 1
 555 0 l 1
EndSplineSet
Validated: 1
EndChar

StartChar: twosuperior
Encoding: 178 178 116
Width: 390
VWidth: 1507
Flags: W
HStem: 282 48<167 404> 689 47<272.829 406.965>
VStem: 417 54<571.85 678.612>
LayerCount: 2
Fore
SplineSet
191 665 m 1
 229 702 285 736 348 736 c 2
 362 736 l 2
 456 736 471 681 471 644 c 0
 471 558 414 524 390 508 c 2
 216 396 l 2
 190 379 174 352 167 330 c 1
 415 330 l 1
 404 282 l 1
 101 282 l 1
 112 329 l 2
 122 374 150 408 184 430 c 2
 381 559 l 2
 391 565 417 588 417 631 c 0
 417 661 405 689 354 689 c 2
 339 689 l 2
 317 689 280 682 228 633 c 1
 191 665 l 1
EndSplineSet
Validated: 1
EndChar

StartChar: threesuperior
Encoding: 179 179 117
Width: 369
VWidth: 1507
Flags: W
HStem: 279 48<183.023 317.257> 513 48<249 371.403> 687 49<248.911 390.635>
VStem: 385 52<391.942 499.39> 399 56<576.303 676.745>
LayerCount: 2
Fore
SplineSet
385 453 m 0xf0
 385 484 362 513 324 513 c 2
 238 513 l 1
 249 561 l 1
 339 561 l 2
 364 562 399 578 399 634 c 0
 399 669 378 687 335 687 c 2
 318 687 l 2
 274 687 233 658 208 633 c 1
 173 663 l 1
 207 698 262 736 329 736 c 2
 344 736 l 2
 442 736 455 674 455 642 c 0xe8
 455 602 441 561 409 537 c 1
 429 521 437 499 437 468 c 0
 437 376 357 279 235 279 c 0
 189 279 142 287 96 359 c 1
 143 393 l 1
 181 340 211 327 247 327 c 0
 325 327 385 400 385 453 c 0xf0
EndSplineSet
Validated: 1
EndChar

StartChar: acute
Encoding: 180 180 118
Width: 179
VWidth: 1507
Flags: W
HStem: 565 166
VStem: 115 217
LayerCount: 2
Fore
SplineSet
261 731 m 1
 332 731 l 1
 185 565 l 1
 115 565 l 1
 261 731 l 1
EndSplineSet
Validated: 1
EndChar

StartChar: mu
Encoding: 181 181 119
Width: 544
VWidth: 1507
Flags: W
HStem: -187 21G<14 85.3602> -8 61<177.272 357.701> 0 21G<416 488.227> 491 20G<158.731 231 520.736 592>
LayerCount: 2
Fore
SplineSet
430 65 m 1xb0
 398 31 335 -8 274 -8 c 2
 214 -8 l 2
 179 -8 150 3 127 24 c 1
 81 -187 l 1
 14 -187 l 1
 163 511 l 1
 231 511 l 1
 157 164 l 2
 155 156 154 147 154 139 c 0
 154 111 169 53 228 53 c 2
 288 53 l 2xd0
 362 53 433 123 454 178 c 1
 525 511 l 1
 592 511 l 1
 484 0 l 1
 416 0 l 1
 430 65 l 1xb0
EndSplineSet
Validated: 1
EndChar

StartChar: paragraph
Encoding: 182 182 120
Width: 619
VWidth: 1507
Flags: W
HStem: 650 68<573 639>
LayerCount: 2
Fore
SplineSet
146 448 m 0
 146 586 272 716 384 716 c 2
 722 718 l 1
 556 -59 l 1
 488 -59 l 1
 639 650 l 1
 573 650 l 1
 422 -59 l 1
 354 -59 l 1
 427 283 l 1
 292 283 l 2
 213 283 146 350 146 448 c 0
EndSplineSet
Validated: 1
EndChar

StartChar: periodcentered
Encoding: 183 183 121
Width: 346
VWidth: 1507
Flags: W
HStem: 271 151<203.573 288.595>
VStem: 168 156<307.222 386.462>
LayerCount: 2
Fore
SplineSet
168 329 m 0
 168 372 205 422 262 422 c 256
 308 422 324 390 324 367 c 0
 324 326 291 271 231 271 c 256
 181 271 168 307 168 329 c 0
EndSplineSet
Validated: 1
EndChar

StartChar: cedilla
Encoding: 184 184 122
Width: 325
VWidth: 1507
Flags: W
HStem: -193 53<95.7869 166.784>
VStem: 33 61<-139.787 -106> 116 58<-52.4631 6> 167 61<-138.113 -83.7515>
LayerCount: 2
Fore
SplineSet
94 -116 m 0xd0
 94 -126 98 -140 115 -140 c 2
 127 -140 l 2
 152 -140 167 -135 167 -116 c 0xd0
 167 -80 116 -85 116 -34 c 0
 116 -27 117 -21 118 -17 c 2
 122 6 l 1
 178 6 l 1
 177 2 174 -8 174 -18 c 0xe0
 174 -58 228 -56 228 -103 c 0
 228 -127 214 -164 185 -178 c 0
 164 -188 141 -193 115 -193 c 2
 103 -193 l 2
 64 -190 33 -174 33 -132 c 0
 33 -124 34 -115 36 -106 c 1
 95 -106 l 1
 94 -110 94 -113 94 -116 c 0xd0
EndSplineSet
Validated: 1
EndChar

StartChar: onesuperior
Encoding: 185 185 123
Width: 325
VWidth: 1507
Flags: W
HStem: 573 47<202 265.655> 696 20G<312 371>
VStem: 191 180
LayerCount: 2
Fore
SplineSet
202 620 m 1
 256 620 306 666 318 716 c 1
 371 716 l 1
 279 282 l 1
 226 282 l 1
 294 601 l 1
 261 578 227 573 191 573 c 1
 202 620 l 1
EndSplineSet
Validated: 1
EndChar

StartChar: onequarter
Encoding: 188 188 126
Width: 824
VWidth: 1507
Flags: W
HStem: 0 21G<642 700.368> 87 49<534 660 725 767> 573 47<175 238.321> 696 20G<285 344>
LayerCount: 2
Fore
SplineSet
696 0 m 1
 642 0 l 1
 660 87 l 1
 503 87 l 2
 477 87 465 98 465 119 c 0
 465 123 465 128 466 133 c 1
 737 434 l 1
 788 434 l 1
 725 136 l 1
 778 136 l 1
 767 87 l 1
 715 87 l 1
 696 0 l 1
671 136 m 1
 713 339 l 1
 534 136 l 1
 671 136 l 1
131 -26 m 1
 681 739 l 1
 748 739 l 1
 200 -26 l 1
 131 -26 l 1
291 716 m 1
 344 716 l 1
 252 282 l 1
 199 282 l 1
 267 601 l 1
 254 593 226 573 164 573 c 1
 175 620 l 1
 229 620 279 666 291 716 c 1
EndSplineSet
Validated: 1
LCarets2: 2 0 0 
Ligature2: "'frac' Diagonal Fractions in Latin lookup 0 subtable" one fraction four
Ligature2: "'frac' Diagonal Fractions in Latin lookup 0 subtable" one slash four
EndChar

StartChar: onehalf
Encoding: 189 189 127
Width: 824
VWidth: 1507
Flags: W
HStem: 0 47<540 770> 389 45<636.528 770.189> 573 47<175 238.321> 696 20G<285 344>
VStem: 780 53<275.51 379.016>
LayerCount: 2
Fore
SplineSet
564 366 m 1
 599 402 653 434 713 434 c 2
 727 434 l 2
 818 434 833 382 833 347 c 0
 833 269 780 233 754 217 c 2
 586 110 l 2
 581 107 553 89 540 47 c 1
 779 47 l 1
 770 0 l 1
 478 0 l 1
 487 45 l 2
 495 86 524 122 555 142 c 2
 746 265 l 2
 757 271 780 296 780 334 c 0
 780 359 768 389 718 389 c 2
 702 389 l 2
 660 389 618 357 597 336 c 1
 564 366 l 1
131 -26 m 1
 681 739 l 1
 748 739 l 1
 200 -26 l 1
 131 -26 l 1
291 716 m 1
 344 716 l 1
 252 282 l 1
 199 282 l 1
 267 601 l 1
 254 593 226 573 164 573 c 1
 175 620 l 1
 229 620 279 666 291 716 c 1
EndSplineSet
Validated: 1
LCarets2: 2 0 0 
Ligature2: "'frac' Diagonal Fractions in Latin lookup 0 subtable" one fraction two
Ligature2: "'frac' Diagonal Fractions in Latin lookup 0 subtable" one slash two
EndChar

StartChar: threequarters
Encoding: 190 190 128
Width: 824
VWidth: 1507
Flags: W
HStem: 0 21G<642 700.368> 87 49<534 660 725 767> 277 49<200.828 335.449> 513 46<265 389.666> 687 49<270.253 409.171>
VStem: 404 53<392.626 499.135> 419 54<573.651 676.745>
LayerCount: 2
Fore
SplineSet
419 634 m 0xfa
 419 669 397 687 354 687 c 2
 338 687 l 2
 294 687 252 658 228 633 c 1
 191 663 l 1
 229 700 285 736 348 736 c 2
 363 736 l 2
 460 736 473 674 473 642 c 0xfa
 473 598 456 561 428 537 c 1
 445 521 457 494 457 461 c 0
 457 378 380 277 255 277 c 0
 189 277 151 300 116 357 c 1
 163 392 l 1
 194 343 224 326 265 326 c 0
 340 326 404 395 404 451 c 0xfc
 404 483 381 513 344 513 c 2
 256 513 l 1
 265 559 l 1
 356 559 l 2
 399 559 419 591 419 634 c 0xfa
696 0 m 1
 642 0 l 1
 660 87 l 1
 503 87 l 2
 477 87 465 98 465 119 c 0
 465 123 465 128 466 133 c 1
 737 434 l 1
 788 434 l 1
 725 136 l 1
 778 136 l 1
 767 87 l 1
 715 87 l 1
 696 0 l 1
671 136 m 1
 713 339 l 1
 534 136 l 1
 671 136 l 1
205 -26 m 1
 755 739 l 1
 822 739 l 1
 274 -26 l 1
 205 -26 l 1
EndSplineSet
Validated: 1
LCarets2: 2 0 0 
Ligature2: "'frac' Diagonal Fractions in Latin lookup 0 subtable" three fraction four
Ligature2: "'frac' Diagonal Fractions in Latin lookup 0 subtable" three slash four
EndChar

StartChar: Aring
Encoding: 197 197 134
Width: 798
VWidth: 1507
Flags: W
HStem: 0 21G<38 126 670.4 751> 200 61<280 614> 850 51<527.186 611.965>
VStem: 454 52<746.005 830.053> 619 52<760.833 843.481>
LayerCount: 2
Fore
SplineSet
671 817 m 0
 671 754 619 708 576 695 c 1
 586 685 592 674 595 663 c 2
 751 0 l 1
 675 0 l 1
 629 200 l 1
 243 200 l 1
 113 0 l 1
 38 0 l 1
 494 699 l 1
 469 712 454 738 454 768 c 0
 454 832 511 901 586 901 c 0
 639 901 671 862 671 817 c 0
280 261 m 1
 614 261 l 1
 528 636 l 1
 280 261 l 1
574 850 m 0
 532 850 506 810 506 781 c 0
 506 757 526 740 552 740 c 0
 584 740 619 773 619 806 c 0
 619 830 599 850 574 850 c 0
EndSplineSet
Validated: 1
EndChar

StartChar: AE
Encoding: 198 198 135
Width: 955
VWidth: 1507
Flags: W
HStem: 0 60<574 926> 200 61<268 503> 344 60<571 924> 656 60<567 927>
VStem: 499 68<261 344 404 633> 505 66<60 200 261 344 404 509>
LayerCount: 2
Fore
SplineSet
496 718 m 1xf4
 510 718 515 716 525 716 c 2
 939 716 l 1
 927 656 l 1
 567 656 l 1xf8
 570 404 l 1
 936 404 l 1
 924 344 l 1
 571 344 l 1
 574 60 l 1
 938 60 l 1
 926 0 l 1
 508 0 l 1
 505 200 l 1
 231 200 l 1
 101 0 l 1
 26 0 l 1
 496 718 l 1xf4
268 261 m 1
 503 261 l 1
 499 633 l 1
 268 261 l 1
EndSplineSet
Validated: 1
EndChar

StartChar: Ccedilla
Encoding: 199 199 136
Width: 694
VWidth: 1507
Flags: W
HStem: -193 53<297.233 369.908> -15 60<225.952 321 377 476.1> 671 60<388.031 635.204>
VStem: 94 69<113.465 262.729> 237 60<-139.787 -106> 321 56<-52.2025 -15> 371 60<-138.352 -83.9672> 639 68<198.158 255> 693 69<502 611.778>
LayerCount: 2
Fore
SplineSet
573 731 m 2xfc
 698 731 762 645 762 552 c 0
 762 536 761 520 757 502 c 1
 689 502 l 1
 692 514 693 525 693 537 c 0xfc80
 693 612 642 671 559 671 c 2
 478 671 l 2
 355 671 237 551 210 431 c 2
 167 234 l 2
 164 221 163 209 163 197 c 0
 163 123 209 45 294 45 c 2
 378 45 l 2
 497 45 615 138 639 255 c 1
 707 255 l 1
 675 97 518 -12 377 -15 c 1
 377 -17 l 1xfd
 385 -62 407 -45 426 -81 c 0
 430 -88 431 -96 431 -105 c 0
 431 -134 413 -193 318 -193 c 2
 306 -193 l 2
 268 -190 237 -174 237 -132 c 0
 237 -124 238 -115 240 -106 c 1
 298 -106 l 1
 297 -110 297 -113 297 -116 c 0
 297 -126 301 -140 318 -140 c 2
 330 -140 l 2
 355 -140 371 -135 371 -116 c 0xfa
 371 -81 319 -84 319 -34 c 0
 319 -27 320 -21 321 -17 c 1
 321 -15 l 1
 280 -15 l 2
 163 -15 94 80 94 184 c 0
 94 200 95 217 99 234 c 2
 142 431 l 2
 176 587 328 731 491 731 c 2
 573 731 l 2xfc
EndSplineSet
Validated: 1
EndChar

StartChar: Eth
Encoding: 208 208 145
Width: 803
VWidth: 1507
Flags: W
HStem: 0 60<214 555.89> 335 63<151 205 286 526> 656 60<341 713.33>
VStem: 775 69<451.957 593.721>
LayerCount: 2
Fore
SplineSet
775 520 m 0
 775 594 721 656 641 656 c 2
 341 656 l 1
 286 398 l 1
 540 398 l 1
 526 335 l 1
 273 335 l 1
 214 60 l 1
 464 60 l 2
 586 60 702 169 730 286 c 2
 770 481 l 2
 773 494 775 507 775 520 c 0
197 0 m 2
 167 0 146 26 146 52 c 0
 146 57 147 61 148 66 c 2
 205 335 l 1
 137 335 l 1
 151 398 l 1
 219 398 l 1
 285 716 l 1
 653 716 l 2
 768 716 844 638 844 534 c 0
 844 517 842 499 838 481 c 2
 797 286 l 2
 760 114 599 -0 452 0 c 2
 197 0 l 2
EndSplineSet
Validated: 1
EndChar

StartChar: multiply
Encoding: 215 215 152
Width: 646
VWidth: 1507
Flags: W
LayerCount: 2
Fore
SplineSet
439 333 m 1
 565 172 561 176 565 172 c 1
 513 128 l 1
 384 289 l 1
 191 128 l 1
 180 143 165 154 157 172 c 1
 350 333 l 1
 335 348 225 493 225 493 c 1
 277 537 l 1
 404 377 l 1
 598 537 l 1
 610 522 620 506 633 493 c 1
 439 333 l 1
EndSplineSet
Validated: 1
EndChar

StartChar: Oslash
Encoding: 216 216 153
Width: 717
VWidth: 1507
Flags: W
HStem: -15 60<226.922 468.984> 671 60<391 630.208>
VStem: 96 70<119.908 306.602> 694 69<451.957 593.423>
LayerCount: 2
Fore
SplineSet
283 -15 m 2
 260 -15 213 -11 167 24 c 1
 122 -26 l 1
 54 -26 l 1
 131 62 l 1
 104 100 96 144 96 179 c 0
 96 197 99 216 103 235 c 2
 143 430 l 2
 180 610 350 731 494 731 c 2
 576 731 l 2
 621 731 661 717 695 689 c 1
 739 739 l 1
 805 739 l 1
 728 653 l 1
 754 613 763 569 763 533 c 0
 763 516 761 499 757 481 c 2
 716 286 l 2
 682 124 526 -15 366 -15 c 2
 283 -15 l 2
647 636 m 1
 613 670 575 671 564 671 c 2
 481 671 l 2
 359 671 237 552 211 430 c 2
 170 235 l 2
 167 221 166 207 166 193 c 0
 166 167 171 142 182 119 c 1
 647 636 l 1
689 481 m 2
 692 494 694 508 694 521 c 0
 694 543 689 569 675 595 c 1
 213 77 l 1
 237 56 265 45 297 45 c 2
 380 45 l 2
 500 45 623 169 648 286 c 2
 689 481 l 2
EndSplineSet
Validated: 1
EndChar

StartChar: Thorn
Encoding: 222 222 159
Width: 595
VWidth: 1507
Flags: W
HStem: 0 21G<90 162.192> 167 61<207 430.563> 528 60<282 496.302>
VStem: 554 69<334.583 475.788>
LayerCount: 2
Fore
SplineSet
623 433 m 0
 623 327 545 167 288 167 c 2
 193 167 l 1
 158 0 l 1
 90 0 l 1
 246 733 l 1
 314 733 l 1
 282 588 l 1
 416 588 l 2
 541 588 623 526 623 433 c 0
554 418 m 0
 554 484 488 528 404 528 c 2
 270 528 l 1
 207 228 l 1
 301 228 l 2
 530 228 554 372 554 418 c 0
EndSplineSet
Validated: 1
EndChar

StartChar: uni00DF
Encoding: 223 223 160
Width: 605
VWidth: 1507
Flags: W
HStem: -190 21G<26 97.2433> -14 68<286.42 449.038> 668 60<341.261 521.392>
VStem: 398 69<323.815 425.341> 514 70<114.07 216.604> 550 69<532 636.766>
LayerCount: 2
Fore
SplineSet
550 576 m 0xf4
 550 620 518 668 472 668 c 2
 412 668 l 2
 334 668 258 591 243 517 c 2
 93 -190 l 1
 26 -190 l 1
 175 517 l 2
 196 617 300 728 424 728 c 2
 484 728 l 2
 570 728 619 658 619 589 c 0xf4
 619 578 618 565 615 553 c 2
 600 484 l 1
 501 450 467 419 467 375 c 0
 467 305 584 266 584 191 c 0
 584 97 500 -14 359 -14 c 0
 309 -14 251 6 222 26 c 1
 265 87 l 1
 302 65 337 54 372 54 c 0
 453 54 514 116 514 175 c 0xf8
 514 228 398 267 398 365 c 0
 398 398 405 461 541 526 c 1
 547 553 l 2
 549 560 550 568 550 576 c 0xf4
EndSplineSet
Validated: 1
EndChar

StartChar: ae
Encoding: 230 230 167
Width: 905
VWidth: 1507
Flags: W
HStem: -8 61<172.835 351.287 547.119 734.826> 267 53<242.753 475 555 850> 460 60<253.715 464.938 646.103 825.13>
VStem: 83 70<69.8069 186.052> 857 70<320 428.286>
LayerCount: 2
Fore
SplineSet
324 460 m 2
 286 460 254 442 234 425 c 1
 208 478 l 1
 250 506 293 520 338 520 c 2
 430 520 l 2
 504 520 541 463 553 434 c 1
 591 475 656 519 733 519 c 2
 793 519 l 2
 873 519 927 458 927 380 c 0
 927 368 926 356 923 344 c 2
 906 267 l 1
 543 267 l 1
 539 248 537 228 531 211 c 2
 522 167 l 2
 520 160 519 153 519 145 c 0
 519 108 543 53 597 53 c 2
 657 53 l 2
 732 53 806 112 822 188 c 1
 889 188 l 1
 863 68 744 -8 644 -8 c 2
 583 -8 l 2
 507 -8 469 44 457 86 c 1
 417 43 346 -6 267 -6 c 2
 207 -6 l 2
 129 -6 83 45 83 110 c 0
 83 225 215 320 327 320 c 2
 487 320 l 1
 493 353 l 1
 493 361 l 2
 493 425 455 460 416 460 c 2
 324 460 l 2
153 125 m 0
 153 100 166 54 219 54 c 2
 279 54 l 2
 354 54 442 127 461 199 c 2
 475 267 l 1
 315 267 l 2
 252 267 153 201 153 125 c 0
857 365 m 0
 857 408 830 458 779 458 c 2
 719 458 l 2
 640 458 571 393 555 320 c 1
 850 320 l 1
 855 344 l 2
 856 351 857 358 857 365 c 0
EndSplineSet
Validated: 1
EndChar

StartChar: ccedilla
Encoding: 231 231 168
Width: 526
VWidth: 1507
Flags: W
HStem: -193 53<211.787 283.759> -8 61<176.444 235 291 367.025> 458 61<276.125 464.204>
VStem: 78 70<82.5609 195.2> 149 61<-139.787 -106> 284 60<-138.039 -84.7439> 449 68<133.785 182> 488 69<359 433.792>
LayerCount: 2
Fore
SplineSet
210 -116 m 0xfe
 210 -126 214 -140 231 -140 c 2
 243 -140 l 2
 263 -140 284 -137 284 -115 c 0
 284 -83 232 -84 232 -34 c 0
 232 -26 235 -9 235 -8 c 1
 213 -8 l 2
 130 -8 78 55 78 129 c 0
 78 141 80 154 83 167 c 2
 113 308 l 2
 136 414 243 519 362 519 c 2
 421 519 l 2
 513 519 557 459 557 397 c 0
 557 385 556 372 553 359 c 1
 485 359 l 1
 487 367 488 374 488 381 c 0xfd
 488 422 456 458 407 458 c 2
 348 458 l 2
 273 458 197 384 181 308 c 2
 151 167 l 2
 149 159 148 152 148 144 c 0
 148 104 175 53 226 53 c 2
 286 53 l 2
 369 53 434 113 449 182 c 1
 517 182 l 1
 492 73 397 2 291 -6 c 1
 289 -17 l 1
 296 -59 318 -45 338 -81 c 0
 342 -87 344 -95 344 -103 c 0
 344 -127 330 -164 301 -178 c 0
 280 -188 257 -193 231 -193 c 2
 219 -193 l 2
 180 -190 149 -174 149 -132 c 0
 149 -124 150 -115 152 -106 c 1
 211 -106 l 1
 210 -110 210 -113 210 -116 c 0xfe
EndSplineSet
Validated: 1
EndChar

StartChar: eth
Encoding: 240 240 177
Width: 627
VWidth: 1507
Flags: W
HStem: -14 56<227.251 410.831> 480 57<318.24 500.685>
VStem: 91 62<118.965 304.015> 573 72<239.369 462.269>
LayerCount: 2
Fore
SplineSet
520 668 m 1
 520 664 645 554 645 382 c 0
 645 167 507 -14 301 -14 c 0
 167 -14 91 75 91 192 c 0
 91 380 262 537 422 537 c 0
 509 537 549 504 567 487 c 1
 560 504 536 564 454 642 c 1
 373 607 330 587 265 562 c 1
 255 612 l 1
 409 677 l 1
 367 706 319 727 295 736 c 1
 335 791 l 1
 423 750 451 728 475 707 c 1
 602 762 586 754 633 776 c 1
 647 724 l 1
 517 671 l 1
 519 670 520 668 520 668 c 1
153 200 m 0
 153 120 206 42 311 42 c 0
 484 42 573 200 573 339 c 0
 573 412 539 445 496 460 c 0
 461 473 429 480 398 480 c 0
 262 480 153 334 153 200 c 0
EndSplineSet
Validated: 1
EndChar

StartChar: divide
Encoding: 247 247 184
Width: 646
VWidth: 1507
Flags: W
HStem: 124 105<296.404 368.5> 300 63<133 583> 425 106<359.725 432.482>
VStem: 278 108<141.086 210.826> 342 108<442.596 512.996>
LayerCount: 2
Fore
SplineSet
119 300 m 1xe0
 133 363 l 1
 597 363 l 1
 583 300 l 1
 119 300 l 1xe0
342 465 m 0xe8
 342 499 370 531 407 531 c 256
 442 531 450 504 450 490 c 0
 450 455 420 425 384 425 c 256
 359 425 342 441 342 465 c 0xe8
278 164 m 0xf0
 278 193 304 229 344 229 c 256
 367 229 386 214 386 190 c 0
 386 159 361 124 321 124 c 256
 288 124 278 148 278 164 c 0xf0
EndSplineSet
Validated: 1
EndChar

StartChar: oslash
Encoding: 248 248 185
Width: 541
VWidth: 1507
Flags: W
HStem: -8 61<189.077 364.399> 458 61<282.125 456.802>
VStem: 85 70<113.907 196.029> 492 70<314.971 397.343>
LayerCount: 2
Fore
SplineSet
33 -26 m 1
 106 54 l 1
 92 76 85 100 85 128 c 0
 85 140 86 153 89 167 c 2
 119 308 l 2
 142 414 249 519 368 519 c 2
 428 519 l 2
 457 519 483 511 505 494 c 1
 544 537 l 1
 612 537 l 1
 540 457 l 1
 555 434 562 409 562 381 c 0
 562 369 561 357 558 344 c 2
 528 203 l 2
 503 85 386 -8 279 -8 c 2
 219 -8 l 2
 188 -8 163 -0 142 15 c 1
 104 -26 l 1
 33 -26 l 1
490 344 m 2
 491 350 492 356 492 362 c 0
 492 369 491 384 487 398 c 1
 188 68 l 1
 199 58 214 53 232 53 c 2
 292 53 l 2
 381 53 447 143 460 203 c 2
 490 344 l 2
157 167 m 2
 155 158 155 149 155 141 c 0
 155 131 156 122 158 113 c 1
 458 442 l 1
 445 453 431 458 415 458 c 2
 354 458 l 2
 279 458 203 384 187 308 c 2
 157 167 l 2
EndSplineSet
Validated: 1
EndChar

StartChar: thorn
Encoding: 254 254 191
Width: 664
VWidth: 1507
Flags: W
HStem: -8 61<255.928 437.453> 458 61<355.812 537.489> 696 20G<274.742 347>
VStem: 566 70<315.8 428.286>
LayerCount: 2
Fore
SplineSet
502 519 m 2
 582 519 636 458 636 380 c 0
 636 368 635 356 632 344 c 2
 601 203 l 2
 578 94 469 -8 353 -8 c 2
 292 -8 l 2
 254 -8 223 4 200 27 c 1
 146 -228 l 1
 78 -228 l 1
 279 716 l 1
 347 716 l 1
 294 464 l 1
 333 494 383 519 442 519 c 2
 502 519 l 2
228 144 m 0
 228 104 255 53 306 53 c 2
 366 53 l 2
 456 53 522 146 534 203 c 2
 564 344 l 2
 565 351 566 358 566 365 c 0
 566 414 535 458 488 458 c 2
 428 458 l 2
 352 458 278 388 262 314 c 2
 231 167 l 2
 229 159 228 152 228 144 c 0
EndSplineSet
Validated: 1
EndChar

StartChar: Lslash
Encoding: 321 321 193
Width: 661
VWidth: 1507
Flags: W
HStem: 0 60<178 610> 696 20G<244.73 317>
LayerCount: 2
Fore
SplineSet
78 300 m 1
 173 360 l 1
 249 716 l 1
 317 716 l 1
 253 412 l 1
 380 493 l 1
 363 413 l 1
 235 332 l 1
 178 60 l 1
 623 60 l 1
 610 0 l 1
 98 0 l 1
 157 280 l 1
 62 220 l 1
 78 300 l 1
EndSplineSet
Validated: 1
EndChar

StartChar: lslash
Encoding: 322 322 194
Width: 290
VWidth: 1507
Flags: W
HStem: 0 21G<113 185.186> 696 20G<259.768 332>
VStem: 83 277
LayerCount: 2
Fore
SplineSet
96 303 m 1
 191 371 l 1
 264 716 l 1
 332 716 l 1
 271 428 l 1
 360 491 l 1
 342 409 l 1
 253 344 l 1
 181 0 l 1
 113 0 l 1
 173 285 l 1
 83 220 l 1
 96 303 l 1
EndSplineSet
Validated: 1
EndChar

StartChar: OE
Encoding: 338 338 195
Width: 1132
VWidth: 1507
Flags: W
HStem: 0 68<224.956 487.171 604 1070> 339 68<677 1067> 648 68<379.641 638.212 728 1207>
VStem: 98 69<124.218 264.043>
LayerCount: 2
Fore
SplineSet
289 0 m 2
 164 0 98 88 98 183 c 0
 98 200 100 217 104 235 c 2
 145 430 l 2
 182 599 342 716 491 716 c 2
 1221 716 l 1
 1207 648 l 1
 728 648 l 1
 677 407 l 1
 1082 407 l 1
 1067 339 l 1
 662 339 l 1
 604 68 l 1
 1084 68 l 1
 1070 0 l 1
 289 0 l 2
167 196 m 0
 167 119 225 68 303 68 c 2
 386 68 l 2
 452 68 508 94 550 128 c 1
 653 615 l 1
 628 637 596 648 559 648 c 2
 478 648 l 2
 359 648 240 556 213 430 c 2
 172 235 l 2
 169 222 167 209 167 196 c 0
EndSplineSet
Validated: 1
EndChar

StartChar: oe
Encoding: 339 339 196
Width: 919
VWidth: 1507
Flags: W
HStem: -8 61<181.511 363.57 545.062 729.953> 267 53<552 847> 458 61<281.547 461.791 638.169 825.489>
VStem: 83 70<82.0443 248.516> 854 70<320 428.286>
LayerCount: 2
Fore
SplineSet
790 519 m 2
 870 519 924 458 924 380 c 0
 924 368 923 356 920 344 c 2
 903 267 l 1
 540 267 l 1
 519 167 l 2
 517 159 516 152 516 144 c 0
 516 104 543 53 594 53 c 2
 654 53 l 2
 720 53 797 100 819 188 c 1
 886 188 l 1
 863 80 757 -8 641 -8 c 2
 580 -8 l 2
 506 -8 469 41 457 75 c 1
 415 32 349 -8 277 -8 c 2
 217 -8 l 2
 137 -8 83 53 83 131 c 0
 83 143 84 155 87 167 c 2
 118 308 l 2
 141 417 250 519 366 519 c 2
 427 519 l 2
 501 519 536 469 550 434 c 1
 594 482 658 519 730 519 c 2
 790 519 l 2
153 145 m 0
 153 98 184 53 231 53 c 2
 291 53 l 2
 381 53 446 145 458 203 c 2
 488 344 l 2
 490 351 491 358 491 366 c 0
 491 407 464 458 413 458 c 2
 353 458 l 2
 263 458 197 365 185 308 c 2
 155 167 l 2
 154 160 153 152 153 145 c 0
854 365 m 0
 854 414 823 458 776 458 c 2
 716 458 l 2
 637 458 568 397 552 320 c 1
 847 320 l 1
 852 344 l 2
 853 351 854 358 854 365 c 0
EndSplineSet
Validated: 1
EndChar

StartChar: florin
Encoding: 402 402 202
Width: 732
VWidth: 1507
Flags: W
HStem: -223 68<17 122.865> 466 45<344 443 525 620> 731 68<727.044 832>
LayerCount: 2
Fore
SplineSet
392 65 m 2
 316 -162 112 -223 -3 -223 c 1
 17 -155 l 1
 181 -155 289 -52 324 65 c 2
 443 466 l 1
 330 466 l 1
 344 511 l 1
 457 511 l 1
 516 706 700 799 852 799 c 1
 832 731 l 1
 670 731 560 626 525 511 c 1
 633 511 l 1
 620 466 l 1
 511 466 l 1
 392 65 l 2
EndSplineSet
Validated: 1
EndChar

StartChar: circumflex
Encoding: 710 710 203
Width: 483
VWidth: 1507
Flags: W
HStem: 745 176
VStem: 256 306
LayerCount: 2
Fore
SplineSet
416 921 m 1
 475 921 l 1
 562 745 l 1
 497 745 l 1
 436 876 l 1
 321 745 l 1
 256 745 l 1
 416 921 l 1
EndSplineSet
Validated: 1
EndChar

StartChar: caron
Encoding: 711 711 204
Width: 483
VWidth: 1507
Flags: W
HStem: 745 176
VStem: 292 306
LayerCount: 2
Fore
SplineSet
292 921 m 1
 357 921 l 1
 418 790 l 1
 534 921 l 1
 598 921 l 1
 439 745 l 1
 380 745 l 1
 292 921 l 1
EndSplineSet
Validated: 1
EndChar

StartChar: breve
Encoding: 728 728 205
Width: 452
VWidth: 1507
Flags: W
HStem: 633 48<311.004 440.73>
VStem: 230 53<708.798 796> 503 53<744.312 796>
LayerCount: 2
Fore
SplineSet
371 681 m 256
 437 681 490 734 503 796 c 1
 556 796 l 1
 539 715 456 633 360 633 c 256
 270 633 230 705 230 762 c 0
 230 773 231 784 234 796 c 1
 286 796 l 1
 284 787 283 778 283 769 c 0
 283 737 301 681 371 681 c 256
EndSplineSet
Validated: 1
EndChar

StartChar: dotaccent
Encoding: 729 729 206
Width: 238
VWidth: 1507
Flags: W
HStem: 644 117<233.722 310.818>
VStem: 212 121<665.506 739.132>
LayerCount: 2
Fore
SplineSet
212 687 m 0
 212 721 239 761 285 761 c 256
 323 761 333 733 333 714 c 0
 333 678 300 644 259 644 c 256
 231 644 212 661 212 687 c 0
EndSplineSet
Validated: 1
EndChar

StartChar: ring
Encoding: 730 730 207
Width: 419
VWidth: 1507
Flags: W
HStem: 598 49<302.295 396.729> 770 49<320.277 413.174>
VStem: 244 50<656.699 743.976> 421 49<670.754 761.774>
LayerCount: 2
Fore
SplineSet
244 682 m 0
 244 744 300 819 383 819 c 0
 437 819 470 784 470 736 c 0
 470 668 416 598 336 598 c 0
 268 598 244 646 244 682 c 0
372 770 m 0
 335 770 294 735 294 697 c 0
 294 669 315 647 347 647 c 0
 381 647 421 678 421 722 c 0
 421 747 401 770 372 770 c 0
EndSplineSet
Validated: 1
EndChar

StartChar: ogonek
Encoding: 731 731 208
Width: 292
VWidth: 1507
Flags: W
HStem: -193 53<76.3209 150.232>
VStem: 15 61<-150.5 -93.9396> 113 56<-41.6973 6> 155 59<-137.078 -106>
LayerCount: 2
Fore
SplineSet
76 -125 m 0xe0
 76 -137 84 -140 109 -140 c 2
 121 -140 l 2
 139 -140 152 -123 155 -106 c 1
 214 -106 l 1xd0
 201 -169 153 -190 109 -193 c 2
 96 -193 l 2
 70 -193 49 -188 32 -178 c 0
 21 -171 15 -159 15 -142 c 0
 15 -73 77 -55 94 -42 c 0
 100 -38 107 -29 113 -17 c 1
 118 6 l 1
 173 6 l 1
 169 -17 l 2
 147 -93 76 -82 76 -125 c 0xe0
EndSplineSet
Validated: 1
EndChar

StartChar: tilde
Encoding: 732 732 209
Width: 325
VWidth: 1507
Flags: W
HStem: 600 47<337.95 404.561> 677 47<206.106 277.255>
VStem: 140 51<624 662.406> 418 51<660.093 699>
LayerCount: 2
Fore
SplineSet
469 699 m 1
 453 638 420 600 348 600 c 0
 292 600 286 677 243 677 c 0
 222 677 199 656 191 624 c 1
 140 624 l 1
 154 678 190 724 259 724 c 0
 328 724 331 647 368 647 c 0
 388 647 411 666 418 699 c 1
 469 699 l 1
EndSplineSet
Validated: 1
EndChar

StartChar: uni0E01
Encoding: 3585 3585 212
Width: 593
VWidth: 1507
Flags: W
HStem: 0 21G<106 177.167 443 515.17> 537 60<305.973 518.91>
VStem: 173 70<280.8 378.336> 539 68<413.479 516.185>
LayerCount: 2
Fore
SplineSet
485 597 m 2
 546 597 607 549 607 474 c 0
 607 464 606 455 604 446 c 2
 511 0 l 1
 443 0 l 1
 537 446 l 2
 538 452 539 458 539 464 c 0
 539 500 514 537 472 537 c 2
 377 537 l 2
 310 537 240 475 210 422 c 1
 230 403 243 382 243 346 c 0
 243 335 241 323 238 312 c 2
 173 0 l 1
 106 0 l 1
 170 312 l 2
 172 318 173 324 173 331 c 0
 173 354 156 388 122 392 c 1
 166 525 296 597 393 597 c 2
 485 597 l 2
EndSplineSet
Validated: 1
EndChar

StartChar: uni0E02
Encoding: 3586 3586 213
Width: 559
VWidth: 1507
Flags: W
HStem: 2 58<332 405.631> 327 42<171.605 251.259> 475 42<208.579 264.937> 550 47<224.674 334.575>
VStem: 118 47<375.102 455.539> 271 45<387.892 469.594> 362 53<366.382 522.41>
LayerCount: 2
Fore
SplineSet
298 597 m 0
 394 594 415 524 415 476 c 0
 415 461 413 446 410 430 c 2
 332 60 l 1
 354 60 l 2
 392 64 436 96 446 142 c 2
 544 597 l 1
 612 597 l 1
 517 152 l 2
 502 84 426 2 342 2 c 2
 317 2 l 2
 285 2 263 28 263 55 c 0
 263 59 264 64 265 69 c 2
 317 308 l 2
 319 318 322 327 326 336 c 2
 338 362 l 2
 346 379 362 417 362 454 c 0
 362 490 346 550 280 550 c 0
 251 550 226 533 208 514 c 1
 217 516 227 517 238 517 c 0
 285 517 316 481 316 440 c 0
 316 381 256 327 199 327 c 0
 134 327 118 380 118 416 c 0
 118 495 193 597 298 597 c 0
229 475 m 256
 198 475 165 445 165 411 c 0
 165 390 182 369 208 369 c 0
 239 369 271 402 271 432 c 0
 271 456 254 475 229 475 c 256
EndSplineSet
Validated: 1
EndChar

StartChar: uni0E03
Encoding: 3587 3587 214
Width: 575
VWidth: 1507
Flags: W
HStem: 0 60<342 415.887> 312 41<152.836 230.111> 452 38<167.579 243.042> 544 53<221.348 271>
VStem: 102 45<356.694 457.289> 248 40<371.183 446.546> 432 51<441.743 540.352> 555 68<564.5 597>
LayerCount: 2
Fore
SplineSet
418 597 m 1
 467 584 483 547 483 509 c 0
 483 434 424 379 412 362 c 1
 406 356 402 346 399 333 c 2
 342 60 l 1
 365 60 l 2
 402 64 446 97 457 142 c 2
 555 597 l 1
 623 597 l 1
 528 152 l 2
 511 73 427 -0 353 0 c 2
 327 0 l 2
 294 0 274 27 274 53 c 0
 274 58 275 63 276 68 c 2
 335 347 l 2
 337 358 343 368 352 378 c 2
 383 409 l 2
 406 432 432 464 432 501 c 0
 432 515 428 528 419 541 c 1
 326 434 l 1
 271 544 l 1
 233 543 183 515 167 475 c 1
 184 485 201 490 217 490 c 0
 260 490 288 457 288 419 c 0
 288 357 222 312 176 312 c 0
 117 312 102 364 102 401 c 0
 102 512 212 597 306 597 c 1
 342 514 l 1
 418 597 l 1
248 414 m 0
 248 437 230 452 208 452 c 0
 184 452 147 429 147 394 c 0
 147 379 155 353 187 353 c 0
 214 353 248 378 248 414 c 0
EndSplineSet
Validated: 1
EndChar

StartChar: uni0E04
Encoding: 3588 3588 215
Width: 634
VWidth: 1507
Flags: W
HStem: 0 21G<81 180.266 490 562.17> 203 44<330.798 416.182> 351 44<345.702 429.817> 537 60<345.109 565.498>
VStem: 435 45<265.456 345.472> 585 71<414.143 518.937>
LayerCount: 2
Fore
SplineSet
480 316 m 0
 480 256 416 203 360 203 c 0
 334 203 313 212 298 229 c 1
 169 0 l 1
 81 0 l 1
 160 375 l 2
 185 488 314 597 424 597 c 2
 532 597 l 2
 608 597 656 550 656 484 c 0
 656 472 654 460 651 446 c 2
 558 0 l 1
 490 0 l 1
 583 446 l 2
 585 453 585 459 585 465 c 0
 585 489 569 537 519 537 c 2
 415 537 l 2
 335 537 243 445 228 375 c 2
 172 112 l 1
 295 327 l 2
 315 361 352 395 401 395 c 0
 464 395 480 344 480 316 c 0
392 351 m 256
 358 351 327 319 327 285 c 0
 327 262 346 247 369 247 c 0
 397 247 435 272 435 310 c 0
 435 334 415 351 392 351 c 256
EndSplineSet
Validated: 1
EndChar

StartChar: uni0E05
Encoding: 3589 3589 216
Width: 639
VWidth: 1507
Flags: W
HStem: 0 21G<81 180.342 490 562.241> 203 44<334.543 416.412> 353 43<347.787 431.274> 577 20G<357 428 521.889 585.5>
VStem: 437 44<267.135 347.424> 587 69<416 514.111>
LayerCount: 2
Fore
SplineSet
543 597 m 1
 628 591 656 523 656 477 c 0
 656 468 655 458 653 448 c 2
 558 0 l 1
 490 0 l 1
 585 448 l 2
 586 454 587 459 587 465 c 0
 587 497 565 522 538 529 c 1
 451 440 l 1
 386 526 l 1
 306 507 240 434 229 377 c 2
 172 112 l 1
 297 329 l 2
 316 361 355 396 402 396 c 0
 451 396 481 357 481 319 c 0
 481 252 411 203 362 203 c 0
 336 203 315 212 300 231 c 1
 169 0 l 1
 81 0 l 1
 161 377 l 2
 184 482 301 589 413 597 c 1
 467 525 l 1
 543 597 l 1
393 353 m 256
 361 353 329 321 329 290 c 0
 329 266 346 247 371 247 c 0
 398 247 437 276 437 310 c 0
 437 331 422 353 393 353 c 256
EndSplineSet
Validated: 1
EndChar

StartChar: uni0E06
Encoding: 3590 3590 217
Width: 714
VWidth: 1507
Flags: W
HStem: 0 45<224.29 273> 155 64<377 426.131> 161 49<234.162 297> 312 41<153.243 231.949> 452 38<169.711 244.004> 544 53<221.586 273>
VStem: 104 44<357.091 433.64> 165 48<56.9276 139.725> 250 40<371.497 446.62> 434 50<442.296 539.948>
LayerCount: 2
Fore
SplineSet
285 161 m 2xbfc0
 242 161 213 123 213 94 c 0
 213 65 243 45 273 45 c 1
 297 161 l 1
 285 161 l 2xbfc0
419 597 m 1
 469 584 484 546 484 508 c 0
 484 465 462 418 428 381 c 2
 413 362 l 2
 408 356 404 346 401 333 c 2
 377 219 l 1
 495 189 564 127 585 89 c 1
 693 597 l 1
 761 597 l 1
 635 0 l 1
 567 0 l 1
 549 38 500 123 363 155 c 1xdfc0
 341 45 l 1
 312 10 297 0 252 0 c 0
 199 0 165 42 165 88 c 0
 165 153 238 210 295 210 c 2
 308 210 l 1
 336 347 l 2
 338 358 344 368 354 378 c 2
 384 409 l 2
 419 444 434 476 434 501 c 0
 434 515 430 528 421 541 c 1
 327 434 l 1
 273 544 l 1
 234 543 185 514 169 475 c 1
 186 485 202 490 219 490 c 0
 258 490 290 460 290 417 c 0
 290 359 225 312 178 312 c 0
 125 312 104 352 104 403 c 0
 104 509 210 597 308 597 c 1
 344 514 l 1
 419 597 l 1
250 413 m 0
 250 436 232 452 210 452 c 0
 185 452 148 426 148 394 c 0
 148 379 156 353 188 353 c 0
 214 353 250 377 250 413 c 0
EndSplineSet
Validated: 1
EndChar

StartChar: uni0E07
Encoding: 3591 3591 218
Width: 517
VWidth: 1507
Flags: W
HStem: 0 60<334.606 381> 404 44<400.468 454.637> 553 42<414.029 494.563>
VStem: 349 45<453.76 534.309> 500 45<468.804 549.069>
LayerCount: 2
Fore
SplineSet
469 595 m 0
 513 595 545 562 545 523 c 0
 545 517 545 510 543 503 c 2
 437 0 l 1
 369 0 l 2
 301 0 271 43 256 74 c 2
 119 392 l 1
 197 392 l 1
 329 87 l 2
 339 70 360 60 381 60 c 1
 455 409 l 1
 446 406 437 404 427 404 c 0
 377 404 349 441 349 481 c 0
 349 541 409 595 469 595 c 0
500 511 m 0
 500 526 492 553 460 553 c 256
 427 553 394 522 394 490 c 0
 394 470 411 448 437 448 c 256
 469 448 500 481 500 511 c 0
EndSplineSet
Validated: 1
EndChar

StartChar: uni0E08
Encoding: 3592 3592 219
Width: 578
VWidth: 1507
Flags: W
HStem: 0 21G<286 391.5> 202 44<274.624 328.749> 350 43<286.499 370.612> 537 60<285.74 504.035>
VStem: 223 46<251.02 333.21> 376 44<264.516 344.709> 524 68<356.977 517.046>
LayerCount: 2
Fore
SplineSet
342 393 m 256
 392 393 420 354 420 316 c 0
 420 310 419 304 418 298 c 2
 366 60 l 1
 407 64 449 108 460 151 c 2
 522 445 l 2
 523 451 524 457 524 463 c 0
 524 497 500 537 458 537 c 2
 365 537 l 2
 328 537 294 525 264 500 c 0
 235 476 210 449 191 419 c 1
 130 442 l 1
 177 517 268 594 378 597 c 2
 475 597 l 2
 548 597 592 536 592 473 c 0
 592 464 591 454 589 445 c 2
 526 146 l 2
 510 75 429 -0 354 0 c 2
 286 0 l 1
 329 205 l 1
 329 204 312 202 301 202 c 0
 251 202 223 240 223 277 c 0
 223 338 280 393 342 393 c 256
376 310 m 0
 376 333 358 350 333 350 c 256
 302 350 269 323 269 287 c 0
 269 275 278 246 311 246 c 256
 342 246 376 274 376 310 c 0
EndSplineSet
Validated: 1
EndChar

StartChar: uni0E09
Encoding: 3593 3593 220
Width: 610
VWidth: 1507
Flags: W
HStem: 0 48<464.074 554.195> 140 42<133.126 185.945> 286 41<147.489 228.291> 537 60<321.946 537.826>
VStem: 84 43<187.368 265.978> 130 69<366 416.742> 234 42<200.656 280.726> 408 49<54.5346 105.648> 557 69<411.857 516.995> 576 49<70.4901 157.275>
LayerCount: 2
Fore
SplineSet
557 462 m 0xff80
 557 499 534 535 490 537 c 2
 392 537 l 2
 315 537 216 451 199 366 c 1
 130 366 l 1
 157 489 288 597 405 597 c 2
 506 597 l 2
 578 597 626 539 626 472 c 0xff80
 626 463 625 453 623 443 c 2
 573 207 l 1
 617 187 625 151 625 130 c 0xff40
 625 78 576 0 491 0 c 0
 440 0 408 40 408 85 c 0
 408 92 409 99 410 106 c 1
 225 0 l 1
 157 0 l 1
 187 143 l 1
 171 141 169 140 161 140 c 0
 116 140 84 174 84 214 c 0
 84 277 146 327 202 327 c 0
 248 327 276 291 276 256 c 0
 276 250 275 243 274 237 c 2
 240 75 l 1
 508 225 l 1
 555 443 l 2
 556 450 557 456 557 462 c 0xff80
193 286 m 256
 157 286 127 251 127 224 c 0
 127 203 142 182 170 182 c 256
 200 182 234 208 234 246 c 0
 234 268 217 286 193 286 c 256
576 121 m 0xff40
 576 146 556 164 529 164 c 256
 492 164 457 127 457 95 c 0
 457 76 469 48 505 48 c 0
 539 48 576 78 576 121 c 0xff40
EndSplineSet
Validated: 1
EndChar

StartChar: uni0E0A
Encoding: 3594 3594 221
Width: 563
VWidth: 1507
Flags: W
HStem: 0 60<332 405.533> 327 42<171.605 251.259> 475 42<208.579 264.937> 550 47<224.674 334.575>
VStem: 118 47<375.102 455.539> 271 45<387.892 469.594> 362 53<366.382 522.688>
LayerCount: 2
Fore
SplineSet
229 475 m 256
 198 475 165 445 165 411 c 0
 165 390 182 369 208 369 c 0
 239 369 271 402 271 432 c 0
 271 456 254 475 229 475 c 256
298 597 m 0
 394 597 415 524 415 476 c 0
 415 461 413 446 410 430 c 2
 332 60 l 1
 354 60 l 2
 392 60 438 98 448 143 c 2
 496 369 l 2
 496 370 496 370 496 371 c 0
 496 395 449 419 422 419 c 1
 428 449 l 1
 537 485 581 538 624 684 c 1
 692 684 l 1
 663 606 l 1
 619 491 557 452 503 433 c 1
 528 426 560 397 565 378 c 1
 517 152 l 2
 500 74 417 -0 342 0 c 2
 317 0 l 2
 285 0 263 27 263 54 c 0
 263 58 264 63 265 68 c 2
 317 308 l 2
 319 318 322 327 326 336 c 2
 338 362 l 2
 346 379 362 417 362 454 c 0
 362 490 346 550 280 550 c 0
 251 550 226 533 208 514 c 1
 217 516 227 517 238 517 c 0
 285 517 316 481 316 440 c 0
 316 381 256 327 199 327 c 0
 134 327 118 380 118 416 c 0
 118 495 193 597 298 597 c 0
EndSplineSet
Validated: 1
EndChar

StartChar: uni0E0B
Encoding: 3595 3595 222
Width: 572
VWidth: 1507
Flags: W
HStem: 0 60<341 414.533> 312 41<150.045 228.949> 452 38<166.711 241.004> 544 53<218.53 270>
VStem: 100 45<357.06 434.944> 247 40<371.497 446.62> 432 49<444.442 539.948> 505 71<353.24 407.345> 635 66<628.424 689>
LayerCount: 2
Fore
SplineSet
326 0 m 2
 294 0 272 27 272 54 c 0
 272 58 273 63 274 68 c 2
 333 347 l 2
 335 358 341 368 350 378 c 2
 381 409 l 2
 416 444 432 476 432 501 c 0
 432 515 427 528 418 541 c 1
 324 434 l 1
 270 544 l 1
 231 543 182 514 166 475 c 1
 183 485 199 490 216 490 c 0
 255 490 287 460 287 417 c 0
 287 359 222 312 175 312 c 0
 115 312 100 364 100 404 c 0
 100 498 198 597 304 597 c 1
 341 514 l 1
 416 597 l 1
 466 584 481 546 481 508 c 0
 481 465 456 420 425 381 c 2
 410 362 l 2
 405 356 401 346 398 333 c 2
 341 60 l 1
 363 60 l 2
 401 60 448 98 457 143 c 2
 505 374 l 1
 505 394 479 412 476 412 c 1
 484 432 490 445 490 481 c 1
 584 528 603 578 635 689 c 1
 701 689 l 1
 667 598 648 488 526 446 c 1
 559 426 576 407 576 390 c 2
 576 386 l 1
 526 152 l 2
 509 74 426 -0 351 0 c 2
 326 0 l 2
247 413 m 0
 247 436 229 452 207 452 c 0
 182 452 145 426 145 394 c 0
 145 379 153 353 185 353 c 0
 211 353 247 377 247 413 c 0
EndSplineSet
Validated: 1
EndChar

StartChar: uni0E0C
Encoding: 3596 3596 223
Width: 854
VWidth: 1507
Flags: W
HStem: 2 43<169.011 249.931 402.329 448> 148 43<210.363 264.291> 158 47<416.46 472> 537 60<302.973 515.431>
VStem: 119 44<50.4802 113.833> 170 70<283.067 378.336> 269 45<62.5297 143.179> 349 45<55.5508 135.862> 534 70<414.182 519.123>
LayerCount: 2
Fore
SplineSet
482 597 m 2xdf80
 543 597 604 549 604 474 c 0
 604 464 603 455 601 446 c 2
 549 196 l 1
 620 172 681 129 721 72 c 1
 832 597 l 1
 898 597 l 1
 772 0 l 1
 705 0 l 1
 627 102 576 127 537 140 c 1
 514 35 l 1
 480 7 454 2 439 2 c 0
 375 2 349 45 349 82 c 0
 349 140 398 205 481 205 c 1xbf80
 532 446 l 2
 534 453 534 460 534 466 c 0
 534 502 509 537 469 537 c 2
 374 537 l 2
 307 537 237 475 207 422 c 1
 227 403 240 382 240 346 c 0
 240 335 238 323 235 312 c 2
 210 188 l 1
 215 189 221 191 237 191 c 0
 285 191 314 154 314 117 c 0
 314 60 259 2 197 2 c 0
 156 2 119 30 119 73 c 2
 119 80 l 1
 167 312 l 2
 169 318 170 324 170 331 c 0
 170 354 153 388 119 392 c 1
 163 525 293 597 390 597 c 2
 482 597 l 2xdf80
228 148 m 256xdf80
 197 148 163 116 163 88 c 0
 163 67 178 45 207 45 c 256
 241 45 269 79 269 109 c 0
 269 131 252 148 228 148 c 256xdf80
472 158 m 1xbf80
 434 158 394 130 394 90 c 0
 394 62 420 48 448 48 c 1
 472 158 l 1xbf80
EndSplineSet
Validated: 1
EndChar

StartChar: uni0E0D
Encoding: 3597 3597 224
Width: 860
VWidth: 1507
Flags: W
HStem: -249 50<489.414 626.127> -78 40<446.386 525.652> 0 60<528 696.733> 0 47<178.411 260.182> 152 42<217.829 273.695> 537 60<308.973 522.911>
VStem: 125 49<50.7868 134.04> 177 69<282.552 377.378> 280 43<67.3924 145.562> 387 42<-173.634 -94.9026> 530 43<-161.754 -82.1108> 543 69<413.833 518.604>
LayerCount: 2
Fore
SplineSet
213 422 m 1xefd0
 236 400 246 376 246 342 c 0
 246 332 245 322 243 312 c 2
 217 190 l 1
 227 193 237 194 246 194 c 0
 287 194 323 161 323 119 c 0
 323 60 267 0 205 0 c 0xdfd0
 150 0 125 40 125 67 c 0
 125 72 126 78 127 83 c 2
 175 312 l 2
 176 318 177 323 177 329 c 0
 177 352 160 388 125 392 c 1
 169 525 299 597 396 597 c 2
 490 597 l 2
 556 597 612 542 612 473 c 0
 612 464 611 455 609 446 c 2
 528 60 l 1
 645 60 l 2
 689 64 737 107 748 154 c 2
 843 597 l 1
 910 597 l 1
 816 154 l 2
 797 73 714 -0 633 0 c 2xefd0
 517 0 l 2xdfd0
 482 0 461 30 461 60 c 2
 461 68 l 1
 541 446 l 2
 543 453 543 459 543 466 c 0
 543 502 518 537 476 537 c 2
 380 537 l 2
 313 537 242 473 213 422 c 1xefd0
280 108 m 0
 280 132 263 152 237 152 c 256
 202 152 174 120 174 85 c 0
 174 62 192 47 214 47 c 256
 247 47 280 80 280 108 c 0
573 -106 m 0xcfe0
 573 -141 556 -168 517 -194 c 1
 529 -197 540 -199 550 -199 c 0
 607 -199 692 -159 734 -65 c 1
 787 -65 l 1
 746 -170 632 -249 531 -249 c 0
 449 -249 387 -209 387 -150 c 0
 387 -86 450 -38 499 -38 c 0
 543 -38 573 -67 573 -106 c 0xcfe0
530 -116 m 0
 530 -93 512 -78 490 -78 c 0
 460 -78 429 -104 429 -137 c 0
 429 -151 437 -178 469 -178 c 256
 500 -178 530 -151 530 -116 c 0
EndSplineSet
Validated: 1
Substitution2: "Single Substitution lookup 22 subtable" uni0E0D.alt1
Substitution2: "Single Substitution lookup 22 subtable" uni0E0D.alt1
EndChar

StartChar: uni0E0E
Encoding: 3598 3598 225
Width: 615
VWidth: 1507
Flags: W
HStem: -294 44<102.436 184.003> -146 43<113.642 199.735> 0 44<104.875 187.575> 146 44<117.834 198.766> 537 60<325.673 541.539>
VStem: 52 45<-245.449 -163.306 51.0642 125.781> 226 69<279.429 363.97> 561 69<413.625 518.604>
LayerCount: 2
Fore
SplineSet
234 427 m 1
 267 413 295 370 295 332 c 0
 295 325 294 318 292 311 c 2
 246 90 l 2
 235 39 181 0 133 0 c 0
 83 0 55 37 55 77 c 0
 55 134 111 190 172 190 c 2
 185 190 l 2
 189 190 194 189 199 187 c 1
 225 311 l 2
 226 314 226 317 226 320 c 0
 226 353 181 394 145 396 c 1
 180 512 303 597 416 597 c 2
 508 597 l 2
 568 597 630 549 630 474 c 0
 630 464 629 455 627 446 c 2
 502 -146 l 1
 420 -260 344 -291 318 -301 c 1
 234 -228 l 1
 212 -266 170 -294 128 -294 c 0
 85 -294 52 -258 52 -219 c 0
 52 -155 111 -103 169 -103 c 0
 193 -103 215 -112 235 -130 c 2
 336 -223 l 1
 368 -210 401 -181 436 -136 c 1
 559 446 l 2
 561 453 561 459 561 466 c 0
 561 502 536 537 494 537 c 2
 399 537 l 2
 333 537 262 476 234 427 c 1
163 146 m 256
 127 146 100 112 100 84 c 0
 100 61 118 44 142 44 c 0
 174 44 206 74 206 107 c 0
 206 130 187 146 163 146 c 256
160 -146 m 0
 132 -146 97 -170 97 -209 c 0
 97 -231 114 -250 137 -250 c 0
 172 -250 204 -217 204 -184 c 0
 204 -169 195 -146 160 -146 c 0
EndSplineSet
Validated: 1
Substitution2: "Single Substitution lookup 22 subtable" uni0E0E.alt1
Substitution2: "Single Substitution lookup 22 subtable" uni0E0E.alt1
EndChar

StartChar: uni0E0F
Encoding: 3599 3599 226
Width: 613
VWidth: 1507
Flags: W
HStem: -283 43<57.3068 139.178> -134 44<69.0792 152.783> 0 44<104.875 189.002> 146 44<119.606 198.812> 537 60<325.673 541.539>
VStem: 6 44<-233.713 -153.076> 55 45<48.7911 127.13> 226 69<280.286 363.589> 561 69<413.516 518.604>
LayerCount: 2
Fore
SplineSet
508 597 m 2
 568 597 630 549 630 474 c 0
 630 464 629 455 627 446 c 2
 502 -148 l 1
 482 -219 448 -246 353 -301 c 1
 304 -185 l 1
 213 -301 l 1
 176 -235 l 1
 158 -259 123 -283 84 -283 c 0
 33 -283 6 -245 6 -207 c 0
 6 -147 66 -90 125 -90 c 0
 154 -90 177 -102 193 -127 c 1
 234 -213 l 1
 327 -95 l 1
 378 -213 l 1
 424 -187 430 -163 434 -148 c 2
 559 446 l 2
 561 453 561 459 561 466 c 0
 561 502 536 537 494 537 c 2
 399 537 l 2
 333 537 262 476 234 427 c 1
 261 415 295 377 295 335 c 0
 295 327 294 320 292 312 c 2
 246 90 l 2
 235 39 181 0 133 0 c 256
 83 0 55 39 55 77 c 0
 55 136 115 190 172 190 c 2
 186 190 l 2
 191 190 195 189 199 187 c 1
 225 311 l 2
 226 314 226 317 226 320 c 0
 226 353 181 394 145 396 c 1
 180 512 303 597 416 597 c 2
 508 597 l 2
163 146 m 0
 132 145 100 115 100 84 c 0
 100 61 118 44 142 44 c 0
 179 44 206 78 206 106 c 0
 206 129 188 146 163 146 c 0
116 -134 m 256
 86 -134 50 -164 50 -195 c 0
 50 -218 67 -240 93 -240 c 256
 129 -240 158 -205 158 -177 c 0
 158 -153 141 -134 116 -134 c 256
EndSplineSet
Validated: 1
Substitution2: "Single Substitution lookup 22 subtable" uni0E0F.alt1
Substitution2: "Single Substitution lookup 22 subtable" uni0E0F.alt1
EndChar

StartChar: uni0E10
Encoding: 3600 3600 227
Width: 538
VWidth: 1507
Flags: W
HStem: -268 43<-12.5577 67.5763> -154 32<317.094 355.554> -118 44<0.669426 83.2308> -45 31<326.979 386.275> 0 21G<211 318> 134 45<184.747 239.683> 285 45<197.211 280.127> 494 55<426.7 573.277> 543 54<257.939 399.084>
VStem: -65 46<-219.174 -137.356> 134 44<185.455 265.648> 282 32<-118.999 -57.3417> 286 44<197.418 279.57> 390 33<-110.128 -47.9205>
LayerCount: 2
Fore
SplineSet
203 451 m 1xfef4
 294 437 394 408 496 342 c 1
 455 152 l 2
 435 70 357 0 279 0 c 2
 211 0 l 1
 240 139 l 1
 231 136 221 134 211 134 c 0
 160 134 134 175 134 212 c 0
 134 276 200 330 253 330 c 0
 300 330 330 297 330 255 c 0
 330 248 329 240 327 232 c 2
 291 60 l 1
 332 64 375 101 386 143 c 2
 422 315 l 1
 358 358 260 390 127 410 c 1
 152 545 260 597 326 597 c 0xfeec
 386 597 439 557 505 549 c 0
 528 549 557 554 621 603 c 1
 607 540 l 1
 581 515 547 494 499 494 c 0xff6c
 434 494 380 543 314 543 c 0
 270 543 215 496 203 451 c 1xfef4
368 -14 m 0
 399 -14 423 -38 423 -68 c 0
 423 -73 422 -78 421 -83 c 2
 398 -190 l 2
 386 -241 343 -278 270 -300 c 1
 226 -188 l 1
 119 -300 l 1
 96 -229 l 1
 73 -255 47 -268 17 -268 c 0
 -36 -268 -65 -227 -65 -189 c 0
 -65 -133 -8 -74 54 -74 c 0
 68 -74 105 -76 122 -110 c 1
 149 -213 l 1
 243 -113 l 1
 298 -240 l 1
 327 -228 344 -209 350 -184 c 2
 356 -151 l 1
 350 -153 344 -154 338 -154 c 0
 306 -154 282 -132 282 -101 c 0xfe74
 282 -56 324 -14 368 -14 c 0
45 -118 m 256
 10 -118 -19 -154 -19 -182 c 0
 -19 -203 -2 -225 23 -225 c 0
 61 -225 88 -184 88 -157 c 0
 88 -138 71 -118 45 -118 c 256
178 224 m 0
 178 202 194 179 222 179 c 256
 254 179 286 211 286 242 c 0xfe6c
 286 266 269 285 244 285 c 256
 211 285 178 252 178 224 c 0
360 -45 m 256
 336 -45 314 -67 314 -91 c 0xfe74
 314 -104 320 -122 344 -122 c 0
 366 -122 390 -103 390 -75 c 0
 390 -57 378 -45 360 -45 c 256
EndSplineSet
Validated: 1
Substitution2: "Single Substitution lookup 22 subtable" uni0E10.alt1
Substitution2: "Single Substitution lookup 22 subtable" uni0E10.alt1
EndChar

StartChar: uni0E11
Encoding: 3601 3601 228
Width: 780
VWidth: 1507
Flags: W
HStem: 0 21G<265 346.193 635 706.244> 312 41<155.836 233.111> 452 38<170.579 246.042> 544 53<224.348 274>
VStem: 105 45<356.694 457.289> 251 40<371.183 446.546> 436 50<442.893 540.352> 730 69<411.031 507.622>
LayerCount: 2
Fore
SplineSet
421 597 m 1
 470 584 486 547 486 509 c 0
 486 452 451 401 416 366 c 0
 411 361 407 352 404 339 c 2
 369 175 l 1
 651 597 l 1
 733 597 799 545 799 472 c 0
 799 462 798 453 796 443 c 2
 702 0 l 1
 635 0 l 1
 728 443 l 2
 729 449 730 454 730 459 c 0
 730 485 715 515 678 523 c 1
 333 0 l 1
 265 0 l 1
 338 347 l 2
 340 358 346 368 355 378 c 2
 386 409 l 2
 409 432 436 464 436 501 c 0
 436 515 431 528 422 541 c 1
 329 434 l 1
 274 544 l 1
 236 543 186 515 170 475 c 1
 187 485 204 490 220 490 c 0
 263 490 291 457 291 419 c 0
 291 357 225 312 179 312 c 0
 120 312 105 364 105 401 c 0
 105 512 215 597 309 597 c 1
 345 514 l 1
 421 597 l 1
251 414 m 0
 251 437 233 452 211 452 c 0
 187 452 150 429 150 394 c 0
 150 379 158 353 190 353 c 0
 217 353 251 378 251 414 c 0
EndSplineSet
Validated: 1
EndChar

StartChar: uni0E12
Encoding: 3602 3602 229
Width: 901
VWidth: 1507
Flags: W
HStem: 0 48<163 220.79 451.502 496> 142 54<595 633.068> 160 47<467.308 520> 172 44<300.002 346.525> 321 44<313.774 394.078> 577 20G<364.5 429.514 520.73 576 875.771 948>
VStem: 248 47<220.876 301.953> 397 47<55.9022 137.768 234.07 317.087> 582 70<363.242 510.49>
LayerCount: 2
Fore
SplineSet
397 83 m 0xcf80
 397 146 464 207 522 207 c 2
 531 207 l 1xaf80
 580 445 l 2
 581 451 582 457 582 462 c 0
 582 482 571 514 535 525 c 1
 448 437 l 1
 384 523 l 1
 314 506 247 443 231 372 c 2
 163 53 l 1
 237 62 308 121 347 175 c 1
 339 173 332 172 327 172 c 0x9f80
 276 172 248 211 248 250 c 0
 248 310 309 365 368 365 c 0
 414 365 445 329 445 290 c 0
 445 236 383 94 232 24 c 0
 199 8 167 -0 137 0 c 2
 84 0 l 1
 163 372 l 2
 188 485 313 597 416 597 c 1
 466 523 l 1
 541 597 l 1
 611 595 652 539 652 481 c 0
 652 469 651 457 648 445 c 2
 595 196 l 1
 666 174 724 133 769 72 c 1
 880 597 l 1
 948 597 l 1
 822 0 l 1
 754 0 l 1
 671 105 634 127 583 142 c 1
 561 35 l 1
 544 18 513 0 481 0 c 0
 428 0 397 41 397 83 c 0xcf80
359 321 m 256
 326 321 295 289 295 256 c 0
 295 234 312 216 336 216 c 256x9f80
 368 216 399 248 399 279 c 0
 399 302 383 321 359 321 c 256
513 160 m 2xaf80
 479 160 444 124 444 96 c 0
 444 68 464 48 496 48 c 1
 520 160 l 1
 513 160 l 2xaf80
EndSplineSet
Validated: 1
EndChar

StartChar: uni0E13
Encoding: 3603 3603 230
Width: 857
VWidth: 1507
Flags: W
HStem: 0 44<169.974 252.11 715.27 795.13> 149 44<210.795 265.85> 537 60<302.973 515.91>
VStem: 119 46<49.3879 113.833> 170 70<282.3 378.336> 271 45<62.7327 143.948> 536 68<413.852 516.185> 657 47<55.8704 114.779> 824 48<71.9784 155.007>
LayerCount: 2
Fore
SplineSet
207 422 m 1
 227 403 240 382 240 346 c 0
 240 335 238 323 235 311 c 2
 210 188 l 1
 219 192 228 193 240 193 c 0
 285 193 316 157 316 115 c 0
 316 58 251 0 199 0 c 0
 156 0 119 29 119 72 c 2
 119 80 l 1
 167 312 l 2
 169 318 170 324 170 331 c 0
 170 354 153 388 119 392 c 1
 163 525 293 597 390 597 c 2
 482 597 l 2
 543 597 604 549 604 474 c 0
 604 464 603 455 601 446 c 2
 523 74 l 1
 571 114 667 184 754 214 c 1
 835 597 l 1
 903 597 l 1
 819 205 l 1
 848 194 872 165 872 126 c 0
 872 58 803 0 743 0 c 0
 686 0 657 43 657 85 c 0
 657 104 662 113 662 116 c 1
 619 91 568 52 508 0 c 1
 440 0 l 1
 534 446 l 2
 535 452 536 458 536 464 c 0
 536 500 511 537 469 537 c 2
 374 537 l 2
 307 537 237 475 207 422 c 1
231 149 m 0
 198 149 165 119 165 85 c 0
 165 72 173 44 208 44 c 0
 240 44 271 78 271 107 c 0
 271 132 253 149 231 149 c 0
752 48 m 0
 788 48 824 85 824 118 c 0
 824 140 804 163 775 163 c 0
 739 163 704 126 704 96 c 0
 704 82 714 48 752 48 c 0
EndSplineSet
Validated: 1
EndChar

StartChar: uni0E14
Encoding: 3604 3604 231
Width: 639
VWidth: 1507
Flags: W
HStem: 0 53<161 250.019> 136 40<319.657 345> 282 42<331.942 413.117> 537 60<349.562 561.927>
VStem: 269 44<180.953 263.703> 420 40<196.899 275.271> 584 70<415.333 515.041>
LayerCount: 2
Fore
SplineSet
313 217 m 0
 313 197 327 176 354 176 c 0
 388 176 420 205 420 239 c 0
 420 262 402 282 377 282 c 256
 348 282 313 254 313 217 c 0
584 462 m 0
 584 506 550 537 519 537 c 2
 421 537 l 2
 344 537 245 451 228 366 c 2
 161 53 l 1
 235 53 307 100 345 136 c 1
 284 136 269 178 269 209 c 0
 269 273 331 324 386 324 c 0
 430 324 460 288 460 249 c 0
 460 145 287 0 151 0 c 2
 81 0 l 1
 160 369 l 2
 185 493 324 597 437 597 c 2
 532 597 l 2
 607 597 654 540 654 473 c 0
 654 463 653 453 651 443 c 2
 558 0 l 1
 488 0 l 1
 583 448 l 2
 584 453 584 457 584 462 c 0
EndSplineSet
Validated: 1
EndChar

StartChar: uni0E15
Encoding: 3605 3605 232
Width: 637
VWidth: 1507
Flags: W
HStem: 0 53<160 249.121> 280 43<330.986 414.681> 578 19G<365.5 431.803 520.444 569>
VStem: 269 45<180.355 263.056> 420 40<196.557 273.073> 585 69<412.552 506.457>
LayerCount: 2
Fore
SplineSet
541 598 m 1
 597 589 654 537 654 471 c 0
 654 463 653 454 651 445 c 2
 558 0 l 1
 490 0 l 1
 583 445 l 2
 584 450 585 456 585 461 c 0
 585 482 574 511 535 522 c 1
 448 434 l 1
 384 520 l 1
 315 505 243 440 226 366 c 2
 160 53 l 1
 228 53 307 96 344 133 c 1
 280 137 269 180 269 208 c 0
 269 267 324 323 386 323 c 256
 434 323 460 288 460 250 c 0
 460 139 287 -0 149 0 c 2
 81 0 l 1
 158 366 l 2
 181 476 313 597 418 597 c 1
 467 526 l 1
 541 598 l 1
377 280 m 256
 349 280 314 255 314 218 c 0
 314 205 322 176 354 176 c 256
 385 176 420 204 420 239 c 0
 420 262 402 280 377 280 c 256
EndSplineSet
Validated: 1
EndChar

StartChar: uni0E16
Encoding: 3606 3606 233
Width: 592
VWidth: 1507
Flags: W
HStem: 0 42<173.289 253.964> 148 42<213.542 266.857> 537 60<305.973 518.91>
VStem: 122 46<47.9234 112.125> 173 70<282.067 378.336> 274 46<60.952 142.896> 539 68<413.479 516.185>
LayerCount: 2
Fore
SplineSet
232 148 m 256
 202 148 168 118 168 84 c 0
 168 63 182 42 210 42 c 256
 246 42 274 78 274 106 c 0
 274 128 257 148 232 148 c 256
485 597 m 2
 546 597 607 549 607 474 c 0
 607 464 606 455 604 446 c 2
 511 0 l 1
 443 0 l 1
 537 446 l 2
 538 452 539 458 539 464 c 0
 539 500 514 537 472 537 c 2
 377 537 l 2
 310 537 240 475 210 422 c 1
 230 403 243 382 243 346 c 0
 243 335 241 323 238 311 c 2
 213 187 l 1
 218 189 222 190 227 190 c 2
 241 190 l 2
 291 190 320 148 320 113 c 0
 320 62 268 0 202 0 c 0
 159 0 122 31 122 71 c 2
 122 78 l 1
 170 312 l 2
 172 318 173 324 173 331 c 0
 173 354 156 388 122 392 c 1
 166 525 296 597 393 597 c 2
 485 597 l 2
EndSplineSet
Validated: 1
EndChar

StartChar: uni0E17
Encoding: 3607 3607 234
Width: 673
VWidth: 1507
Flags: W
HStem: 0 21G<158 238.849 528 599.244> 409 42<192.415 245.196> 552 42<204.735 286.076>
VStem: 144 43<455.852 534.689> 292 43<469.274 546.167> 622 70<411.031 501.465>
LayerCount: 2
Fore
SplineSet
259 594 m 256
 302 594 335 562 335 523 c 0
 335 517 334 510 332 503 c 2
 258 149 l 1
 547 597 l 1
 631 597 692 545 692 472 c 0
 692 463 691 453 689 443 c 2
 595 0 l 1
 528 0 l 1
 621 443 l 2
 622 448 622 452 622 456 c 0
 622 490 592 517 562 523 c 1
 226 0 l 1
 158 0 l 1
 246 413 l 1
 237 410 228 409 220 409 c 0
 175 409 144 445 144 484 c 0
 144 546 207 594 259 594 c 256
292 511 m 0
 292 534 274 552 250 552 c 256
 223 552 187 526 187 492 c 0
 187 469 204 451 229 451 c 256
 264 451 292 484 292 511 c 0
EndSplineSet
Validated: 1
EndChar

StartChar: uni0E18
Encoding: 3608 3608 235
Width: 523
VWidth: 1507
Flags: W
HStem: 0 60<179 355.889> 491 57<434.351 561.252> 537 60<262.292 406.947>
LayerCount: 2
Fore
SplineSet
169 0 m 2xa0
 137 0 112 24 112 55 c 0
 112 59 112 64 113 69 c 2
 173 354 l 1
 241 354 l 1
 179 60 l 1
 304 60 l 2
 346 60 398 112 409 155 c 2
 443 314 l 1
 391 346 297 383 142 410 c 1
 164 523 248 597 342 597 c 0xa0
 400 597 457 548 501 548 c 0
 536 548 581 578 607 604 c 1
 594 541 l 1
 564 508 530 491 491 491 c 0xc0
 432 491 389 537 327 537 c 0
 253 537 219 468 216 454 c 1
 333 437 431 398 517 344 c 1
 476 152 l 2
 460 71 366 -0 289 0 c 2
 169 0 l 2xa0
EndSplineSet
Validated: 1
EndChar

StartChar: uni0E19
Encoding: 3609 3609 236
Width: 612
VWidth: 1507
Flags: W
HStem: 0 50<464.003 552.67> 413 42<194.037 245.189> 556 41<207.961 287.633>
VStem: 146 43<460.489 538.588> 293 44<472.706 551.119> 411 47<56.6382 136.293> 575 50<71.531 157.048>
LayerCount: 2
Fore
SplineSet
146 487 m 0
 146 550 209 597 261 597 c 256
 303 597 337 567 337 525 c 0
 337 520 336 514 335 508 c 2
 244 84 l 1
 320 153 431 208 505 214 c 1
 586 597 l 1
 656 597 l 1
 573 207 l 1
 604 196 625 168 625 130 c 0
 625 66 562 0 494 0 c 256
 440 0 411 42 411 84 c 0
 411 91 411 99 413 107 c 2
 417 122 l 2
 418 128 420 132 422 137 c 1
 379 123 321 88 228 0 c 1
 158 0 l 1
 246 416 l 1
 241 414 233 413 222 413 c 0
 176 413 146 452 146 487 c 0
293 517 m 0
 293 540 275 556 252 556 c 256
 219 556 189 526 189 494 c 0
 189 471 209 455 231 455 c 0
 264 455 293 484 293 517 c 0
575 120 m 0
 575 146 556 163 529 164 c 0
 500 164 458 133 458 93 c 0
 458 70 477 50 505 50 c 0
 538 50 575 81 575 120 c 0
EndSplineSet
Validated: 1
EndChar

StartChar: uni0E1A
Encoding: 3610 3610 237
Width: 652
VWidth: 1507
Flags: W
HStem: 0 60<243 484.733> 402 46<193.063 248.307> 552 45<207.075 289.506>
VStem: 144 45<452.866 533.092> 295 43<464.746 546.088>
LayerCount: 2
Fore
SplineSet
262 597 m 0
 312 597 338 558 338 519 c 0
 338 513 337 506 336 499 c 2
 243 60 l 1
 431 60 l 2
 475 60 524 106 534 149 c 2
 629 597 l 1
 696 597 l 1
 600 145 l 2
 584 64 496 0 419 0 c 2
 226 0 l 2
 195 0 174 25 174 52 c 0
 174 57 175 61 176 66 c 2
 249 405 l 1
 232 403 232 402 220 402 c 0
 172 402 144 440 144 481 c 0
 144 542 211 597 262 597 c 0
295 509 m 0
 295 530 279 552 252 552 c 0
 222 552 189 522 189 487 c 0
 189 465 206 448 231 448 c 256
 266 448 295 478 295 509 c 0
EndSplineSet
Validated: 1
EndChar

StartChar: uni0E1B
Encoding: 3611 3611 238
Width: 652
VWidth: 1507
Flags: W
HStem: 0 60<243 485.585> 405 44<193.136 248.095> 555 42<208.898 288.259>
VStem: 143 44<455.245 533.79> 294 45<467.185 550.213> 692 68<861.362 894>
LayerCount: 2
Fore
SplineSet
262 597 m 0
 312 597 339 559 339 523 c 0
 339 517 338 509 336 502 c 2
 243 60 l 1
 431 60 l 2
 473 60 526 108 534 152 c 2
 692 894 l 1
 760 894 l 1
 600 148 l 2
 585 75 506 0 419 0 c 2
 234 0 l 2
 202 0 175 26 175 56 c 0
 175 60 175 65 176 69 c 2
 249 410 l 1
 240 407 231 405 222 405 c 0
 171 405 143 444 143 482 c 0
 143 542 205 597 262 597 c 0
187 492 m 0
 187 469 205 449 231 449 c 256
 264 449 294 481 294 514 c 0
 294 535 279 555 253 555 c 0
 226 555 187 525 187 492 c 0
EndSplineSet
Validated: 1
EndChar

StartChar: uni0E1C
Encoding: 3612 3612 239
Width: 636
VWidth: 1507
Flags: W
HStem: 0 21G<129 171.773 465.372 509> 405 44<237.234 320.336> 553 44<249.46 332.342>
VStem: 337 45<466.392 548.093>
LayerCount: 2
Fore
SplineSet
382 518 m 0
 382 461 319 405 264 405 c 2
 250 405 l 2
 246 405 242 406 237 409 c 1
 169 86 l 1
 372 282 l 1
 385 282 395 275 402 262 c 2
 497 90 l 1
 506 97 511 109 514 124 c 2
 615 597 l 1
 683 597 l 1
 579 113 l 2
 568 60 542 5 476 0 c 1
 366 207 l 1
 151 0 l 1
 107 0 96 39 96 61 c 0
 96 66 97 71 98 77 c 2
 188 503 l 2
 200 552 252 597 304 597 c 256
 351 597 382 560 382 518 c 0
337 512 m 0
 337 535 320 553 295 553 c 256
 258 553 231 518 231 490 c 0
 231 467 248 449 273 449 c 256
 302 449 337 474 337 512 c 0
EndSplineSet
Validated: 1
EndChar

StartChar: uni0E1D
Encoding: 3613 3613 240
Width: 639
VWidth: 1507
Flags: W
HStem: 405 44<236.945 318.641> 555 42<251.981 331.663>
VStem: 337 46<467.14 550.213>
LayerCount: 2
Fore
SplineSet
383 523 m 0
 383 464 318 405 265 405 c 0
 255 405 246 407 237 410 c 1
 169 87 l 1
 372 283 l 1
 385 283 396 277 404 264 c 2
 497 92 l 1
 508 100 510 111 514 125 c 2
 678 894 l 1
 746 894 l 1
 580 115 l 2
 567 46 529 4 476 2 c 1
 366 208 l 1
 151 2 l 1
 108 2 97 42 97 60 c 0
 97 66 97 72 99 78 c 2
 188 503 l 2
 201 559 256 597 306 597 c 0
 356 597 383 559 383 523 c 0
337 514 m 0
 337 535 321 555 297 555 c 0
 264 555 231 522 231 492 c 0
 231 471 247 449 274 449 c 0
 304 449 337 479 337 514 c 0
EndSplineSet
Validated: 1
EndChar

StartChar: uni0E1E
Encoding: 3614 3614 241
Width: 705
VWidth: 1507
Flags: W
HStem: -3 21G<218.5 246.461 523.438 557> 409 43<193.107 246.225> 555 42<204.755 285.499>
VStem: 143 43<458.266 536.999> 291 45<471.388 550.192>
LayerCount: 2
Fore
SplineSet
259 597 m 256
 309 597 336 558 336 524 c 0
 336 517 335 510 333 503 c 2
 255 128 l 1
 517 589 l 1
 526 586 532 579 534 567 c 2
 574 112 l 1
 587 121 582 128 589 143 c 1
 686 597 l 1
 754 597 l 1
 659 151 l 2
 642 77 589 10 525 -3 c 1
 490 445 l 1
 235 0 l 1
 202 0 171 16 171 50 c 0
 171 55 172 60 173 66 c 2
 247 413 l 1
 236 410 227 409 219 409 c 0
 170 409 143 448 143 484 c 0
 143 539 197 597 259 597 c 256
291 516 m 0
 291 537 274 555 250 555 c 256
 218 555 186 524 186 496 c 0
 186 484 195 452 228 452 c 256
 257 452 291 479 291 516 c 0
EndSplineSet
Validated: 1
EndChar

StartChar: uni0E1F
Encoding: 3615 3615 242
Width: 705
VWidth: 1507
Flags: W
HStem: 0 21G<218.5 246.461 523.438 557> 409 43<193.107 246.225> 555 42<204.755 285.499>
VStem: 143 43<458.266 536.999> 291 45<471.388 550.192>
LayerCount: 2
Fore
SplineSet
235 0 m 1
 202 0 171 16 171 50 c 0
 171 55 172 60 173 66 c 2
 247 413 l 1
 236 410 227 409 219 409 c 0
 170 409 143 448 143 484 c 0
 143 539 197 597 259 597 c 256
 309 597 336 558 336 524 c 0
 336 517 335 510 333 503 c 2
 255 128 l 1
 517 589 l 1
 526 586 532 579 534 567 c 2
 574 112 l 1
 587 121 582 128 589 143 c 1
 749 894 l 1
 817 894 l 1
 659 151 l 2
 642 77 589 10 525 -3 c 1
 490 445 l 1
 235 0 l 1
291 516 m 0
 291 537 274 555 250 555 c 256
 218 555 186 524 186 496 c 0
 186 484 195 452 228 452 c 256
 257 452 291 479 291 516 c 0
EndSplineSet
Validated: 1
EndChar

StartChar: uni0E20
Encoding: 3616 3616 243
Width: 613
VWidth: 1507
Flags: W
HStem: 0 44<107.377 191.132> 148 43<121.849 202.438> 537 60<328.121 543.91>
VStem: 58 44<49.6044 128.789> 229 69<280.286 362.728> 563 69<413.814 517.444>
LayerCount: 2
Fore
SplineSet
235 427 m 1
 263 415 298 376 298 334 c 0
 298 327 297 320 295 312 c 2
 249 90 l 2
 238 36 180 0 136 0 c 0
 84 0 58 41 58 78 c 0
 58 134 116 191 175 191 c 0
 184 191 193 190 202 187 c 1
 228 311 l 2
 229 314 229 316 229 319 c 0
 229 352 183 394 146 396 c 1
 185 515 305 597 418 597 c 2
 510 597 l 2
 571 597 632 546 632 473 c 0
 632 464 631 455 629 446 c 2
 535 0 l 1
 467 0 l 1
 561 446 l 2
 562 452 563 458 563 464 c 0
 563 500 538 537 496 537 c 2
 401 537 l 2
 335 537 263 476 235 427 c 1
166 148 m 256
 131 148 102 111 102 85 c 0
 102 68 115 44 145 44 c 256
 176 44 209 73 209 106 c 0
 209 127 192 148 166 148 c 256
EndSplineSet
Validated: 1
EndChar

StartChar: uni0E21
Encoding: 3617 3617 244
Width: 624
VWidth: 1507
Flags: W
HStem: 0 45<135.29 184> 161 49<146.837 208 285 321.402> 412 42<210.305 261.418> 556 41<223.745 304.758>
VStem: 76 48<56.9276 138.853> 162 43<459.015 538.375> 310 42<473.635 550.597>
LayerCount: 2
Fore
SplineSet
277 597 m 0
 322 597 352 562 352 525 c 0
 352 519 351 514 350 508 c 2
 285 205 l 1
 390 176 459 133 493 77 c 1
 604 597 l 1
 672 597 l 1
 546 0 l 1
 478 0 l 1
 461 33 411 122 274 155 c 1
 252 45 l 1
 223 10 208 0 163 0 c 0
 110 0 76 42 76 88 c 0
 76 149 146 210 207 210 c 2
 219 210 l 1
 262 416 l 1
 254 413 246 412 238 412 c 0
 189 412 162 452 162 488 c 0
 162 544 217 597 277 597 c 0
196 161 m 2
 153 161 124 123 124 94 c 0
 124 65 154 45 184 45 c 1
 208 161 l 1
 196 161 l 2
246 454 m 256
 279 454 310 485 310 517 c 0
 310 539 293 556 268 556 c 256
 234 556 205 525 205 493 c 0
 205 474 220 454 246 454 c 256
EndSplineSet
Validated: 1
EndChar

StartChar: uni0E22
Encoding: 3618 3618 245
Width: 634
VWidth: 1507
Flags: W
HStem: 0 60<179 474.902> 247 54<281.456 353> 407 42<292.663 373.164> 555 42<308.158 388.265>
VStem: 168 65<337.963 451.168> 393 45<468.099 550.517> 615 68<564.237 597>
LayerCount: 2
Fore
SplineSet
244 452 m 1
 239 440 233 405 233 386 c 0
 233 354 246 327 328 306 c 0
 340 303 353 301 365 301 c 1
 353 247 l 1
 261 247 209 198 190 110 c 2
 179 60 l 1
 421 60 l 2
 464 60 509 102 519 143 c 2
 615 597 l 1
 683 597 l 1
 586 143 l 2
 570 75 501 0 404 0 c 2
 175 0 l 2
 136 0 113 26 113 59 c 0
 113 68 l 1
 122 110 l 2
 140 192 185 241 201 254 c 0
 210 260 221 266 235 271 c 1
 202 281 178 313 172 339 c 0
 169 352 168 365 168 378 c 0
 168 493 264 597 348 597 c 2
 360 597 l 2
 407 597 438 560 438 519 c 0
 438 457 373 407 320 407 c 0
 274 407 252 434 244 452 c 1
393 513 m 0
 393 530 385 555 351 555 c 256
 312 555 287 520 287 490 c 0
 287 468 304 449 329 449 c 256
 361 449 393 482 393 513 c 0
EndSplineSet
Validated: 1
EndChar

StartChar: uni0E23
Encoding: 3619 3619 246
Width: 538
VWidth: 1507
Flags: W
HStem: 0 42<300.353 383.013> 145 42<317.125 392.766> 488 60<434.471 566.407> 534 61<254.156 406.901>
VStem: 253 43<47.1348 125.339>
LayerCount: 2
Fore
SplineSet
253 74 m 0xd8
 253 142 329 187 369 187 c 2
 380 187 l 2
 384 187 388 186 393 185 c 1
 419 311 l 1
 369 343 276 380 125 405 c 1
 153 537 252 595 338 595 c 0xd8
 397 595 466 548 509 548 c 0
 535 548 569 559 621 603 c 1
 607 540 l 1
 580 516 541 488 497 488 c 0xe8
 426 494 380 534 321 534 c 0
 267 534 209 489 199 445 c 1
 306 430 404 394 493 338 c 1
 442 93 l 2
 431 44 382 0 330 0 c 256
 280 0 253 39 253 74 c 0xd8
360 145 m 0
 329 145 296 114 296 80 c 0
 296 57 315 42 338 42 c 256
 372 42 402 75 402 104 c 0
 402 126 385 145 360 145 c 0
EndSplineSet
Validated: 1
EndChar

StartChar: uni0E24
Encoding: 3620 3620 247
Width: 592
VWidth: 1507
Flags: W
HStem: 0 44<171.908 256.041> 146 45<214.557 268.874> 537 60<310.047 519.911>
VStem: 123 45<48.7593 128.581> 174 70<227.75 378.145> 274 45<61.8186 141.023> 540 69<413.781 515.842>
LayerCount: 2
Fore
SplineSet
200 0 m 0
 158 0 123 34 123 74 c 0
 123 79 124 84 125 90 c 2
 172 312 l 2
 173 318 174 323 174 329 c 0
 174 358 153 388 124 392 c 1
 160 508 282 597 395 597 c 2
 487 597 l 2
 553 597 609 542 609 473 c 0
 609 464 608 455 606 446 c 2
 458 -249 l 1
 390 -249 l 1
 538 446 l 2
 540 453 540 459 540 465 c 0
 540 501 514 537 473 537 c 2
 378 537 l 2
 312 537 239 471 211 422 c 1
 232 403 244 382 244 346 c 0
 244 335 243 324 240 312 c 2
 214 188 l 1
 222 191 227 191 235 191 c 0
 280 191 319 160 319 116 c 0
 319 56 263 0 200 0 c 0
231 146 m 256
 199 146 168 116 168 83 c 0
 168 61 185 44 210 44 c 256
 246 44 274 78 274 105 c 0
 274 122 261 146 231 146 c 256
EndSplineSet
Validated: 1
EndChar

StartChar: uni0E25
Encoding: 3621 3621 248
Width: 601
VWidth: 1507
Flags: W
HStem: 0 44<150.689 233.624> 149 44<193.472 247.918> 323 67<297.012 435.895> 537 60<312.152 527.742>
VStem: 101 44<49.1821 131.441> 124 69<368 416.142> 252 44<62.3091 144.456> 548 69<414.065 518.807>
LayerCount: 2
Fore
SplineSet
496 597 m 2xf7
 577 597 617 538 617 477 c 0
 617 467 616 456 614 445 c 2
 520 0 l 1
 451 0 l 1
 488 178 l 2
 489 185 490 191 490 198 c 0
 490 248 448 323 371 323 c 256
 313 323 220 272 193 188 c 1xf7
 202 191 211 193 220 193 c 0
 265 193 296 156 296 114 c 0
 296 53 235 0 179 0 c 0
 129 0 101 38 101 76 c 0
 101 81 102 87 103 93 c 2
 105 109 l 2
 110 146 124 195 145 238 c 0xfb
 180 311 286 390 387 390 c 0
 439 390 478 369 517 308 c 1
 546 445 l 2
 547 451 548 457 548 462 c 0
 548 483 535 537 482 537 c 2
 386 537 l 2
 309 537 218 459 193 368 c 1
 124 368 l 1
 149 483 272 597 399 597 c 2
 496 597 l 2xf7
208 149 m 0
 167 149 145 109 145 86 c 0xfb
 145 72 154 44 188 44 c 0
 222 44 252 75 252 110 c 0
 252 127 243 149 208 149 c 0
EndSplineSet
Validated: 1
EndChar

StartChar: uni0E26
Encoding: 3622 3622 249
Width: 618
VWidth: 1507
Flags: W
HStem: 0 45<109.779 192.794> 148 43<122.227 205.272> 537 60<331.121 546.91>
VStem: 60 45<49.7514 130.529> 232 69<280.571 362.748> 566 69<413.781 517.444>
LayerCount: 2
Fore
SplineSet
513 597 m 2
 574 597 635 546 635 473 c 0
 635 464 634 455 632 446 c 2
 484 -249 l 1
 416 -249 l 1
 564 446 l 2
 565 452 566 458 566 464 c 0
 566 500 541 537 499 537 c 2
 404 537 l 2
 338 537 266 476 238 427 c 1
 264 416 301 378 301 336 c 0
 301 328 300 320 298 312 c 2
 252 92 l 2
 242 44 189 0 139 0 c 0
 91 0 60 34 60 76 c 0
 60 137 119 191 178 191 c 0
 190 191 199 190 205 188 c 1
 231 311 l 2
 232 314 232 316 232 319 c 0
 232 352 186 394 149 396 c 1
 188 515 308 597 421 597 c 2
 513 597 l 2
169 148 m 256
 136 148 105 119 105 85 c 0
 105 62 123 45 148 45 c 256
 180 45 211 77 211 107 c 0
 211 129 194 148 169 148 c 256
EndSplineSet
Validated: 1
EndChar

StartChar: uni0E27
Encoding: 3623 3623 250
Width: 523
VWidth: 1507
Flags: W
HStem: 0 44<319.081 403.993> 148 43<333.794 415.301> 537 58<295.659 457.2>
VStem: 271 44<48.7811 129.504> 472 69<421.782 523.844>
LayerCount: 2
Fore
SplineSet
359 537 m 2
 323 534 244 502 191 419 c 1
 131 442 l 1
 179 524 275 595 371 595 c 2
 434 595 l 2
 490 593 541 542 541 480 c 0
 541 472 540 463 538 454 c 2
 463 95 l 2
 452 43 399 0 348 0 c 0
 301 0 271 34 271 75 c 0
 271 141 334 191 387 191 c 0
 396 191 406 190 415 187 c 1
 470 454 l 2
 471 460 472 465 472 471 c 0
 472 484 467 533 422 537 c 2
 359 537 l 2
422 105 m 0
 422 128 404 148 378 148 c 256
 346 148 315 117 315 82 c 0
 315 59 332 44 357 44 c 0
 393 44 422 77 422 105 c 0
EndSplineSet
Validated: 1
EndChar

StartChar: uni0E28
Encoding: 3624 3624 251
Width: 634
VWidth: 1507
Flags: W
HStem: 0 21G<80 178.404 488 560.215> 202 44<327.077 411.334> 537 60<346.648 560.343>
VStem: 430 44<263.807 343.963> 488 68<0 33.2128> 641 64<617.863 684>
LayerCount: 2
Fore
SplineSet
474 318 m 0
 474 257 418 202 357 202 c 256
 331 202 311 211 297 228 c 1
 167 0 l 1
 80 0 l 1
 158 372 l 2
 182 490 321 597 434 597 c 2
 531 597 l 2
 545 597 562 597 600 579 c 1
 618 610 632 646 641 684 c 1
 705 684 l 1
 699 653 686 601 642 535 c 1
 650 519 654 502 654 482 c 0
 654 471 653 459 650 446 c 2
 556 0 l 1
 488 0 l 1
 582 446 l 2
 583 449 584 458 585 461 c 1
 546 420 503 388 457 366 c 1
 469 352 474 337 474 318 c 0
291 326 m 2
 311 360 346 386 387 390 c 1
 458 408 520 469 561 519 c 1
 547 531 532 537 517 537 c 2
 421 537 l 2
 343 537 253 461 226 372 c 2
 170 110 l 1
 291 326 l 2
389 348 m 256
 360 348 323 322 323 286 c 0
 323 262 340 246 366 246 c 0
 396 246 430 274 430 311 c 0
 430 334 411 348 389 348 c 256
EndSplineSet
Validated: 1
EndChar

StartChar: uni0E29
Encoding: 3625 3625 252
Width: 666
VWidth: 1507
Flags: W
HStem: 0 60<243 482.466> 234 46<392.834 466.138 497 549> 384 41<403.183 481.369> 405 44<193.027 248.684> 555 42<208.095 289.906>
VStem: 143 44<454.986 535.192> 295 43<471.033 550.035> 344 42<288.948 366.37> 486 42<301.118 379.433>
LayerCount: 2
Fore
SplineSet
264 597 m 0xdf80
 310 597 338 559 338 520 c 0
 338 514 337 507 336 500 c 2
 243 60 l 1
 430 60 l 2
 461 60 522 99 532 152 c 2
 549 234 l 1
 461 234 l 2
 406 234 344 252 344 312 c 0
 344 379 407 425 454 425 c 0
 498 425 528 388 528 353 c 0
 528 331 518 300 497 280 c 1
 559 280 l 1
 627 597 l 1
 695 597 l 1
 632 303 l 1
 671 322 699 360 713 384 c 1
 760 384 l 1xef80
 708 288 650 262 621 252 c 1
 600 149 l 2
 578 66 494 0 418 0 c 2
 228 0 l 2
 196 0 174 29 174 56 c 0
 174 60 175 64 176 69 c 2
 249 410 l 1
 240 407 231 405 222 405 c 0
 171 405 143 444 143 482 c 0
 143 542 204 597 264 597 c 0xdf80
253 555 m 0
 221 555 187 523 187 492 c 0
 187 469 204 449 231 449 c 0xdf80
 263 449 295 485 295 515 c 0
 295 538 277 555 253 555 c 0
446 384 m 0xef80
 424 384 386 362 386 324 c 0
 386 311 394 285 425 285 c 0
 459 285 486 315 486 347 c 0
 486 369 468 384 446 384 c 0xef80
EndSplineSet
Validated: 1
EndChar

StartChar: uni0E2A
Encoding: 3626 3626 253
Width: 649
VWidth: 1507
Flags: W
HStem: -2 44<195.729 276.937> 146 44<237.853 289.483> 537 60<356.633 570.024>
VStem: 144 45<48.896 128.743> 167 70<366 418.198> 295 45<59.3836 140.388>
LayerCount: 2
Fore
SplineSet
220 -2 m 0xec
 175 -2 144 37 144 76 c 0xf4
 144 82 145 87 146 93 c 2
 161 169 l 2
 182 271 285 369 392 387 c 0
 465 406 530 467 571 519 c 1
 559 531 545 537 529 537 c 2
 430 537 l 2
 350 537 252 448 237 366 c 1
 167 366 l 1
 189 477 316 597 446 597 c 2
 543 597 l 2
 569 597 593 588 610 579 c 1
 628 610 642 646 651 684 c 1
 716 684 l 1
 705 628 679 576 651 534 c 1
 660 516 664 497 664 477 c 0
 664 467 663 456 660 445 c 2
 567 0 l 1
 497 0 l 1
 534 176 l 2
 535 182 535 188 535 194 c 0
 535 269 480 320 413 320 c 0
 343 320 254 246 237 187 c 1
 245 189 253 190 261 190 c 0
 312 190 340 152 340 113 c 0
 340 58 279 -2 220 -2 c 0xec
252 146 m 256
 219 146 189 115 189 85 c 0
 189 61 210 42 235 42 c 0
 268 42 295 79 295 105 c 0
 295 122 282 146 252 146 c 256
591 445 m 2
 593 451 590 451 592 460 c 1
 564 429 531 401 494 378 c 1
 525 367 549 349 565 324 c 1
 591 445 l 2
EndSplineSet
Validated: 1
EndChar

StartChar: uni0E2B
Encoding: 3627 3627 254
Width: 673
VWidth: 1507
Flags: W
HStem: 0 21G<160 299 526 598.242> 409 43<192.486 246.427> 553 42<207.235 286.558 587.97 670.951>
VStem: 146 42<457.051 532.844> 292 44<469.122 548.461> 527 43<456.726 535.188> 676 45<467.802 548.455>
LayerCount: 2
Fore
SplineSet
721 522 m 0
 721 480 692 440 650 418 c 1
 666 407 671 383 671 363 c 1
 594 0 l 1
 526 0 l 1
 604 371 l 1
 538 335 370 181 228 0 c 1
 160 0 l 1
 247 412 l 1
 237 410 230 409 225 409 c 0
 179 409 146 442 146 483 c 0
 146 546 207 595 259 595 c 0
 295 595 336 565 336 519 c 0
 336 514 336 510 335 505 c 2
 255 134 l 1
 323 211 l 2
 372 265 471 367 562 419 c 1
 530 437 527 469 527 482 c 0
 527 542 583 597 645 597 c 0
 690 597 721 560 721 522 c 0
229 452 m 256
 264 452 292 483 292 512 c 0
 292 534 275 553 252 553 c 0
 227 553 188 528 188 490 c 0
 188 467 207 452 229 452 c 256
570 493 m 0
 570 468 590 451 614 451 c 256
 648 451 676 484 676 514 c 0
 676 536 659 553 636 553 c 0
 606 553 570 528 570 493 c 0
EndSplineSet
Validated: 1
EndChar

StartChar: uni0E2C
Encoding: 3628 3628 255
Width: 714
VWidth: 1507
Flags: W
HStem: -3 21G<227 254.674 530.245 564> 409 43<200.107 254.687> 555 42<212.196 293.019> 641 43<633.213 703.234> 788 43<646.919 728.842>
VStem: 150 43<457.868 535.612> 298 46<469 550.708> 583 45<689.629 770.107> 734 51<743 782.555>
LayerCount: 2
Fore
SplineSet
705 831 m 0
 754 831 785 792 785 751 c 2
 785 743 l 1
 806 759 824 782 841 811 c 1
 889 811 l 1
 858 761 822 718 779 681 c 1
 666 151 l 2
 649 77 596 10 532 -3 c 1
 494 430 l 1
 243 0 l 1
 211 0 179 15 179 48 c 0
 179 54 179 60 181 66 c 2
 255 413 l 1
 244 410 234 409 226 409 c 0
 177 409 150 449 150 485 c 0
 150 539 205 597 267 597 c 256
 312 597 344 563 344 524 c 0
 344 517 343 510 341 503 c 2
 265 143 l 1
 525 589 l 1
 534 586 539 579 541 567 c 2
 585 127 l 1
 595 135 593 142 600 158 c 1
 704 650 l 1
 697 646 687 641 662 641 c 0
 615 641 583 675 583 716 c 0
 583 779 650 831 705 831 c 0
734 746 m 0
 734 769 718 788 693 788 c 0
 662 788 628 760 628 725 c 0
 628 702 646 684 671 684 c 0
 698 684 734 713 734 746 c 0
298 514 m 0
 298 529 290 555 258 555 c 256
 225 555 193 522 193 496 c 0
 193 484 202 452 235 452 c 256
 262 452 298 476 298 514 c 0
EndSplineSet
Validated: 1
Substitution2: "Single Substitution lookup 22 subtable" uni0E2C.alt1
Substitution2: "Single Substitution lookup 22 subtable" uni0E2C.alt1
EndChar

StartChar: uni0E2D
Encoding: 3629 3629 256
Width: 590
VWidth: 1507
Flags: W
HStem: 0 60<185 429.533> 205 42<217.141 296.256> 348 42<227.158 309.011> 537 60<305.536 518.484>
VStem: 314 42<265.14 342.998> 540 69<422.191 516.777>
LayerCount: 2
Fore
SplineSet
133 422 m 1
 182 521 288 597 392 597 c 2
 487 597 l 2
 567 597 609 536 609 480 c 0
 609 471 608 463 606 454 c 2
 541 145 l 2
 524 68 441 0 366 0 c 2
 169 0 l 2
 135 0 117 28 117 53 c 0
 117 58 118 63 119 68 c 2
 167 297 l 2
 179 350 234 390 282 390 c 256
 326 390 356 355 356 317 c 0
 356 254 297 205 241 205 c 2
 228 205 l 2
 224 205 220 206 217 207 c 1
 185 60 l 1
 378 60 l 2
 421 60 466 108 473 143 c 2
 538 451 l 2
 539 457 540 463 540 469 c 0
 540 501 513 537 473 537 c 2
 378 537 l 2
 308 537 230 464 207 422 c 1
 133 422 l 1
314 309 m 0
 314 330 297 348 273 348 c 0
 247 348 209 324 209 288 c 0
 209 264 226 247 250 247 c 256
 279 247 314 271 314 309 c 0
EndSplineSet
Validated: 1
EndChar

StartChar: uni0E2E
Encoding: 3630 3630 257
Width: 581
VWidth: 1507
Flags: W
HStem: 0 60<178 424.506> 142 42<194.547 273.098> 286 43<205.747 285.782> 347 57<236.764 404.643> 535 60<265.688 508.826>
VStem: 110 78<37.5 242> 156 69<416.618 497.316> 292 43<202.246 280.325> 562 61<587.753 651>
LayerCount: 2
Fore
SplineSet
538 580 m 1xfb80
 548 602 556 627 562 651 c 1
 623 651 l 1
 612 615 599 578 582 541 c 1
 593 520 598 499 598 476 c 0
 598 465 597 454 595 443 c 2
 532 146 l 2
 514 64 433 0 359 0 c 2
 164 0 l 2
 134 0 110 23 110 52 c 0xfd80
 110 56 111 60 112 65 c 2
 148 235 l 2
 157 286 212 329 261 329 c 0
 307 329 335 291 335 254 c 0
 335 191 273 142 220 142 c 0
 210 142 205 142 196 145 c 1
 178 60 l 1
 372 60 l 2
 428 60 459 122 466 151 c 2
 529 454 l 1
 529 454 462 384 386 361 c 0
 354 352 320 347 285 347 c 0
 214 347 156 381 156 433 c 0
 156 501 242 595 330 595 c 2
 475 595 l 2
 513 595 528 587 538 580 c 1xfb80
511 508 m 1
 506 530 470 534 463 535 c 1
 321 535 l 2
 267 533 225 481 225 453 c 0xfb80
 225 433 242 404 298 404 c 0
 384 404 455 439 511 508 c 1
292 243 m 0
 292 265 276 286 252 286 c 0
 222 286 188 261 188 223 c 0xfd80
 188 202 205 184 229 184 c 256
 264 184 292 218 292 243 c 0
EndSplineSet
Validated: 1
EndChar

StartChar: uni0E2F
Encoding: 3631 3631 258
Width: 574
VWidth: 1507
Flags: W
HStem: 0 69<353 413.035> 366 53<290.9 421.934> 546 45<208.157 291.786> 578 20G<538.5 585>
VStem: 143 46<446.656 527.117> 298 44<458.878 540.338>
LayerCount: 2
Fore
SplineSet
517 452 m 1xdc
 448 383 371 368 327 366 c 0
 255 366 143 375 143 468 c 0
 143 543 218 591 265 591 c 0xec
 311 591 342 557 342 516 c 0
 342 492 332 446 289 421 c 1
 307 421 317 419 335 419 c 0
 448 419 528 516 549 598 c 1
 576 598 l 2
 594 598 609 598 620 597 c 1
 525 154 l 2
 506 66 424 -0 341 0 c 1
 353 69 l 1
 398 69 445 101 454 154 c 2
 517 452 l 1xdc
298 503 m 0
 298 524 282 546 255 546 c 256
 224 546 189 517 189 482 c 0
 189 459 207 440 234 440 c 0
 266 440 298 472 298 503 c 0
EndSplineSet
Validated: 1
EndChar

StartChar: uni0E30
Encoding: 3632 3632 259
Width: 538
VWidth: 1507
Flags: W
HStem: 51 53<235.652 360.01> 234 43<153.849 234.417> 321 53<292.02 418.32> 503 44<209.675 291.946>
VStem: 86 47<132.408 213.554> 144 46<401.741 483.68> 241 44<147.298 227.423> 298 45<416.538 497.148>
LayerCount: 2
Fore
SplineSet
343 469 m 0
 343 450 337 407 288 375 c 1
 294 374 300 374 306 374 c 2
 323 374 l 2
 412 374 458 418 472 430 c 0
 511 462 538 504 552 555 c 1
 606 555 l 1
 575 413 438 321 312 321 c 0
 164 321 144 400 144 430 c 0
 144 490 205 547 265 547 c 0
 312 547 343 511 343 469 c 0
298 460 m 0
 298 483 279 503 255 503 c 0
 222 503 190 470 190 438 c 0
 190 417 205 396 232 396 c 256
 265 396 298 431 298 460 c 0
265 104 m 2
 348 104 457 149 494 285 c 1
 549 285 l 1
 519 145 382 51 255 51 c 0
 112 51 86 127 86 159 c 0
 86 218 144 277 208 277 c 0
 254 277 285 242 285 201 c 0
 285 184 280 138 231 106 c 1
 237 105 243 104 248 104 c 2
 265 104 l 2
241 190 m 0
 241 214 222 234 197 234 c 0
 164 234 133 198 133 168 c 0
 133 145 150 127 175 127 c 256
 207 127 241 160 241 190 c 0
EndSplineSet
Validated: 1
EndChar

StartChar: uni0E31
Encoding: 3633 3633 260
Width: 0
VWidth: 1507
Flags: W
HStem: 693 55<-33.2651 85.3443> 870 42<-113.542 -34.1417>
VStem: -174 44<771.719 855.271> -29 43<784.947 865.921> 223 54<871.723 926>
LayerCount: 2
Fore
SplineSet
3 748 m 2
 138 752 200 841 223 926 c 1
 277 926 l 1
 248 792 118 693 -23 693 c 0
 -75 693 -174 714 -174 798 c 0
 -174 861 -119 912 -60 912 c 0
 -15 912 14 879 14 839 c 0
 14 817 6 772 -35 749 c 1
 -29 748 -23 748 -16 748 c 2
 3 748 l 2
-29 830 m 0
 -29 844 -37 870 -69 870 c 256
 -109 870 -130 836 -130 807 c 0
 -130 793 -122 767 -90 767 c 256
 -55 767 -29 803 -29 830 c 0
EndSplineSet
Validated: 1
Substitution2: "Single Substitution lookup 22 subtable" uni0E31.alt1
Substitution2: "Single Substitution lookup 22 subtable" uni0E31.alt1
EndChar

StartChar: uni0E32
Encoding: 3634 3634 261
Width: 526
VWidth: 1507
Flags: W
HStem: 0 21G<374 449.126> 529 68<283.745 451.442>
VStem: 470 71<413.479 510.89>
LayerCount: 2
Fore
SplineSet
421 597 m 2
 498 597 541 543 541 479 c 0
 541 468 539 457 537 446 c 2
 445 0 l 1
 374 0 l 1
 467 446 l 2
 469 453 470 459 470 465 c 0
 470 489 451 525 405 529 c 2
 356 529 l 2
 279 524 230 477 188 421 c 1
 130 443 l 1
 168 515 260 593 374 597 c 2
 421 597 l 2
EndSplineSet
Validated: 1
EndChar

StartChar: uni0E34
Encoding: 3636 3636 263
Width: 0
VWidth: 1507
Flags: W
HStem: 740 54<-288 -163.625> 874 52<-212.424 -56.8369>
VStem: 0 65<763 811.096>
LayerCount: 2
Fore
SplineSet
-378 740 m 1
 -336 824 -248 926 -106 926 c 0
 -38 926 65 868 65 686 c 1
 -106 736 -226 740 -378 740 c 1
0 763 m 1
 0 803 -52 874 -116 874 c 0
 -172 874 -250 848 -288 794 c 1
 -230 794 -111 791 0 763 c 1
EndSplineSet
Validated: 1
Substitution2: "Single Substitution lookup 22 subtable" uni0E34.alt1
Substitution2: "Single Substitution lookup 22 subtable" uni0E34.alt1
EndChar

StartChar: uni0E35
Encoding: 3637 3637 264
Width: 0
VWidth: 1507
Flags: W
HStem: 740 54<-288 -163.625> 874 52<-212.424 -56.3014>
LayerCount: 2
Fore
SplineSet
0 763 m 1
 0 803 -52 874 -116 874 c 0
 -172 874 -250 848 -288 794 c 1
 -230 794 -111 791 0 763 c 1
-378 740 m 1
 -336 824 -248 926 -106 926 c 0
 -33 926 32 865 32 809 c 1
 56 927 l 1
 116 927 l 1
 65 686 l 1
 -106 736 -226 740 -378 740 c 1
EndSplineSet
Validated: 1
Substitution2: "Single Substitution lookup 22 subtable" uni0E35.alt1
Substitution2: "Single Substitution lookup 22 subtable" uni0E35.alt1
EndChar

StartChar: uni0E36
Encoding: 3638 3638 265
Width: 0
VWidth: 1507
Flags: W
HStem: 740 54<-288 -163.625> 874 52<-212.424 -55.7653> 932 40<28.6549 106.798>
VStem: 113 41<848.544 926.894>
LayerCount: 2
Fore
SplineSet
154 901 m 0
 154 848 111 795 53 788 c 1
 62 758 65 724 65 686 c 1
 -106 736 -226 740 -378 740 c 1
 -336 824 -248 926 -106 926 c 0
 -73 926 -46 917 -23 900 c 1
 -15 917 19 972 81 972 c 0
 127 972 154 940 154 901 c 0
113 889 m 0
 113 904 105 932 72 932 c 256
 34 932 9 895 9 868 c 1
 15 862 25 847 33 832 c 1
 41 830 43 829 50 829 c 0
 82 829 113 862 113 889 c 0
0 763 m 1
 0 803 -52 874 -116 874 c 0
 -172 874 -250 848 -288 794 c 1
 -230 794 -111 791 0 763 c 1
EndSplineSet
Validated: 1
Substitution2: "Single Substitution lookup 22 subtable" uni0E36.alt1
Substitution2: "Single Substitution lookup 22 subtable" uni0E36.alt1
EndChar

StartChar: uni0E37
Encoding: 3639 3639 266
Width: 0
VWidth: 1507
Flags: W
HStem: 740 54<-288 -163.625> 874 52<-212.424 -55.3632>
LayerCount: 2
Fore
SplineSet
0 880 m 1
 10 872 33 842 33 816 c 1
 62 957 l 1
 122 957 l 1
 65 686 l 1
 -106 736 -226 740 -378 740 c 1
 -336 824 -248 926 -106 926 c 0
 -85 926 -62 922 -53 915 c 1
 -45 957 l 1
 14 957 l 1
 0 880 l 1
0 763 m 1
 0 803 -52 874 -116 874 c 0
 -172 874 -250 848 -288 794 c 1
 -230 794 -111 791 0 763 c 1
EndSplineSet
Validated: 1
Substitution2: "Single Substitution lookup 22 subtable" uni0E37.alt1
Substitution2: "Single Substitution lookup 22 subtable" uni0E37.alt1
EndChar

StartChar: uni0E38
Encoding: 3640 3640 267
Width: 0
VWidth: 1507
Flags: W
HStem: -217 39<-236.748 -188.784> -81 39<-224.352 -151.082>
VStem: -283 41<-173.824 -97.8943> -145 44<-163.255 -85.1237>
LayerCount: 2
Fore
SplineSet
-175 -42 m 0
 -147 -42 -101 -65 -101 -110 c 0
 -101 -116 -102 -122 -103 -128 c 2
 -137 -297 l 1
 -205 -297 l 1
 -188 -214 l 1
 -193 -216 -202 -217 -213 -217 c 256
 -255 -217 -283 -182 -283 -145 c 0
 -283 -94 -228 -42 -175 -42 c 0
-145 -120 m 0
 -145 -99 -162 -81 -184 -81 c 256
 -211 -81 -242 -108 -242 -138 c 0
 -242 -152 -234 -178 -205 -178 c 0
 -174 -178 -145 -153 -145 -120 c 0
EndSplineSet
Validated: 1
Substitution2: "Single Substitution lookup 21 subtable" a
Substitution2: "Single Substitution lookup 22 subtable" uni0E38.alt1
Substitution2: "Single Substitution lookup 21 subtable" a
Substitution2: "Single Substitution lookup 22 subtable" uni0E38.alt1
EndChar

StartChar: uni0E39
Encoding: 3641 3641 268
Width: 0
VWidth: 1507
Flags: W
HStem: -301 60<-253 -197> -210 38<-359.115 -314.277> -81 37<-348.234 -275.714>
VStem: -401 38<-168.191 -95.7635> -270 44<-157.748 -84.684>
LayerCount: 2
Fore
SplineSet
-300 -44 m 0
 -263 -44 -226 -68 -226 -107 c 0
 -226 -113 -227 -119 -228 -125 c 2
 -253 -241 l 1
 -197 -241 l 1
 -155 -44 l 1
 -87 -44 l 1
 -130 -241 l 2
 -139 -281 -165 -301 -210 -301 c 2
 -333 -301 l 1
 -314 -207 l 1
 -318 -209 -322 -210 -325 -210 c 2
 -335 -210 l 2
 -375 -210 -401 -181 -401 -146 c 0
 -401 -93 -352 -44 -300 -44 c 0
-327 -172 m 0
 -296 -172 -270 -142 -270 -119 c 0
 -270 -106 -278 -81 -308 -81 c 0
 -341 -81 -363 -109 -363 -138 c 0
 -363 -151 -356 -172 -327 -172 c 0
EndSplineSet
Validated: 1
Substitution2: "Single Substitution lookup 21 subtable" b
Substitution2: "Single Substitution lookup 22 subtable" uni0E39.alt1
Substitution2: "Single Substitution lookup 21 subtable" b
Substitution2: "Single Substitution lookup 22 subtable" uni0E39.alt1
EndChar

StartChar: uni0E3A
Encoding: 3642 3642 269
Width: 0
VWidth: 1507
Flags: W
HStem: -172 106<-197.202 -126.275>
VStem: -215 107<-153.547 -84.3952>
LayerCount: 2
Fore
SplineSet
-215 -129 m 0
 -215 -100 -186 -66 -151 -66 c 256
 -125 -66 -108 -87 -108 -108 c 0
 -108 -139 -138 -172 -173 -172 c 0
 -198 -172 -215 -150 -215 -129 c 0
EndSplineSet
Validated: 1
Substitution2: "Single Substitution lookup 21 subtable" c
Substitution2: "Single Substitution lookup 22 subtable" uni0E3A.alt1
Substitution2: "Single Substitution lookup 21 subtable" c
Substitution2: "Single Substitution lookup 22 subtable" uni0E3A.alt1
EndChar

StartChar: uni0E3F
Encoding: 3647 3647 270
Width: 595
VWidth: 1507
Flags: W
HStem: 0 60<151 232 308 431.657> 344 60<223 304 380 443.876> 656 60<277 371 446 484.116>
VStem: 521 72<156.013 305.764 484.484 617.395>
LayerCount: 2
Fore
SplineSet
593 244 m 0
 593 115 464 0 363 0 c 2
 295 0 l 1
 277 -80 l 1
 214 -80 l 1
 232 0 l 1
 71 0 l 1
 222 716 l 1
 383 716 l 1
 399 791 l 1
 463 791 l 1
 446 716 l 1
 533 716 592 647 592 565 c 0
 592 482 540 429 502 396 c 1
 580 365 593 282 593 244 c 0
521 230 m 0
 521 300 478 344 436 344 c 2
 368 344 l 1
 308 60 l 1
 375 60 l 2
 437 60 521 150 521 230 c 0
151 60 m 1
 244 60 l 1
 304 344 l 1
 211 344 l 1
 151 60 l 1
223 404 m 1
 317 404 l 1
 371 656 l 1
 277 656 l 1
 223 404 l 1
380 404 m 1
 458 406 520 491 520 553 c 0
 520 600 490 651 434 656 c 1
 380 404 l 1
EndSplineSet
Validated: 1
EndChar

StartChar: uni0E40
Encoding: 3648 3648 271
Width: 325
VWidth: 1507
Flags: W
HStem: -2 44<171.233 252.607> 148 40<211.303 264.229> 577 20G<226.737 298>
VStem: 121 45<46.6345 128.113> 272 45<61.101 142.065>
LayerCount: 2
Fore
SplineSet
197 -2 m 0
 148 -2 121 36 121 73 c 0
 121 80 122 87 124 95 c 2
 231 597 l 1
 298 597 l 1
 211 188 l 1
 222 188 224 191 238 191 c 0
 289 191 317 151 317 114 c 0
 317 55 253 -2 197 -2 c 0
229 148 m 256
 197 148 166 115 166 84 c 0
 166 69 174 42 207 42 c 256
 237 42 272 72 272 106 c 0
 272 127 255 148 229 148 c 256
EndSplineSet
Validated: 1
EndChar

StartChar: uni0E42
Encoding: 3650 3650 273
Width: 370
VWidth: 1507
Flags: W
HStem: -2 44<215.945 297.592> 148 40<257.387 310.028> 956 57<324.163 457.426> 1001 54<178.055 308.585>
VStem: 166 45<47.0526 128.909> 318 44<62.7892 142.303>
LayerCount: 2
Fore
SplineSet
389 956 m 0xec
 333 956 285 1001 241 1001 c 0
 195 1001 152 969 140 926 c 1
 233 911 317 876 392 823 c 1
 256 188 l 1
 267 188 270 191 283 191 c 0
 331 191 362 156 362 115 c 0
 362 54 297 -2 243 -2 c 0
 195 -2 166 33 166 73 c 0
 166 80 167 87 169 95 c 2
 317 793 l 1
 260 833 178 862 71 880 c 1
 81 932 116 1055 256 1055 c 0xdc
 310 1051 346 1013 401 1013 c 0xec
 421 1013 446 1019 502 1064 c 1
 488 1001 l 1xdc
 455 971 422 956 389 956 c 0xec
274 148 m 256
 241 148 211 116 211 83 c 0
 211 62 226 42 252 42 c 256
 284 42 318 75 318 105 c 0
 318 128 300 148 274 148 c 256
EndSplineSet
Validated: 1
EndChar

StartChar: uni0E43
Encoding: 3651 3651 274
Width: 372
VWidth: 1507
Flags: W
HStem: -2 44<218.106 298.786> 148 40<258.303 311.229> 772 47<124.399 211.346> 938 46<157.943 229.971> 1022 53<186.159 312.234>
VStem: 65 52<826.686 912.938> 167 46<46.7484 124.785> 236 49<844.16 932.45> 319 45<61.6031 142.065> 340 71<811.641 993.368>
LayerCount: 2
Fore
SplineSet
268 1075 m 0xff40
 383 1075 411 983 411 930 c 0xff40
 411 916 410 902 407 888 c 2
 258 188 l 1
 269 188 272 191 285 191 c 0
 336 191 364 152 364 113 c 0xff80
 364 58 303 -2 244 -2 c 0
 194 -2 167 36 167 73 c 0
 167 80 168 87 170 95 c 2
 338 886 l 2
 339 896 340 905 340 914 c 0
 340 962 324 1022 258 1022 c 0
 227 1022 180 1011 157 977 c 1
 173 983 191 984 200 984 c 0
 253 984 285 941 285 900 c 0
 285 828 208 772 155 772 c 0
 95 772 65 815 65 871 c 0
 65 970 164 1075 268 1075 c 0xff40
276 148 m 256
 244 148 213 115 213 84 c 0
 213 61 229 42 253 42 c 256
 283 42 319 72 319 106 c 0xff80
 319 127 302 148 276 148 c 256
191 938 m 0
 152 938 117 899 117 866 c 0
 117 843 133 819 166 819 c 0
 197 819 236 855 236 893 c 0
 236 909 227 938 191 938 c 0
EndSplineSet
Validated: 1
EndChar

StartChar: uni0E44
Encoding: 3652 3652 275
Width: 372
VWidth: 1507
Flags: W
HStem: -2 44<218.106 298.786> 148 40<258.303 311.229>
VStem: 167 46<46.7484 126.223> 319 45<61.6031 142.065>
LayerCount: 2
Fore
SplineSet
377 1066 m 1
 411 1066 432 1041 432 1012 c 0
 432 1007 431 1001 430 996 c 2
 258 188 l 1
 269 188 272 191 285 191 c 0
 336 191 364 152 364 113 c 0
 364 58 303 -2 244 -2 c 0
 194 -2 167 36 167 73 c 0
 167 80 168 87 170 95 c 2
 357 978 l 1
 190 778 l 1
 175 778 164 785 157 799 c 2
 48 1055 l 1
 104 1055 l 1
 193 846 l 1
 377 1066 l 1
276 148 m 256
 244 148 213 115 213 84 c 0
 213 61 229 42 253 42 c 256
 283 42 319 72 319 106 c 0
 319 127 302 148 276 148 c 256
EndSplineSet
Validated: 1
EndChar

StartChar: uni0E45
Encoding: 3653 3653 276
Width: 507
VWidth: 1507
Flags: W
HStem: 529 68<283.248 453.197>
VStem: 471 69<418.272 510.726>
LayerCount: 2
Fore
SplineSet
428 597 m 2
 499 597 540 538 540 477 c 0
 540 467 539 456 537 446 c 2
 389 -255 l 1
 320 -255 l 1
 469 451 l 2
 470 456 471 462 471 467 c 0
 471 500 442 529 405 529 c 2
 356 529 l 2
 284 528 220 469 188 421 c 1
 130 443 l 1
 176 526 276 597 374 597 c 2
 428 597 l 2
EndSplineSet
Validated: 1
EndChar

StartChar: uni0E46
Encoding: 3654 3654 277
Width: 538
VWidth: 1507
Flags: W
HStem: -256 68<261 321.977> 301 44<171.048 232.478> 413 47<214 237.464>
VStem: 120 49<346.422 406.231> 239 46<351.251 411.974> 481 69<394.957 491.809>
LayerCount: 2
Fore
SplineSet
436 582 m 1
 507 582 550 515 550 455 c 0
 550 446 549 436 547 427 c 2
 434 -104 l 2
 419 -183 345 -256 246 -256 c 1
 261 -188 l 1
 315 -188 359 -141 366 -104 c 2
 479 427 l 2
 480 433 481 438 481 444 c 0
 481 478 456 502 430 510 c 1
 339 419 l 1
 270 508 l 1
 245 494 226 478 214 460 c 1
 255 460 285 436 285 400 c 0
 285 351 238 301 188 301 c 256
 147 301 120 335 120 366 c 0
 120 371 121 376 122 381 c 2
 131 425 l 2
 143 484 196 528 246 556 c 2
 297 582 l 1
 357 505 l 1
 436 582 l 1
213 413 m 0
 191 413 169 392 169 375 c 0
 169 363 180 345 197 345 c 0
 222 345 239 370 239 387 c 0
 239 401 227 413 213 413 c 0
EndSplineSet
Validated: 1
EndChar

StartChar: uni0E47
Encoding: 3655 3655 278
Width: 0
VWidth: 1507
Flags: W
HStem: 698 62<-106.019 -13.8243> 838 33<-59.6579 3.50772> 913 49<-181.281 64.7941>
VStem: -279 51<766.352 871.273> -167 27<815.724 841> -105 32<764.464 823.81> 7 35<772.33 835.168> 109 46<1007.35 1051>
LayerCount: 2
Fore
SplineSet
-73 791 m 0
 -73 774 -59 760 -41 760 c 0
 -11 760 7 786 7 808 c 0
 7 824 -3 838 -24 838 c 0
 -52 838 -73 813 -73 791 c 0
-105 788 m 0
 -105 828 -62 871 -18 871 c 0
 16 871 42 850 42 818 c 0
 42 762 -14 698 -77 698 c 0
 -91 698 -149 701 -170 745 c 1
 -178 735 -199 698 -199 698 c 1
 -232 708 -279 739 -279 800 c 0
 -279 868 -222 950 -122 959 c 0
 -101 961 -80 962 -60 962 c 2
 -6 962 l 2
 74 962 101 1019 109 1051 c 1
 155 1051 l 1
 138 968 62 912 6 912 c 0
 -23 912 -30 913 -66 913 c 0
 -150 913 -228 893 -228 811 c 0
 -228 782 -217 771 -211 766 c 1
 -182 809 -167 841 -167 841 c 1
 -140 841 l 1
 -141 836 -144 818 -144 815 c 0
 -144 778 -113 741 -80 737 c 1
 -96 747 -105 770 -105 788 c 0
EndSplineSet
Validated: 1
Substitution2: "Single Substitution lookup 22 subtable" uni0E47.alt1
Substitution2: "Single Substitution lookup 22 subtable" uni0E47.alt1
EndChar

StartChar: uni0E48
Encoding: 3656 3656 279
Width: 0
VWidth: 1507
Flags: W
HStem: 1008 198<116 134>
VStem: 74 102
LayerCount: 2
Fore
SplineSet
116 1206 m 1
 176 1206 l 1
 134 1008 l 1
 74 1008 l 1
 116 1206 l 1
EndSplineSet
Validated: 1
Substitution2: "Single Substitution lookup 22 subtable" uni0E48.alt2
Substitution2: "Single Substitution lookup 22 subtable" uni0E48.alt2
EndChar

StartChar: uni0E49
Encoding: 3657 3657 280
Width: 0
VWidth: 1507
Flags: W
HStem: 974 53<98 179.166> 1173 31<83.9983 141.956>
VStem: 34 34<1099.12 1158.76> 147 35<1106.41 1169.34> 280 49<1128.27 1182>
LayerCount: 2
Fore
SplineSet
329 1182 m 1
 309 1089 206 974 92 974 c 256
 72 974 34 974 -6 1017 c 1
 23 1024 58 1036 87 1063 c 1
 60 1066 34 1089 34 1119 c 0
 34 1165 84 1204 122 1204 c 0
 156 1204 182 1180 182 1151 c 0
 182 1134 170 1090 146 1066 c 0
 130 1050 114 1037 98 1027 c 1
 203 1027 262 1112 280 1182 c 1
 329 1182 l 1
147 1141 m 0
 147 1157 134 1173 116 1173 c 0
 100 1173 68 1154 68 1126 c 0
 68 1108 82 1096 99 1096 c 0
 124 1096 147 1114 147 1141 c 0
EndSplineSet
Validated: 1
Substitution2: "Single Substitution lookup 22 subtable" uni0E49.alt2
Substitution2: "Single Substitution lookup 22 subtable" uni0E49.alt2
EndChar

StartChar: uni0E4A
Encoding: 3658 3658 281
Width: 0
VWidth: 1507
Flags: W
HStem: 989 28<-11.6546 43.391> 1088 29<15.1288 52.509> 1162 39<33.094 87>
VStem: -46 30<1020.47 1076.59> 57 31<1029.38 1083.9> 187 39<1057.51 1161.74> 280 37<1143.75 1204>
LayerCount: 2
Fore
SplineSet
211 1057 m 1
 234 1073 263 1109 280 1204 c 1
 317 1204 l 1
 290 1080 223 995 160 995 c 1
 184 1112 l 2
 186 1123 187 1133 187 1144 c 0
 187 1154 183 1160 176 1162 c 1
 115 1076 l 1
 87 1162 l 1
 52 1162 23 1143 15 1115 c 1
 19 1116 25 1117 32 1117 c 0
 62 1117 88 1093 88 1065 c 0
 88 1028 44 989 5 989 c 0
 -23 989 -46 1012 -46 1039 c 0
 -46 1043 -45 1047 -44 1052 c 2
 -35 1097 l 2
 -19 1174 53 1201 112 1201 c 1
 128 1143 l 1
 173 1201 l 1
 212 1201 226 1185 226 1149 c 0
 226 1138 225 1126 222 1112 c 2
 211 1057 l 1
-16 1045 m 0
 -16 1031 -5 1017 11 1017 c 0
 32 1017 57 1036 57 1059 c 0
 57 1076 43 1088 26 1088 c 0
 7 1088 -16 1070 -16 1045 c 0
EndSplineSet
Validated: 1
Substitution2: "Single Substitution lookup 22 subtable" uni0E4A.alt2
Substitution2: "Single Substitution lookup 22 subtable" uni0E4A.alt2
EndChar

StartChar: uni0E4B
Encoding: 3659 3659 282
Width: 0
VWidth: 1507
Flags: W
HStem: 1063 57<3 75 152 225>
VStem: -8 245
LayerCount: 2
Fore
SplineSet
237 1120 m 1
 225 1063 l 1
 140 1063 l 1
 122 977 l 1
 57 977 l 1
 75 1063 l 1
 -8 1063 l 1
 3 1120 l 1
 87 1120 l 1
 106 1204 l 1
 170 1204 l 1
 152 1120 l 1
 237 1120 l 1
EndSplineSet
Validated: 1
Substitution2: "Single Substitution lookup 22 subtable" uni0E4B.alt2
Substitution2: "Single Substitution lookup 22 subtable" uni0E4B.alt2
EndChar

StartChar: uni0E4C
Encoding: 3660 3660 283
Width: 0
VWidth: 1507
Flags: W
HStem: 936 44<61.59 146.171> 1075 54<208 332.937> 1085 44<75.4629 158.804>
VStem: 10 46<985.716 1065.97> 164 45<998.279 1074.73>
LayerCount: 2
Fore
SplineSet
259 1129 m 2xd8
 329 1129 359 1165 375 1206 c 1
 430 1206 l 1
 405 1130 341 1075 247 1075 c 2
 208 1075 l 1xd8
 209 1070 209 1065 209 1059 c 0
 209 981 144 936 89 936 c 0
 41 936 10 972 10 1015 c 0
 10 1071 69 1129 131 1129 c 2xb8
 259 1129 l 2xd8
99 980 m 256
 138 980 164 1016 164 1043 c 0
 164 1064 149 1085 122 1085 c 256xb8
 93 1085 56 1057 56 1023 c 0
 56 999 73 980 99 980 c 256
EndSplineSet
Validated: 1
Substitution2: "Single Substitution lookup 22 subtable" uni0E4C.alt2
Substitution2: "Single Substitution lookup 22 subtable" uni0E4C.alt2
EndChar

StartChar: uni0E4D
Encoding: 3661 3661 284
Width: 0
VWidth: 1507
Flags: W
HStem: 715 43<-79.6626 -0.0655518> 864 43<-67.8185 13.4277>
VStem: -132 45<763.956 845.296> 19 46<776.278 858.694>
LayerCount: 2
Fore
SplineSet
65 831 m 0
 65 773 5 715 -54 715 c 0
 -102 715 -132 753 -132 793 c 0
 -132 852 -73 907 -14 907 c 256
 34 907 65 872 65 831 c 0
19 823 m 0
 19 845 2 864 -23 864 c 256
 -58 864 -87 828 -87 802 c 0
 -87 781 -70 758 -45 758 c 0
 -10 758 19 792 19 823 c 0
EndSplineSet
Validated: 1
Substitution2: "Single Substitution lookup 22 subtable" uni0E4D.alt1
Substitution2: "Single Substitution lookup 22 subtable" uni0E4D.alt1
EndChar

StartChar: uni0E4E
Encoding: 3662 3662 285
Width: 0
VWidth: 1507
Flags: W
HStem: 702 50<-49.4668 32.1616> 852 46<-38.2927 11 58.9823 116> 993 49<76.1772 255>
VStem: -104 50<756.707 835.47> 3 52<902.689 973.318>
LayerCount: 2
Fore
SplineSet
55 936 m 0
 55 916 73 898 96 898 c 2
 125 898 l 1
 116 852 l 1
 6 852 l 2
 -18 852 -54 828 -54 792 c 0
 -54 771 -37 752 -14 752 c 0
 -7 752 4 755 23 769 c 1
 54 733 l 1
 29 712 3 702 -24 702 c 256
 -73 702 -104 737 -104 780 c 0
 -104 831 -60 900 2 900 c 2
 11 900 l 1
 6 906 3 913 3 922 c 0
 3 981 59 1042 127 1042 c 2
 264 1042 l 1
 255 993 l 1
 124 993 l 2
 91 993 55 962 55 936 c 0
EndSplineSet
Validated: 1
Substitution2: "Single Substitution lookup 22 subtable" uni0E4E.alt1
Substitution2: "Single Substitution lookup 22 subtable" uni0E4E.alt1
EndChar

StartChar: uni0E4F
Encoding: 3663 3663 286
Width: 636
VWidth: 1507
Flags: W
HStem: -12 60<237.255 424.145> 122 53<298.201 423.934> 380 53<331.483 457.412> 510 60<331.99 513.355>
VStem: 87 60<140.213 323.157> 219 55<199.338 322.764> 483 54<233.495 353.642> 608 60<228.901 412.18>
LayerCount: 2
Fore
SplineSet
87 218 m 0
 87 393 258 570 440 570 c 0
 582 570 668 458 668 336 c 0
 668 155 488 -12 317 -12 c 256
 176 -12 87 94 87 218 c 0
608 322 m 0
 608 424 535 510 427 510 c 0
 276 510 147 361 147 230 c 0
 147 140 207 48 329 48 c 256
 474 48 608 189 608 322 c 0
219 244 m 0
 219 340 311 433 412 433 c 0
 493 433 537 374 537 310 c 0
 537 221 451 122 345 122 c 256
 273 122 219 171 219 244 c 0
399 380 m 256
 337 380 274 326 274 255 c 0
 274 212 305 175 356 175 c 256
 419 175 483 232 483 296 c 0
 483 342 452 380 399 380 c 256
EndSplineSet
Validated: 1
EndChar

StartChar: uni0E50
Encoding: 3664 3664 287
Width: 613
VWidth: 1507
Flags: W
HStem: -12 69<232.48 408.272> 458 71<311.894 491.055>
VStem: 84 71<132.394 303.615> 566 72<210.012 383.273>
LayerCount: 2
Fore
SplineSet
638 313 m 0
 638 154 476 -12 303 -12 c 0
 166 -12 84 92 84 203 c 0
 84 368 250 529 418 529 c 0
 558 529 638 421 638 313 c 0
402 458 m 256
 258 458 155 328 155 214 c 0
 155 120 227 57 318 57 c 256
 446 57 566 176 566 302 c 0
 566 383 511 458 402 458 c 256
EndSplineSet
Validated: 1
EndChar

StartChar: uni0E51
Encoding: 3665 3665 288
Width: 589
VWidth: 1507
Flags: W
HStem: -56 62<272.871 323.49> 106 72<225.628 336.422> 286 44<286.458 368.997> 464 68<298.256 471.752>
VStem: 94 72<209.674 347.87> 221 46<183.344 266.453> 375 44<198.339 280.553> 546 69<218.589 387.24>
LayerCount: 2
Fore
SplineSet
409 532 m 256
 527 532 615 432 615 321 c 0
 615 170 462 -18 274 -56 c 1
 264 6 l 1
 429 45 546 197 546 306 c 0
 546 386 489 464 395 464 c 256
 273 464 166 371 166 272 c 0
 166 245 178 198 229 181 c 1
 223 187 221 197 221 213 c 0
 221 267 270 330 341 330 c 0
 391 330 419 292 419 255 c 0
 419 198 361 106 253 106 c 0
 165 106 94 167 94 259 c 0
 94 397 248 532 409 532 c 256
332 286 m 256
 299 286 267 252 267 222 c 0
 267 199 284 178 309 178 c 256
 341 178 375 211 375 242 c 0
 375 265 358 286 332 286 c 256
EndSplineSet
Validated: 1
EndChar

StartChar: uni0E52
Encoding: 3666 3666 289
Width: 764
VWidth: 1507
Flags: W
HStem: 0 68<206.35 591.842> 188 41<316.23 396.401> 335 45<354.635 413.286> 457 68<395.438 516.443>
VStem: 94 71<109.488 262.164> 189 72<526.068 745.634> 263 45<236 316.249> 417 46<248.357 330.316> 714 70<336.833 428.981>
LayerCount: 2
Fore
SplineSet
189 657 m 0
 189 721 165 759 130 791 c 1
 181 846 l 1
 226 808 261 764 261 681 c 0
 261 643 252 585 232 490 c 2
 167 185 l 2
 166 179 165 174 165 168 c 0
 165 119 208 68 268 68 c 2
 519 68 l 2
 585 68 661 125 674 182 c 2
 713 368 l 2
 714 371 714 375 714 378 c 0
 714 402 691 448 659 448 c 1
 559 366 l 1
 551 385 523 457 470 457 c 0
 403 457 363 417 354 377 c 1
 358 379 368 380 384 380 c 0
 433 380 463 342 463 304 c 0
 463 240 393 188 344 188 c 0
 296 188 263 230 263 269 c 0
 263 290 279 344 283 368 c 0
 305 463 387 525 484 525 c 0
 504 525 555 519 586 466 c 1
 600 480 650 522 650 522 c 1
 745 516 784 452 784 398 c 0
 784 388 783 378 781 368 c 2
 742 181 l 2
 719 73 597 -0 506 0 c 2
 255 0 l 2
 164 0 94 72 94 149 c 0
 94 160 96 170 98 181 c 2
 164 490 l 2
 184 589 189 623 189 657 c 0
375 335 m 256
 338 335 308 301 308 275 c 0
 308 252 326 229 353 229 c 256
 385 229 417 260 417 297 c 0
 417 320 398 335 375 335 c 256
EndSplineSet
Validated: 1
EndChar

StartChar: uni0E53
Encoding: 3667 3667 290
Width: 694
VWidth: 1507
Flags: W
HStem: -5 50<170.977 253.309> 151 43<184.465 266.987> 455 68<571 631.006>
VStem: 80 69<114.814 291.596> 272 53<63.3015 145.925> 648 67<337.111 439.549>
LayerCount: 2
Fore
SplineSet
197 -5 m 0
 174 -5 80 22 80 174 c 0
 80 377 230 523 378 523 c 1
 425 335 l 1
 550 523 l 1
 609 523 l 2
 680 523 715 457 715 399 c 0
 715 388 714 377 711 365 c 2
 635 0 l 1
 567 0 l 1
 645 369 l 2
 647 376 648 382 648 389 c 0
 648 421 625 455 588 455 c 2
 571 455 l 1
 396 199 l 1
 326 448 l 1
 230 443 149 283 149 200 c 0
 149 184 152 171 157 160 c 1
 197 192 226 194 240 194 c 0
 286 194 325 163 325 118 c 0
 325 59 262 -5 197 -5 c 0
165 87 m 0
 165 66 182 45 208 45 c 256
 239 45 272 75 272 110 c 0
 272 130 258 151 231 151 c 256
 200 151 165 122 165 87 c 0
EndSplineSet
Validated: 1
EndChar

StartChar: uni0E54
Encoding: 3668 3668 291
Width: 711
VWidth: 1507
Flags: W
HStem: -15 65<646.772 669.554> -6 68<231.203 486.48> 9 63<395 503.988> 288 44<427.939 511.329> 446 70<298.391 660.989>
VStem: 83 69<139.096 301.149> 364 45<187.15 268.69> 517 44<201.125 281.71> 847 63<732.581 793>
LayerCount: 2
Fore
SplineSet
564 516 m 0x5f80
 738 516 817 682 847 794 c 1
 910 793 l 1
 873 623 748 446 549 446 c 0
 487 446 455 448 393 448 c 0
 258 448 152 321 152 214 c 0
 152 142 207 62 320 62 c 0x5f80
 350 62 368 64 395 67 c 2
 440 72 l 2x3f80
 458 73 479 74 505 74 c 1
 433 109 364 153 364 215 c 0
 364 267 417 332 482 332 c 0
 526 332 561 299 561 257 c 0
 561 217 537 181 502 158 c 1
 525 129 649 65 699 50 c 1
 666 -15 l 1x9f80
 592 6 512 9 473 9 c 0x3f80
 390 9 398 -6 306 -6 c 0
 175 -6 83 74 83 194 c 0
 83 347 213 514 407 514 c 0
 470 514 501 516 564 516 c 0x5f80
473 288 m 256
 440 288 409 255 409 223 c 0
 409 201 426 182 451 182 c 256
 481 182 517 212 517 245 c 0
 517 268 499 288 473 288 c 256
EndSplineSet
Validated: 1
EndChar

StartChar: uni0E55
Encoding: 3669 3669 292
Width: 711
VWidth: 1507
Flags: W
HStem: -15 65<646.772 669.554> -6 68<230.815 486.434> 9 63<395 501.514> 288 44<428.274 511.466> 446 77<472.442 630.064> 448 66<300.922 509.203> 629 43<562.122 643.587>
VStem: 83 69<138.875 299.679> 363 46<186.89 269.134> 498 45<528.735 610.237> 517 43<201.85 281.769> 649 46<546.356 624.206> 847 62<734.298 793>
LayerCount: 2
Fore
SplineSet
617 672 m 256x57d8
 668 672 695 634 695 596 c 0
 695 579 688 556 680 546 c 1
 773 595 822 701 847 794 c 1
 909 793 l 1
 862 576 709 446 549 446 c 0x1bd8
 487 446 455 448 393 448 c 0
 264 448 152 324 152 214 c 0
 152 141 209 62 318 62 c 0x57d8
 349 62 367 64 395 67 c 2
 440 72 l 2x33d8
 458 73 479 74 505 74 c 1
 438 106 363 152 363 215 c 0
 363 269 419 332 482 332 c 0
 527 332 560 298 560 258 c 0
 560 241 555 191 502 158 c 1
 525 129 649 65 699 50 c 1
 666 -15 l 1x93b8
 620 -2 550 9 473 9 c 0x33b8
 388 9 397 -6 304 -6 c 0
 175 -6 83 74 83 194 c 0
 83 354 221 514 407 514 c 2
 460 514 l 2
 476 514 493 515 510 516 c 1
 502 530 498 544 498 559 c 0
 498 616 556 672 617 672 c 256x57d8
473 288 m 256
 440 288 409 255 409 223 c 0
 409 201 426 182 451 182 c 256
 481 182 517 212 517 245 c 0x13b8
 517 268 499 288 473 288 c 256
649 588 m 0
 649 608 635 629 607 629 c 256
 572 629 543 593 543 567 c 0
 543 546 560 523 585 523 c 256x1bd8
 616 523 649 554 649 588 c 0
EndSplineSet
Validated: 1
EndChar

StartChar: uni0E56
Encoding: 3670 3670 293
Width: 630
VWidth: 1507
Flags: W
HStem: -9 66<243.391 424.109> 220 47<187.942 270.866> 469 66<267.901 494.072>
VStem: 118 51<123.321 201.798> 151 71<499 635.859> 275 45<135.413 215.125> 588 66<217.344 387.143>
LayerCount: 2
Fore
SplineSet
151 492 m 0xee
 151 584 126 693 51 773 c 1
 109 814 l 1
 177 733 222 644 222 499 c 1xee
 325 533 350 535 393 535 c 0
 593 535 654 416 654 316 c 0
 654 134 470 -9 326 -9 c 0
 143 -9 118 74 118 129 c 0xf6
 118 227 193 267 241 267 c 0
 291 267 320 228 320 190 c 0
 320 133 275 93 241 78 c 1
 258 68 298 57 344 57 c 0
 432 57 588 157 588 307 c 0
 588 418 496 469 380 469 c 0
 333 469 215 444 146 410 c 1
 150 438 151 466 151 492 c 0xee
234 220 m 256
 202 220 169 190 169 159 c 0xf6
 169 136 186 118 211 118 c 256
 242 118 275 146 275 181 c 0
 275 204 257 220 234 220 c 256
EndSplineSet
Validated: 1
EndChar

StartChar: uni0E57
Encoding: 3671 3671 294
Width: 871
VWidth: 1507
Flags: W
HStem: -5 50<170.977 253.309> 151 43<184.465 266.987> 448 75<282.179 326> 455 68<571 631.006>
VStem: 80 71<114.698 298.539> 272 53<63.3015 145.925> 648 67<337.583 439.549>
LayerCount: 2
Fore
SplineSet
197 -5 m 0xee
 174 -5 80 22 80 174 c 0
 80 377 230 523 378 523 c 1
 425 335 l 1
 550 523 l 1
 609 523 l 2
 680 523 715 457 715 399 c 0
 715 388 714 377 711 365 c 2
 656 99 l 1
 742 188 817 313 846 457 c 2
 910 764 l 1
 980 764 l 1
 915 457 l 2
 880 294 786 106 618 -8 c 1
 564 -8 l 1
 645 369 l 2
 647 376 648 382 648 389 c 0
 648 421 625 455 588 455 c 2
 571 455 l 1xde
 396 199 l 1
 326 448 l 1
 288 448 151 363 151 194 c 0
 151 177 153 166 157 160 c 1
 197 192 226 194 240 194 c 0
 286 194 325 163 325 118 c 0
 325 59 262 -5 197 -5 c 0xee
165 87 m 0
 165 66 182 45 208 45 c 256
 239 45 272 75 272 110 c 0
 272 130 258 151 231 151 c 256
 200 151 165 122 165 87 c 0
EndSplineSet
Validated: 1
EndChar

StartChar: uni0E58
Encoding: 3672 3672 295
Width: 725
VWidth: 1507
Flags: W
HStem: -9 68<431.262 566.31> 136 46<588.522 621> 288 44<602.259 685.503> 449 67<299.922 627.825>
VStem: 82 69<125.413 301.079> 538 46<187.053 269.637> 691 45<200.851 281.943> 858 63<742.611 796>
LayerCount: 2
Fore
SplineSet
335 271 m 1
 362 179 398 59 493 59 c 0
 557 59 603 105 621 136 c 1
 570 136 538 172 538 214 c 0
 538 272 596 332 657 332 c 0
 700 332 736 298 736 258 c 0
 736 197 653 -9 478 -9 c 0
 377 -9 329 59 309 125 c 1
 228 -11 l 1
 152 18 82 83 82 190 c 0
 82 354 220 516 405 516 c 2
 487 516 l 2
 501 516 515 516 528 517 c 0
 686 517 823 655 858 796 c 1
 921 796 l 1
 879 602 693 449 514 449 c 2
 392 449 l 2
 263 449 151 329 151 214 c 0
 151 157 178 94 213 86 c 1
 335 271 l 1
648 288 m 256
 617 288 584 258 584 223 c 0
 584 203 598 182 626 182 c 256
 657 182 691 211 691 246 c 0
 691 267 674 288 648 288 c 256
EndSplineSet
Validated: 1
EndChar

StartChar: uni0E59
Encoding: 3673 3673 296
Width: 723
VWidth: 1507
Flags: W
HStem: -8 50<232.304 313.38> 148 43<243.91 326.619> 323 67<642.062 725.763> 422 68<247.979 388.299> 457 66<480.854 573.136>
VStem: 82 69<116.502 297.615> 333 47<62.2101 142.112> 396 65<277.578 408.078>
LayerCount: 2
Fore
SplineSet
333 105 m 0xe7
 333 126 318 148 289 148 c 256
 257 148 225 116 225 85 c 0
 225 61 242 42 267 42 c 256
 300 42 333 75 333 105 c 0xe7
306 422 m 0xf7
 235 422 151 315 151 216 c 0
 151 204 153 128 182 106 c 1
 192 147 238 191 297 191 c 256
 344 191 380 161 380 116 c 0
 380 56 321 -8 255 -8 c 0
 142 -8 82 90 82 189 c 0
 82 332 201 490 318 490 c 0xf7
 368 490 377 486 428 464 c 1
 484 510 511 523 558 523 c 0
 665 523 652 390 687 390 c 0
 746 390 802 541 819 624 c 2
 853 784 l 1
 923 784 l 1
 888 624 l 2
 848 433 757 323 669 323 c 0
 617 323 605 374 574 436 c 0
 568 450 557 457 544 457 c 0xef
 510 457 482 443 461 416 c 1
 461 288 501 200 576 148 c 1
 529 96 l 1
 437 156 400 247 396 395 c 1
 368 416 342 422 306 422 c 0xf7
EndSplineSet
Validated: 1
EndChar

StartChar: uni0E5A
Encoding: 3674 3674 297
Width: 827
VWidth: 1507
Flags: W
HStem: 0 21G<454 529.153 681 756.247> 366 53<321.884 452.274 614 679.969> 546 45<239.709 323.882> 578 20G<568 651 794 879>
VStem: 175 46<445.08 527.337> 330 44<459.241 540.338>
LayerCount: 2
Fore
SplineSet
366 419 m 0xec
 469 419 556 502 580 598 c 1
 651 598 l 1
 614 419 l 1
 699 430 780 495 808 598 c 1
 879 598 l 1xdc
 752 0 l 1
 681 0 l 1
 776 452 l 1
 731 407 674 375 601 366 c 1
 525 0 l 1
 454 0 l 1
 549 452 l 1
 480 383 403 368 359 366 c 0
 282 366 268 371 249 380 c 0
 220 390 175 415 175 468 c 0
 175 544 249 591 297 591 c 0
 343 591 374 557 374 516 c 0
 374 492 364 446 321 421 c 1
 339 421 348 419 366 419 c 0xec
330 503 m 0
 330 524 315 546 286 546 c 256xec
 255 546 221 517 221 482 c 0
 221 461 236 440 265 440 c 0
 299 440 330 474 330 503 c 0
EndSplineSet
Validated: 1
EndChar

StartChar: uni0E5B
Encoding: 3675 3675 298
Width: 1050
VWidth: 1507
Flags: W
HStem: -32 56<223.388 400.202> 106 66<275.346 394.619> 226 15<1082.68 1097.96> 288 38<294.885 371.529> 463 63<296.85 467.824>
VStem: 74 64<111.392 303.088> 229 38<181.966 260.152> 381 42<194.206 281.351> 515 64<256.021 416.429>
LayerCount: 2
Fore
SplineSet
932 160 m 0
 917 160 904 176 894 258 c 1
 877 188 843 146 828 146 c 1
 819 150 809 157 802 209 c 2
 796 250 l 2
 795 262 793 271 790 276 c 1
 764 190 724 130 707 130 c 0
 692 130 682 225 674 255 c 1
 629 114 458 -32 291 -32 c 0
 152 -32 74 64 74 191 c 0
 74 408 274 526 398 526 c 256
 504 526 579 466 579 354 c 0
 579 191 441 106 338 106 c 0
 255 106 229 161 229 202 c 0
 229 272 288 326 345 326 c 0
 407 326 423 276 423 250 c 0
 423 216 399 182 393 175 c 1
 450 192 515 243 515 344 c 0
 515 398 489 463 383 463 c 0
 286 463 138 370 138 207 c 0
 138 135 173 24 312 24 c 0
 458 24 610 179 635 294 c 1
 638 316 l 2
 642 342 647 383 647 406 c 2
 647 416 l 1
 705 383 729 264 729 224 c 0
 729 219 728 215 728 211 c 1
 745 237 763 306 763 370 c 2
 763 381 l 1
 825 347 828 276 843 217 c 1
 853 241 864 305 864 353 c 1
 926 328 933 251 942 211 c 1
 953 236 960 279 960 312 c 1
 1012 267 1048 251 1125 241 c 1
 1111 236 1079 226 1049 226 c 0
 1024 226 1000 235 984 244 c 1
 979 223 958 160 932 160 c 0
314 172 m 0
 347 172 381 206 381 240 c 0
 381 255 372 288 338 288 c 0
 306 288 267 253 267 219 c 0
 267 195 287 172 314 172 c 0
EndSplineSet
Validated: 1
EndChar

StartChar: zerowidthnonjoiner
Encoding: 8204 8204 299
Width: 0
VWidth: 1507
Flags: W
LayerCount: 2
Back
SplineSet
-71 -464 m 1
 -124 -464 l 1
 51 362 l 1
 104 362 l 1
 -71 -464 l 1
EndSplineSet
EndChar

StartChar: zerowidthjoiner
Encoding: 8205 8205 300
Width: 0
VWidth: 1507
Flags: W
LayerCount: 2
Back
SplineSet
-71 -464 m 1
 -124 -464 l 1
 21 226 l 1
 -14 194 l 1
 -35 220 l 1
 33 277 l 1
 -11 336 l 1
 21 362 l 1
 63 304 l 1
 134 362 l 1
 155 336 l 1
 86 277 l 1
 131 220 l 1
 98 194 l 1
 74 226 l 1
 -71 -464 l 1
EndSplineSet
EndChar

StartChar: lefttorightmark
Encoding: 8206 8206 301
Width: 0
VWidth: 1507
Flags: W
LayerCount: 2
Back
SplineSet
-71 -464 m 1
 -124 -464 l 1
 39 308 l 1
 241 308 l 1
 222 335 l 1
 250 360 l 1
 314 280 l 1
 217 200 l 1
 199 228 l 1
 229 253 l 1
 80 253 l 1
 -71 -464 l 1
EndSplineSet
EndChar

StartChar: righttoleftmark
Encoding: 8207 8207 302
Width: 0
VWidth: 1507
Flags: W
LayerCount: 2
Back
SplineSet
-71 -464 m 1
 -124 -464 l 1
 27 253 l 1
 -121 253 l 1
 -99 228 l 1
 -130 200 l 1
 -193 280 l 1
 -96 360 l 1
 -77 335 l 1
 -109 308 l 1
 92 308 l 1
 -71 -464 l 1
EndSplineSet
EndChar

StartChar: endash
Encoding: 8211 8211 303
Width: 542
VWidth: 1507
Flags: W
HStem: 249 60<96 562>
LayerCount: 2
Fore
SplineSet
84 249 m 1
 96 309 l 1
 574 309 l 1
 562 249 l 1
 84 249 l 1
EndSplineSet
Validated: 1
EndChar

StartChar: emdash
Encoding: 8212 8212 304
Width: 1085
VWidth: 1507
Flags: W
HStem: 249 60<98 1100>
LayerCount: 2
Fore
SplineSet
86 249 m 1
 98 309 l 1
 1112 309 l 1
 1100 249 l 1
 86 249 l 1
EndSplineSet
Validated: 1
EndChar

StartChar: quoteleft
Encoding: 8216 8216 305
Width: 171
VWidth: 1507
Flags: W
HStem: 556 214
VStem: 133 175
LayerCount: 2
Fore
SplineSet
194 556 m 1
 133 556 l 1
 142 597 l 2
 166 716 253 749 283 770 c 1
 308 722 l 1
 266 689 221 671 203 597 c 2
 194 556 l 1
EndSplineSet
Validated: 1
EndChar

StartChar: quoteright
Encoding: 8217 8217 306
Width: 171
VWidth: 1507
Flags: W
HStem: 556 214
VStem: 143 175
LayerCount: 2
Fore
SplineSet
256 770 m 1
 318 770 l 1
 309 730 l 2
 292 646 240 599 202 577 c 2
 167 556 l 1
 143 604 l 1
 179 633 231 653 247 730 c 2
 256 770 l 1
EndSplineSet
Validated: 1
EndChar

StartChar: quotesinglbase
Encoding: 8218 8218 307
Width: 180
VWidth: 1507
Flags: W
HStem: -121 214
VStem: 6 176
LayerCount: 2
Fore
SplineSet
121 93 m 1
 182 93 l 1
 173 53 l 2
 169 32 153 -46 66 -100 c 2
 30 -121 l 1
 6 -72 l 1
 54 -38 97 -17 112 53 c 2
 121 93 l 1
EndSplineSet
Validated: 1
EndChar

StartChar: quotedblleft
Encoding: 8220 8220 308
Width: 396
VWidth: 1507
Flags: W
HStem: 556 214
LayerCount: 2
Fore
SplineSet
368 556 m 1
 306 556 l 1
 315 597 l 2
 339 715 425 750 457 770 c 1
 481 722 l 1
 437 687 392 669 377 597 c 2
 368 556 l 1
194 556 m 1
 133 556 l 1
 142 597 l 2
 166 716 253 749 283 770 c 1
 308 722 l 1
 266 689 221 671 203 597 c 2
 194 556 l 1
EndSplineSet
Validated: 1
EndChar

StartChar: quotedblright
Encoding: 8221 8221 309
Width: 396
VWidth: 1507
Flags: W
HStem: 556 214
LayerCount: 2
Fore
SplineSet
256 770 m 1
 318 770 l 1
 309 730 l 2
 292 646 240 599 202 577 c 2
 167 556 l 1
 143 604 l 1
 179 633 231 653 247 730 c 2
 256 770 l 1
430 770 m 1
 491 770 l 1
 482 730 l 2
 465 647 415 600 376 577 c 2
 341 556 l 1
 317 604 l 1
 347 629 405 651 421 730 c 2
 430 770 l 1
EndSplineSet
Validated: 1
EndChar

StartChar: quotedblbase
Encoding: 8222 8222 310
Width: 351
VWidth: 1507
Flags: W
HStem: -121 214
LayerCount: 2
Fore
SplineSet
121 93 m 1
 182 93 l 1
 173 53 l 2
 169 32 153 -46 66 -100 c 2
 30 -121 l 1
 6 -72 l 1
 54 -38 97 -17 112 53 c 2
 121 93 l 1
294 93 m 1
 356 93 l 1
 347 53 l 2
 330 -30 284 -75 203 -121 c 1
 179 -72 l 1
 224 -40 269 -23 285 53 c 2
 294 93 l 1
EndSplineSet
Validated: 1
EndChar

StartChar: dagger
Encoding: 8224 8224 311
Width: 595
VWidth: 1507
Flags: W
HStem: 405 61<163 354 436 621> 696 20G<414.76 488>
LayerCount: 2
Fore
SplineSet
354 405 m 1
 151 405 l 1
 163 466 l 1
 366 466 l 1
 419 716 l 1
 488 716 l 1
 436 466 l 1
 633 466 l 1
 621 405 l 1
 424 405 l 1
 311 -121 l 1
 267 -167 l 1
 241 -121 l 1
 354 405 l 1
EndSplineSet
Validated: 1
EndChar

StartChar: daggerdbl
Encoding: 8225 8225 312
Width: 593
VWidth: 1507
Flags: W
HStem: 124 60<103 294 375 561> 405 61<163 354 436 621> 696 20G<414.76 488>
LayerCount: 2
Fore
SplineSet
354 405 m 1
 151 405 l 1
 163 466 l 1
 366 466 l 1
 419 716 l 1
 488 716 l 1
 436 466 l 1
 633 466 l 1
 621 405 l 1
 424 405 l 1
 375 184 l 1
 573 184 l 1
 561 124 l 1
 363 124 l 1
 311 -121 l 1
 267 -167 l 1
 241 -121 l 1
 294 124 l 1
 90 124 l 1
 103 184 l 1
 306 184 l 1
 354 405 l 1
EndSplineSet
Validated: 1
EndChar

StartChar: bullet
Encoding: 8226 8226 313
Width: 526
VWidth: 1507
Flags: W
LayerCount: 2
Fore
SplineSet
130 164 m 1
 211 549 l 1
 528 356 l 1
 130 164 l 1
EndSplineSet
Validated: 1
EndChar

StartChar: ellipsis
Encoding: 8230 8230 314
Width: 1132
VWidth: 1507
Flags: W
HStem: -8 106<157.186 229.996 537.186 610.002 914.193 987.031>
VStem: 140 108<9.9165 81.0802> 520 108<10.2746 80.959> 897 108<10.5239 80.5925>
LayerCount: 2
Fore
SplineSet
140 32 m 0
 140 66 167 98 205 98 c 256
 231 98 248 82 248 58 c 0
 248 20 216 -8 182 -8 c 256
 149 -8 140 18 140 32 c 0
520 32 m 0
 520 66 547 98 585 98 c 256
 609 98 628 82 628 57 c 0
 628 22 597 -8 562 -8 c 256
 529 -8 520 18 520 32 c 0
897 34 m 0
 897 64 923 98 962 98 c 256
 988 98 1005 81 1005 56 c 0
 1005 23 974 -8 939 -8 c 256
 905 -8 897 17 897 34 c 0
EndSplineSet
Validated: 1
EndChar

StartChar: perthousand
Encoding: 8240 8240 315
Width: 1132
VWidth: 1507
Flags: W
HStem: 18 63<560.98 662.93 875.98 977.93> 304 62<610.128 714.219 925.128 1029.22> 329 63<195.192 299.737> 615 63<246.999 348.232>
VStem: 128 64<397.318 459.4> 353 65<549.419 611.03> 491 66<84.8086 146.452> 717 64<237.433 300.024> 806 66<84.8086 146.452> 1032 64<237.433 300.024>
LayerCount: 2
Fore
SplineSet
418 607 m 0xbfc0
 418 598 417 589 415 579 c 2
 387 448 l 2
 374 386 312 329 246 329 c 2
 213 329 l 2
 145 329 128 369 128 402 c 0
 128 411 129 420 131 430 c 2
 158 556 l 2
 172 622 240 678 295 678 c 2
 332 678 l 2
 406 678 418 635 418 607 c 0xbfc0
216 544 m 2
 194 445 l 2
 193 439 192 433 192 428 c 0
 192 404 208 392 240 392 c 2
 246 392 l 2
 283 392 321 424 329 460 c 2
 351 564 l 2
 352 570 353 575 353 580 c 0
 353 603 337 615 306 615 c 2
 300 615 l 2
 250 615 221 568 216 544 c 2
781 296 m 0
 781 287 780 278 778 268 c 2
 751 137 l 2
 738 75 675 18 609 18 c 2
 576 18 l 2
 508 18 491 58 491 93 c 0
 491 100 492 109 494 118 c 2
 522 244 l 2
 536 308 602 366 659 366 c 2
 695 366 l 2xdfc0
 769 366 781 324 781 296 c 0
145 -26 m 1
 695 739 l 1
 761 739 l 1
 214 -26 l 1
 145 -26 l 1
579 234 m 2
 558 134 l 2
 557 129 557 124 557 120 c 0
 557 94 572 81 603 81 c 2
 609 81 l 2
 647 81 685 113 693 149 c 2
 715 253 l 2
 716 259 717 264 717 269 c 0
 717 292 701 304 669 304 c 2
 663 304 l 2
 613 304 584 257 579 234 c 2
1096 296 m 0
 1096 287 1095 278 1093 268 c 2
 1066 137 l 2
 1053 75 990 18 924 18 c 2
 891 18 l 2
 823 18 806 58 806 93 c 0
 806 100 807 109 809 118 c 2
 837 244 l 2
 851 308 917 366 974 366 c 2
 1010 366 l 2
 1084 366 1096 324 1096 296 c 0
894 234 m 2
 873 134 l 2
 872 129 872 124 872 120 c 0
 872 94 887 81 918 81 c 2
 924 81 l 2
 962 81 1000 113 1008 149 c 2
 1030 253 l 2
 1031 259 1032 264 1032 269 c 0
 1032 292 1016 304 984 304 c 2
 978 304 l 2
 928 304 899 257 894 234 c 2
EndSplineSet
Validated: 1
EndChar

StartChar: guilsinglleft
Encoding: 8249 8249 318
Width: 328
VWidth: 1507
Flags: W
VStem: 87 328
LayerCount: 2
Fore
SplineSet
415 540 m 1
 396 455 l 1
 175 274 l 1
 320 93 l 1
 301 9 l 1
 87 274 l 1
 415 540 l 1
EndSplineSet
Validated: 1
EndChar

StartChar: guilsinglright
Encoding: 8250 8250 319
Width: 328
VWidth: 1507
Flags: W
VStem: 32 325
LayerCount: 2
Fore
SplineSet
357 274 m 1
 32 9 l 1
 50 93 l 1
 270 274 l 1
 127 455 l 1
 145 540 l 1
 357 274 l 1
EndSplineSet
Validated: 1
EndChar

StartChar: fraction
Encoding: 8260 8260 320
Width: 159
VWidth: 1507
Flags: W
LayerCount: 2
Fore
SplineSet
-146 -26 m 1
 402 739 l 1
 449 739 l 1
 -96 -26 l 1
 -146 -26 l 1
EndSplineSet
Validated: 1
EndChar

StartChar: Euro
Encoding: 8364 8364 321
Width: 532
VWidth: 1507
Flags: W
HStem: 0 68<257.422 502> 247 70<90 139 222 475> 399 70<124 172 258 508> 648 68<414.252 636>
VStem: 130 69<127.673 246.797>
LayerCount: 2
Fore
SplineSet
188 469 m 1
 246 630 399 716 523 716 c 2
 650 716 l 1
 636 648 l 1
 510 648 l 2
 396 648 291 563 258 469 c 1
 523 469 l 1
 508 399 l 1
 240 399 l 1
 222 317 l 1
 490 317 l 1
 475 247 l 1
 207 247 l 1
 203 234 l 2
 201 222 199 211 199 200 c 0
 199 135 244 68 335 68 c 2
 516 68 l 1
 502 0 l 1
 321 0 l 2
 196 0 130 91 130 184 c 0
 130 200 132 217 136 234 c 2
 139 247 l 1
 75 247 l 1
 90 317 l 1
 154 317 l 1
 172 399 l 1
 109 399 l 1
 124 469 l 1
 188 469 l 1
EndSplineSet
Validated: 1
EndChar

StartChar: uni2113
Encoding: 8467 8467 322
Width: 321
VWidth: 1507
Flags: W
HStem: -9 66<160 265.648> 641 67<313.541 369.683>
VStem: 128 70<55 131.467> 371 68<565.6 667.5>
LayerCount: 2
Fore
SplineSet
198 79 m 0
 198 66 199 57 216 57 c 0
 235 57 253 60 312 101 c 1
 297 30 l 1
 236 -7 204 -9 181 -9 c 0
 139 -9 128 24 128 55 c 0
 128 68 131 87 134 103 c 2
 173 286 l 1
 101 249 l 1
 80 303 l 1
 190 365 l 1
 234 574 l 2
 244 626 272 708 350 708 c 0
 420 708 439 685 439 650 c 0
 439 579 346 389 247 324 c 1
 200 101 l 2
 199 94 198 87 198 79 c 0
371 621 m 0
 371 633 366 641 338 641 c 0
 323 641 310 626 300 574 c 2
 265 409 l 1
 324 458 371 589 371 621 c 0
EndSplineSet
Validated: 1
EndChar

StartChar: trademark
Encoding: 8482 8482 323
Width: 859
VWidth: 1507
Flags: W
HStem: 680 51<175 294 347 476>
LayerCount: 2
Fore
SplineSet
880 297 m 1
 829 297 l 1
 897 610 l 1
 889 600 722 382 651 282 c 1
 547 610 l 1
 479 297 l 1
 427 297 l 1
 520 733 l 1
 571 733 l 1
 678 409 l 1
 924 731 l 1
 974 731 l 1
 880 297 l 1
294 680 m 1
 163 680 l 1
 175 731 l 1
 488 731 l 1
 476 680 l 1
 347 680 l 1
 265 297 l 1
 213 297 l 1
 294 680 l 1
EndSplineSet
Validated: 1
EndChar

StartChar: Ohm
Encoding: 8486 8486 324
Width: 738
VWidth: 1507
Flags: W
HStem: 0 59<51 255 505 696> 154 60<239.047 274 526 575.031> 621 60<338.882 676.471>
VStem: 138 72<242.296 397.086> 705 70<477.8 590.916>
LayerCount: 2
Fore
SplineSet
641 681 m 2
 723 681 775 618 775 545 c 0
 775 532 773 519 770 506 c 2
 740 365 l 2
 723 275 634 174 526 157 c 1
 505 59 l 1
 708 59 l 1
 696 0 l 1
 437 0 l 1
 482 214 l 1
 505 214 l 2
 579 214 654 283 672 365 c 2
 702 506 l 2
 704 513 705 521 705 528 c 0
 705 567 680 621 627 621 c 2
 410 621 l 2
 336 621 261 552 243 470 c 2
 213 329 l 2
 211 322 210 314 210 307 c 0
 210 268 235 214 288 214 c 2
 344 214 l 1
 298 0 l 1
 39 0 l 1
 51 59 l 1
 255 59 l 1
 274 154 l 1
 196 154 138 204 138 278 c 0
 138 290 139 302 142 314 c 2
 175 470 l 2
 196 572 302 681 424 681 c 2
 641 681 l 2
EndSplineSet
Validated: 1
EndChar

StartChar: estimated
Encoding: 8494 8494 325
Width: 480
VWidth: 1507
Flags: W
HStem: -8 61<187.204 314.795> 295 53<197 433> 529 60<302.864 416.608>
VStem: 86 70<84.4113 248.93> 443 70<348.758 502.363>
LayerCount: 2
Fore
SplineSet
384 589 m 0
 463 589 513 531 513 441 c 0
 513 420 510 397 505 372 c 2
 488 295 l 1
 185 295 l 1
 158 167 l 2
 157 160 156 154 156 147 c 0
 156 101 190 53 238 53 c 0
 301 53 383 99 402 188 c 1
 470 188 l 1
 447 80 341 -8 225 -8 c 0
 142 -8 86 56 86 132 c 0
 86 144 88 155 90 167 c 2
 127 336 l 2
 161 505 280 589 384 589 c 0
443 426 m 0
 443 484 416 529 371 529 c 0
 301 529 220 460 197 348 c 1
 433 348 l 1
 437 372 l 2
 441 391 443 409 443 426 c 0
EndSplineSet
Validated: 1
EndChar

StartChar: partialdiff
Encoding: 8706 8706 326
Width: 486
VWidth: 1507
Flags: W
HStem: -8 68<173.53 293.361> 384 61<268.134 440> 638 64<349.761 457.672>
VStem: 85 70<79.3039 191.684> 471 70<446.969 625.043>
LayerCount: 2
Fore
SplineSet
421 702 m 0
 489 702 541 680 541 591 c 0
 541 564 536 524 528 481 c 2
 479 249 l 2
 446 88 307 -8 213 -8 c 2
 205 -8 l 2
 133 -8 85 45 85 124 c 0
 85 138 87 152 90 167 c 2
 104 234 l 2
 131 361 255 445 353 445 c 2
 452 445 l 1
 460 481 l 2
 466 509 471 542 471 564 c 0
 471 621 445 638 405 638 c 0
 354 638 309 586 283 534 c 1
 228 562 l 1
 264 625 314 702 421 702 c 0
155 139 m 0
 155 97 176 60 223 60 c 0
 298 60 379 136 410 244 c 2
 440 384 l 1
 341 384 l 2
 251 384 186 295 172 234 c 2
 158 167 l 2
 156 158 155 149 155 139 c 0
EndSplineSet
Validated: 1
EndChar

StartChar: Delta
Encoding: 8710 8710 327
Width: 598
VWidth: 1507
Flags: W
HStem: 0 65<112 564>
LayerCount: 2
Fore
SplineSet
662 0 m 1
 -6 0 l 1
 463 623 l 1
 662 0 l 1
564 65 m 1
 436 493 l 1
 112 65 l 1
 564 65 l 1
EndSplineSet
Validated: 1
EndChar

StartChar: product
Encoding: 8719 8719 328
Width: 798
VWidth: 1507
Flags: W
HStem: 620 63<191 265 336 728 799 886>
LayerCount: 2
Fore
SplineSet
191 683 m 1
 900 683 l 1
 886 620 l 1
 799 620 l 1
 633 -157 l 1
 562 -157 l 1
 728 620 l 1
 336 620 l 1
 170 -157 l 1
 99 -157 l 1
 265 620 l 1
 178 620 l 1
 191 683 l 1
EndSplineSet
Validated: 1
EndChar

StartChar: summation
Encoding: 8721 8721 329
Width: 780
VWidth: 1507
Flags: W
HStem: -175 62<148 689> 620 63<329 859>
LayerCount: 2
Fore
SplineSet
689 -175 m 1
 -5 -175 l 1
 481 288 l 1
 182 683 l 1
 873 683 l 1
 859 620 l 1
 329 620 l 1
 574 288 l 1
 148 -113 l 1
 702 -113 l 1
 689 -175 l 1
EndSplineSet
Validated: 1
EndChar

StartChar: minus
Encoding: 8722 8722 330
Width: 563
VWidth: 1507
Flags: W
HStem: 300 63<133 583>
LayerCount: 2
Fore
SplineSet
119 300 m 1
 133 363 l 1
 597 363 l 1
 583 300 l 1
 119 300 l 1
EndSplineSet
Validated: 1
EndChar

StartChar: radical
Encoding: 8730 8730 331
Width: 530
VWidth: 1507
Flags: W
HStem: 336 65<106 179> 695 20G<608.208 690>
LayerCount: 2
Fore
SplineSet
252 -21 m 1
 179 336 l 1
 92 336 l 1
 106 401 l 1
 244 401 l 1
 291 157 l 1
 620 715 l 1
 690 715 l 1
 252 -21 l 1
EndSplineSet
Validated: 1
EndChar

StartChar: infinity
Encoding: 8734 8734 332
Width: 949
VWidth: 1507
Flags: W
HStem: 164 59<242.486 375.163 681.696 815.256> 517 54<300.356 422.744 731.339 868.815>
VStem: 147 60<256.818 412.214> 901 63<324.876 483.887>
LayerCount: 2
Fore
SplineSet
207 322 m 0
 207 261 248 223 308 223 c 0
 398 223 496 345 517 371 c 1
 476 437 433 517 366 517 c 256
 286 517 207 425 207 322 c 0
964 429 m 0
 964 297 858 164 733 164 c 0
 657 164 599 208 543 327 c 1
 481 253 385 164 292 164 c 0
 196 164 147 233 147 316 c 0
 147 435 226 571 378 571 c 0
 484 571 523 477 562 409 c 1
 683 548 768 571 819 571 c 0
 909 571 964 514 964 429 c 0
745 222 m 0
 834 222 901 319 901 415 c 0
 901 458 881 517 803 517 c 0
 723 517 632 422 586 363 c 1
 666 230 713 222 745 222 c 0
EndSplineSet
Validated: 1
EndChar

StartChar: integral
Encoding: 8747 8747 333
Width: 403
VWidth: 1507
Flags: W
HStem: -155 68<-73.2707 36.6669> 748 58<437.062 554.174>
LayerCount: 2
Fore
SplineSet
549 742 m 1
 529 746 509 748 499 748 c 0
 435 748 405 696 392 662 c 2
 137 -12 l 2
 120 -58 73 -155 -23 -155 c 0
 -52 -155 -88 -147 -95 -145 c 1
 -68 -83 l 1
 -59 -85 -50 -87 -23 -87 c 0
 35 -87 62 -41 74 -8 c 2
 327 666 l 2
 346 718 395 806 497 806 c 0
 505 806 544 806 573 799 c 1
 549 742 l 1
EndSplineSet
Validated: 1
EndChar

StartChar: notequal
Encoding: 8800 8800 335
Width: 527
VWidth: 1507
Flags: W
HStem: 185 70<104 202 311 513> 378 70<146 341 449 553>
LayerCount: 2
Fore
SplineSet
262 185 m 1
 169 56 l 1
 109 56 l 1
 202 185 l 1
 90 185 l 1
 104 255 l 1
 250 255 l 1
 341 378 l 1
 131 378 l 1
 146 448 l 1
 390 448 l 1
 490 588 l 1
 549 588 l 1
 449 448 l 1
 568 448 l 1
 553 378 l 1
 399 378 l 1
 311 255 l 1
 526 255 l 1
 513 185 l 1
 262 185 l 1
EndSplineSet
Validated: 1
EndChar

StartChar: lessequal
Encoding: 8804 8804 336
Width: 740
VWidth: 1507
Flags: W
HStem: 578 20G<710 755.342>
LayerCount: 2
Fore
SplineSet
760 598 m 1
 743 525 l 1
 341 368 l 1
 677 211 l 1
 662 137 l 1
 185 368 l 1
 760 598 l 1
139 246 m 1
 639 -15 l 1
 626 -83 l 1
 124 175 l 1
 139 246 l 1
EndSplineSet
Validated: 1
EndChar

StartChar: greaterequal
Encoding: 8805 8805 337
Width: 740
VWidth: 1507
Flags: W
HStem: 578 20G<220.342 266.217>
LayerCount: 2
Fore
SplineSet
699 368 m 1
 127 137 l 1
 142 211 l 1
 544 368 l 1
 208 525 l 1
 225 598 l 1
 699 368 l 1
695 246 m 1
 680 175 l 1
 69 -83 l 1
 83 -15 l 1
 695 246 l 1
EndSplineSet
Validated: 1
EndChar

StartChar: lozenge
Encoding: 9674 9674 338
Width: 593
VWidth: 1507
Flags: W
HStem: 702 20G<432.073 457.49>
LayerCount: 2
Fore
SplineSet
540 338 m 1
 425 606 l 1
 196 338 l 1
 311 69 l 1
 540 338 l 1
612 338 m 1
 285 -50 l 1
 124 338 l 1
 449 722 l 1
 612 338 l 1
EndSplineSet
Validated: 1
EndChar

StartChar: dottedcircle
Encoding: 9676 9676 339
Width: 615
VWidth: 1507
Flags: W
HStem: 33 57<290.677 344.269> 53 57<199.234 253.139 394.662 447.062> 107 57<130.359 182.638 487.359 540.677> 190 57<91.6771 145.269 556.795 609.269> 286 58<94.6621 146.678 600.1 653.9> 381 58<133.323 185.112 598.836 651.112> 464 58<205.7 258.9 563.322 615.338> 519 57<299.731 352.205 493.731 547.323> 538 57<397.677 451.269>
VStem: 89 60<193.375 244.503 288.495 339.386> 127 59<109.472 160.781 382.877 434.879> 196 60<56.2043 106.641 465.166 514.554> 288 60<36.375 87.5027> 296 59<521.294 572.625> 391 59<55.6719 106.534 539.373 590.552> 484 60<109.768 160.781 520.308 568.828> 554 59<193.375 244.706 465.192 515.331> 597 60<289.264 340.736 385.312 436.975>
LayerCount: 2
Fore
SplineSet
288 55 m 0x9c1b
 288 71 299 90 324 90 c 0
 337 90 348 82 348 69 c 0
 348 53 333 33 312 33 c 0
 296 33 288 40 288 55 c 0x9c1b
597 308 m 0x1c1340
 597 328 615 344 633 344 c 0
 649 344 657 337 657 322 c 0
 657 302 639 286 621 286 c 0
 605 286 597 293 597 308 c 0x1c1340
91 307 m 0
 91 327 109 344 127 344 c 0x1c33
 142 344 150 337 150 323 c 0
 150 302 133 286 115 286 c 0
 99 286 91 293 91 307 c 0
395 560 m 0
 395 576 406 595 431 595 c 0
 444 595 455 587 455 574 c 0
 455 558 440 538 419 538 c 0x1c93
 403 538 395 545 395 560 c 0
202 486 m 0
 202 503 219 522 238 522 c 0
 254 522 262 515 262 500 c 0
 262 480 244 464 226 464 c 0x1e13
 210 464 202 471 202 486 c 0
560 485 m 0
 560 506 577 522 595 522 c 0
 611 522 619 515 619 501 c 0
 619 481 601 464 583 464 c 0
 568 464 560 471 560 485 c 0
127 129 m 0x3c33
 127 145 142 164 163 164 c 0
 178 164 186 157 186 144 c 0
 186 133 179 107 151 107 c 0
 134 107 127 120 127 129 c 0x3c33
484 129 m 0
 484 145 499 164 520 164 c 0
 536 164 544 157 544 143 c 0
 544 132 536 107 508 107 c 0
 491 107 484 120 484 129 c 0
391 73 m 0
 391 93 409 110 427 110 c 0
 442 110 450 103 450 89 c 0
 450 68 433 53 415 53 c 0x5c13
 399 53 391 60 391 73 c 0
196 74 m 0
 196 95 215 110 232 110 c 0
 248 110 256 103 256 88 c 0
 256 67 237 53 220 53 c 0
 204 53 196 60 196 74 c 0
554 211 m 0x1c1380
 554 223 561 247 589 247 c 0
 602 247 613 239 613 226 c 0
 613 210 598 190 577 190 c 0
 562 190 554 197 554 211 c 0x1c1380
89 212 m 0x1c53
 89 228 100 247 125 247 c 0
 138 247 149 239 149 226 c 0
 149 210 134 190 113 190 c 0
 97 190 89 197 89 212 c 0x1c53
130 403 m 0
 130 414 138 439 166 439 c 0
 179 439 189 430 189 417 c 0
 189 403 175 381 154 381 c 0
 138 381 130 388 130 403 c 0
596 402 m 0
 596 415 603 439 632 439 c 0
 645 439 655 430 655 417 c 0
 655 403 641 381 620 381 c 0
 604 381 596 388 596 402 c 0
490 540 m 0
 490 556 505 576 526 576 c 0
 542 576 550 569 550 554 c 0
 550 538 539 519 514 519 c 0x1d13
 501 519 490 527 490 540 c 0
296 540 m 0x1d17
 296 556 311 576 332 576 c 0
 347 576 355 569 355 555 c 0
 355 543 348 519 320 519 c 0
 307 519 296 527 296 540 c 0x1d17
EndSplineSet
Validated: 1
EndChar

StartChar: uni0E10.alt1
Encoding: 63232 63232 340
Width: 538
VWidth: 1507
Flags: W
HStem: 0 21G<211 318> 134 45<184.747 239.683> 285 45<197.211 280.127> 494 55<426.7 573.277> 543 54<257.939 399.084>
VStem: 134 44<185.455 265.648> 286 44<197.418 279.57>
LayerCount: 2
Fore
SplineSet
203 451 m 1xee
 294 437 394 408 496 342 c 1
 455 152 l 2
 435 70 357 0 279 0 c 2
 211 0 l 1
 240 139 l 1
 231 136 221 134 211 134 c 0
 160 134 134 175 134 212 c 0
 134 276 200 330 253 330 c 0
 300 330 330 297 330 255 c 0
 330 248 329 240 327 232 c 2
 291 60 l 1
 332 64 375 101 386 143 c 2
 422 315 l 1
 358 358 260 390 127 410 c 1
 152 545 260 597 326 597 c 0xee
 386 597 439 557 505 549 c 0
 528 549 557 554 621 603 c 1
 607 540 l 1
 581 515 547 494 499 494 c 0xf6
 434 494 380 543 314 543 c 0
 270 543 215 496 203 451 c 1xee
178 224 m 0
 178 202 194 179 222 179 c 256
 254 179 286 211 286 242 c 0
 286 266 269 285 244 285 c 256
 211 285 178 252 178 224 c 0
EndSplineSet
Validated: 1
EndChar

StartChar: uni0E48.alt2
Encoding: 63242 63242 350
Width: 0
VWidth: 1507
Flags: W
HStem: 737 235<11 24>
VStem: -39 114
LayerCount: 2
Fore
SplineSet
11 972 m 1
 75 972 l 1
 24 737 l 1
 -39 737 l 1
 11 972 l 1
EndSplineSet
Validated: 1
Substitution2: "Single Substitution lookup 20 subtable" uni0E48.alt3
Substitution2: "Single Substitution lookup 21 subtable" uni0E48
Substitution2: "Single Substitution lookup 22 subtable" uni0E48.alt1
Substitution2: "Single Substitution lookup 20 subtable" uni0E48.alt3
Substitution2: "Single Substitution lookup 21 subtable" uni0E48
Substitution2: "Single Substitution lookup 22 subtable" uni0E48.alt1
EndChar

StartChar: uni0E49.alt2
Encoding: 63243 63243 351
Width: 0
VWidth: 1507
Flags: W
HStem: 711 59<-69 8.10666> 942 38<-94.3035 -24.396>
VStem: -150 38<857.09 924.16> -19 39<865.88 936.78> 136 55<898.296 953>
LayerCount: 2
Fore
SplineSet
191 953 m 1
 171 852 55 711 -86 711 c 0
 -114 711 -152 712 -199 760 c 1
 -171 764 -143 769 -89 812 c 1
 -130 817 -150 852 -150 878 c 0
 -150 924 -99 980 -47 980 c 256
 -7 980 20 949 20 914 c 0
 20 900 9 847 -16 818 c 0
 -32 800 -49 784 -69 770 c 1
 27 770 113 861 136 953 c 1
 191 953 l 1
-19 903 m 0
 -19 923 -34 942 -56 942 c 256
 -79 942 -112 916 -112 885 c 0
 -112 865 -93 852 -74 852 c 256
 -49 852 -19 873 -19 903 c 0
EndSplineSet
Validated: 1
Substitution2: "Single Substitution lookup 20 subtable" uni0E49.alt3
Substitution2: "Single Substitution lookup 21 subtable" uni0E49
Substitution2: "Single Substitution lookup 22 subtable" uni0E49.alt1
Substitution2: "Single Substitution lookup 20 subtable" uni0E49.alt3
Substitution2: "Single Substitution lookup 21 subtable" uni0E49
Substitution2: "Single Substitution lookup 22 subtable" uni0E49.alt1
EndChar

StartChar: uni0E4A.alt2
Encoding: 63244 63244 352
Width: 0
VWidth: 1507
Flags: W
HStem: 705 37<-199.501 -130.376> 715 21G<22.2857 78.5> 825 36<-166.361 -122.952> 915 48<-134.493 -63>
VStem: -240 37<745.448 811.546> -117 37<756.162 819.933> 51 48<785.547 914.218> 173 46<894.808 965>
LayerCount: 2
Fore
SplineSet
80 785 m 1xbf
 138 829 165 927 173 965 c 1
 219 965 l 1
 207 903 139 715 18 715 c 1x7f
 48 855 l 2
 50 863 51 870 51 877 c 0
 51 898 40 912 27 915 c 1
 -42 793 l 1
 -63 915 l 1
 -105 915 -159 889 -167 858 c 1
 -162 860 -158 861 -156 861 c 2
 -145 861 l 2
 -106 861 -80 825 -80 795 c 0
 -80 751 -132 705 -178 705 c 0
 -215 705 -240 735 -240 765 c 0
 -240 770 -240 776 -238 782 c 2
 -226 838 l 2
 -207 932 -101 963 -38 963 c 1
 -27 873 l 1
 23 963 l 1
 84 963 99 925 99 889 c 0
 99 879 98 867 95 855 c 2
 80 785 l 1xbf
-203 774 m 0
 -203 757 -190 742 -170 742 c 256xbf
 -149 742 -117 761 -117 789 c 0
 -117 808 -132 825 -152 825 c 256
 -178 825 -203 801 -203 774 c 0
EndSplineSet
Validated: 1
Substitution2: "Single Substitution lookup 20 subtable" uni0E4A.alt3
Substitution2: "Single Substitution lookup 21 subtable" uni0E4A
Substitution2: "Single Substitution lookup 22 subtable" uni0E4A.alt1
Substitution2: "Single Substitution lookup 20 subtable" uni0E4A.alt3
Substitution2: "Single Substitution lookup 21 subtable" uni0E4A
Substitution2: "Single Substitution lookup 22 subtable" uni0E4A.alt1
EndChar

StartChar: uni0E4B.alt2
Encoding: 63245 63245 353
Width: 0
VWidth: 1507
Flags: W
HStem: 715 21G<-89 -16.9664> 834 61<-163 -63 17 116>
VStem: -176 306
LayerCount: 2
Fore
SplineSet
130 895 m 1
 116 834 l 1
 3 834 l 1
 -21 715 l 1
 -89 715 l 1
 -63 834 l 1
 -176 834 l 1
 -163 895 l 1
 -50 895 l 1
 -24 1014 l 1
 42 1014 l 1
 17 895 l 1
 130 895 l 1
EndSplineSet
Validated: 1
Substitution2: "Single Substitution lookup 20 subtable" uni0E4B.alt3
Substitution2: "Single Substitution lookup 21 subtable" uni0E4B
Substitution2: "Single Substitution lookup 22 subtable" uni0E4B.alt1
Substitution2: "Single Substitution lookup 20 subtable" uni0E4B.alt3
Substitution2: "Single Substitution lookup 21 subtable" uni0E4B
Substitution2: "Single Substitution lookup 22 subtable" uni0E4B.alt1
EndChar

StartChar: uni0E4C.alt2
Encoding: 63246 63246 354
Width: 0
VWidth: 1507
Flags: W
HStem: 719 44<-87.7705 -5.88551> 858 54<56 174.354> 868 44<-75.3624 8.65436>
VStem: -141 47<769.038 848.327> 13 46<781.199 857.763>
LayerCount: 2
Fore
SplineSet
107 912 m 2xd8
 167 912 228 962 252 1016 c 1
 306 1016 l 1
 287 952 201 858 95 858 c 2
 56 858 l 1xd8
 58 853 59 847 59 841 c 0
 59 794 16 719 -60 719 c 0
 -108 719 -141 756 -141 798 c 0
 -141 851 -82 912 -20 912 c 2xb8
 107 912 l 2xd8
-51 763 m 256
 -17 763 13 794 13 829 c 0
 13 852 -7 868 -29 868 c 256xb8
 -63 868 -94 834 -94 807 c 0
 -94 783 -77 763 -51 763 c 256
EndSplineSet
Validated: 1
Substitution2: "Single Substitution lookup 20 subtable" uni0E4C.alt3
Substitution2: "Single Substitution lookup 21 subtable" uni0E4C
Substitution2: "Single Substitution lookup 22 subtable" uni0E4C.alt1
Substitution2: "Single Substitution lookup 20 subtable" uni0E4C.alt3
Substitution2: "Single Substitution lookup 21 subtable" uni0E4C
Substitution2: "Single Substitution lookup 22 subtable" uni0E4C.alt1
EndChar

StartChar: uni0E0D.alt1
Encoding: 63247 63247 355
Width: 860
VWidth: 1507
Flags: W
HStem: 0 60<528 696.733> 0 47<178.411 260.182> 152 42<217.829 273.695> 537 60<308.973 522.911>
VStem: 125 49<50.7868 134.04> 177 69<282.552 377.378> 280 43<67.3924 145.562> 543 69<413.833 518.604>
LayerCount: 2
Fore
SplineSet
213 422 m 1xbf
 236 400 246 376 246 342 c 0
 246 332 245 322 243 312 c 2
 217 190 l 1
 227 193 237 194 246 194 c 0
 287 194 323 161 323 119 c 0
 323 60 267 0 205 0 c 0x7f
 150 0 125 40 125 67 c 0
 125 72 126 78 127 83 c 2
 175 312 l 2
 176 318 177 323 177 329 c 0
 177 352 160 388 125 392 c 1
 169 525 299 597 396 597 c 2
 490 597 l 2
 556 597 612 542 612 473 c 0
 612 464 611 455 609 446 c 2
 528 60 l 1
 645 60 l 2
 689 64 737 107 748 154 c 2
 843 597 l 1
 910 597 l 1
 816 154 l 2
 797 73 714 -0 633 0 c 2xbf
 517 0 l 2x7f
 482 0 461 30 461 60 c 2
 461 68 l 1
 541 446 l 2
 543 453 543 459 543 466 c 0
 543 502 518 537 476 537 c 2
 380 537 l 2
 313 537 242 473 213 422 c 1xbf
280 108 m 0
 280 132 263 152 237 152 c 256
 202 152 174 120 174 85 c 0
 174 62 192 47 214 47 c 256
 247 47 280 80 280 108 c 0
EndSplineSet
Validated: 1
EndChar

StartChar: uni0E38.alt1
Encoding: 63256 63256 364
Width: 0
VWidth: 1507
Flags: W
HStem: -249 38<-239.893 -194.982> -121 38<-229.987 -156.201>
VStem: -284 39<-206.785 -135.37> -152 44<-198.243 -124.111>
LayerCount: 2
Fore
SplineSet
-181 -83 m 0
 -143 -83 -108 -109 -108 -148 c 0
 -108 -153 -109 -158 -110 -164 c 2
 -139 -301 l 1
 -207 -301 l 1
 -194 -246 l 1
 -199 -248 -204 -249 -208 -249 c 2
 -217 -249 l 2
 -262 -249 -284 -216 -284 -184 c 0
 -284 -133 -231 -83 -181 -83 c 0
-208 -211 m 0
 -180 -211 -152 -186 -152 -155 c 0
 -152 -135 -168 -121 -190 -121 c 0
 -223 -121 -245 -150 -245 -175 c 0
 -245 -189 -237 -211 -208 -211 c 0
EndSplineSet
Validated: 1
EndChar

StartChar: uni0E39.alt1
Encoding: 63257 63257 365
Width: 0
VWidth: 1507
Flags: W
HStem: -301 60<-253 -197> -252 38<-368.638 -323.584> -124 41<-358.575 -283.289>
VStem: -411 39<-210.688 -138.253> -279 44<-200.589 -127.156>
LayerCount: 2
Fore
SplineSet
-235 -149 m 0x78
 -235 -155 -236 -161 -237 -167 c 2
 -253 -241 l 1
 -197 -241 l 1
 -164 -86 l 1
 -96 -86 l 1
 -130 -241 l 2
 -138 -281 -165 -301 -210 -301 c 2
 -333 -301 l 1xb8
 -323 -249 l 1
 -327 -251 -331 -252 -334 -252 c 2
 -344 -252 l 2
 -385 -252 -411 -222 -411 -187 c 0
 -411 -137 -358 -83 -308 -83 c 0
 -270 -83 -235 -111 -235 -149 c 0x78
-336 -214 m 0x78
 -310 -214 -279 -189 -279 -161 c 0
 -279 -148 -287 -124 -317 -124 c 0
 -348 -124 -372 -150 -372 -180 c 0
 -372 -193 -365 -214 -336 -214 c 0x78
EndSplineSet
Validated: 1
EndChar

StartChar: uni0E0E.alt1
Encoding: 63259 63259 367
Width: 615
VWidth: 1507
Flags: W
HStem: -116 44<138.169 220.327> 32 43<151.042 236.386> 90 44<123.973 207.545> 237 43<137.509 218.766> 537 60<325.673 541.539>
VStem: 75 45<138.178 220.037> 88 45<-67.6546 14.2312> 226 69<280.667 363.97> 561 69<413.975 518.604>
LayerCount: 2
Fore
SplineSet
508 597 m 2xfd80
 568 597 630 549 630 474 c 0
 630 464 629 455 627 446 c 2
 550 80 l 2
 533 -4 444 -75 366 -75 c 1
 280 -27 l 1
 267 -75 215 -116 164 -116 c 256
 119 -116 88 -79 88 -38 c 0xfb80
 88 25 150 75 205 75 c 0
 219 75 230 75 273 50 c 2
 380 -14 l 1
 414 -11 470 23 484 90 c 2
 559 446 l 2
 561 453 561 459 561 466 c 0
 561 502 536 537 494 537 c 2
 399 537 l 2
 333 537 262 476 234 427 c 1
 267 413 295 370 295 332 c 0
 295 325 294 318 292 311 c 2
 265 181 l 2
 255 128 199 90 151 90 c 0
 102 90 75 129 75 166 c 0
 75 227 131 280 191 280 c 2
 205 280 l 2
 209 280 214 279 219 277 c 1
 225 311 l 2
 226 314 226 317 226 320 c 0
 226 353 181 394 145 396 c 1
 180 512 303 597 416 597 c 2
 508 597 l 2xfd80
182 237 m 256
 148 237 120 206 120 173 c 0xfd80
 120 154 134 134 160 134 c 0
 189 134 226 161 226 195 c 0
 226 220 206 237 182 237 c 256
196 32 m 0
 163 32 133 1 133 -30 c 0xfb80
 133 -53 149 -72 173 -72 c 0
 202 -72 240 -46 240 -7 c 0
 240 11 231 32 196 32 c 0
EndSplineSet
Validated: 1
EndChar

StartChar: uni0E0F.alt1
Encoding: 63260 63260 368
Width: 613
VWidth: 1507
Flags: W
HStem: -134 44<67.9998 152.17> 15 44<81.9235 163.375> 90 44<124.694 207.882> 237 43<137.48 218.812> 537 60<325.673 541.539>
VStem: 18 44<-84.293 -4.3144> 74 46<138.372 219.999> 170 46<-72.0704 -0.366211> 226 69<281.433 363.589> 561 69<413.8 518.604>
LayerCount: 2
Fore
SplineSet
508 597 m 2
 568 597 630 549 630 474 c 0
 630 464 629 455 627 446 c 2
 550 78 l 2
 535 7 484 -28 401 -75 c 1
 365 41 l 1
 273 -75 l 1
 261 -48 242 -7 213 0 c 1
 215 -4 216 -10 216 -18 c 0
 216 -73 159 -134 96 -134 c 0
 45 -134 18 -96 18 -58 c 0
 18 1 76 59 137 59 c 0
 218 59 251 57 288 6 c 1
 387 131 l 1
 425 14 l 1
 461 34 476 48 482 78 c 2
 559 446 l 2
 561 453 561 459 561 466 c 0
 561 502 536 537 494 537 c 2
 399 537 l 2
 333 537 262 476 234 427 c 1
 261 415 295 377 295 335 c 0
 295 327 294 320 292 312 c 2
 265 181 l 2
 255 128 199 90 151 90 c 0
 106 90 74 124 74 164 c 0
 74 229 137 280 191 280 c 2
 206 280 l 2
 211 280 215 279 219 277 c 1
 225 311 l 2
 226 314 226 317 226 320 c 0
 226 353 181 394 145 396 c 1
 180 512 303 597 416 597 c 2
 508 597 l 2
182 237 m 0
 154 237 120 211 120 173 c 0
 120 154 134 134 160 134 c 0
 191 134 226 161 226 195 c 0
 226 220 206 237 182 237 c 0
128 15 m 256
 95 15 62 -18 62 -46 c 0
 62 -59 71 -90 106 -90 c 256
 136 -90 170 -61 170 -28 c 0
 170 -4 153 15 128 15 c 256
EndSplineSet
Validated: 1
EndChar

StartChar: uni0E2C.alt1
Encoding: 63261 63261 369
Width: 714
VWidth: 1507
Flags: W
HStem: -3 21G<209.5 239.627 542.444 576> 409 43<200.107 254.687> 472 44<596.571 667.27> 555 42<212.196 293.019> 620 42<612.226 691.127>
VStem: 150 43<457.868 535.612> 298 46<469 550.708> 547 44<522.364 600.002> 697 52<574 614.86>
LayerCount: 2
Fore
SplineSet
669 662 m 0
 718 662 749 622 749 582 c 2
 749 574 l 1
 769 590 788 613 805 642 c 1
 853 642 l 1
 822 592 785 549 743 513 c 1
 666 151 l 2
 646 66 605 9 547 -3 c 1
 470 335 l 1
 225 0 l 1
 194 0 178 14 178 43 c 0
 178 50 179 57 181 66 c 2
 255 413 l 1
 244 410 234 409 226 409 c 0
 177 409 150 449 150 485 c 0
 150 539 205 597 267 597 c 256
 312 597 344 563 344 524 c 0
 344 517 343 510 341 503 c 2
 265 143 l 1
 493 458 l 1
 501 456 507 449 511 436 c 2
 585 127 l 1
 595 135 593 142 600 158 c 1
 668 481 l 1
 661 477 651 472 626 472 c 0
 578 472 547 506 547 547 c 0
 547 610 612 662 669 662 c 0
697 579 m 0
 697 600 681 620 657 620 c 0
 627 620 591 590 591 557 c 0
 591 533 612 516 635 516 c 0
 660 516 697 539 697 579 c 0
298 514 m 0
 298 529 290 555 258 555 c 256
 225 555 193 522 193 496 c 0
 193 484 202 452 235 452 c 256
 262 452 298 476 298 514 c 0
EndSplineSet
Validated: 1
EndChar

StartChar: uni0E24.liga
Encoding: 63617 63617 371
Width: 928
VWidth: 1507
Flags: W
HStem: 0 42<187.868 267.665> 148 42<227.048 281.641> 529 68<704.25 876.442> 537 60<322.047 532.803>
VStem: 136 45<47.9234 112.125> 186 70<282.067 377.955> 287 47<59.9892 143.422> 895 71<413.287 510.89>
LayerCount: 2
Fore
SplineSet
846 597 m 2xef
 923 597 966 543 966 479 c 0
 966 468 964 457 962 446 c 2
 816 -255 l 1
 745 -255 l 1
 892 446 l 2
 894 453 895 459 895 465 c 0
 895 489 876 525 831 529 c 2
 781 529 l 2xef
 727 526 678 500 638 452 c 2
 614 421 l 1
 470 -255 l 1
 402 -255 l 1
 550 446 l 2
 552 453 552 459 552 466 c 0
 552 502 527 537 485 537 c 2
 390 537 l 2
 324 537 251 471 223 422 c 1
 244 403 256 382 256 345 c 0
 256 334 255 323 252 311 c 2
 226 187 l 1
 231 189 236 190 240 190 c 2
 255 190 l 2
 302 190 334 149 334 112 c 0
 334 64 283 0 216 0 c 0
 172 0 136 31 136 71 c 2
 136 78 l 1
 184 312 l 2
 185 318 186 323 186 329 c 0
 186 358 165 388 136 392 c 1
 172 508 294 597 407 597 c 2
 499 597 l 2xdf
 553 597 597 562 612 517 c 1
 629 529 l 2
 680 572 736 595 799 597 c 2
 846 597 l 2xef
246 148 m 256
 215 148 181 115 181 86 c 0
 181 63 198 42 223 42 c 256
 256 42 287 74 287 107 c 0
 287 128 272 148 246 148 c 256
EndSplineSet
Validated: 1
Ligature2: "'liga' Standard Ligatures in Latin lookup 19 subtable" uni0E24 uni0E45
EndChar

StartChar: uni0E26.liga
Encoding: 63618 63618 372
Width: 928
VWidth: 1507
Flags: W
HStem: 0 44<96.4231 180.35> 148 43<110.082 191.438> 529 68<702.893 878.365> 537 60<316.673 532.803>
VStem: 48 43<49.7118 128.224> 218 70<280.92 363.678> 895 72<413.503 512.95>
LayerCount: 2
Fore
SplineSet
225 427 m 1xde
 250 416 288 378 288 334 c 0
 288 327 287 320 285 312 c 2
 238 90 l 2
 227 41 170 0 125 0 c 0
 73 0 48 42 48 76 c 0
 48 138 109 191 164 191 c 0
 173 191 182 190 191 187 c 1
 217 311 l 2
 218 314 218 317 218 319 c 0
 218 353 172 394 136 396 c 1
 171 512 294 597 407 597 c 2
 499 597 l 2xde
 553 597 597 562 612 517 c 1
 629 529 l 1
 680 572 736 597 799 597 c 2
 846 597 l 2
 929 597 967 535 967 479 c 0
 967 468 966 457 963 446 c 2
 816 -255 l 1
 745 -255 l 1
 892 446 l 2
 894 453 895 459 895 465 c 0
 895 489 876 529 831 529 c 2
 781 529 l 2xee
 709 529 649 477 614 422 c 1
 470 -255 l 1
 402 -255 l 1
 550 446 l 2
 552 453 552 459 552 466 c 0
 552 502 527 537 485 537 c 2
 390 537 l 2
 324 537 253 476 225 427 c 1xde
155 148 m 256
 120 148 91 111 91 87 c 0
 91 63 108 44 134 44 c 256
 165 44 198 71 198 106 c 0
 198 127 181 148 155 148 c 256
EndSplineSet
Validated: 1
Ligature2: "'liga' Standard Ligatures in Latin lookup 19 subtable" uni0E26 uni0E45
EndChar

